<?xml version="1.0" encoding="UTF-8" standalone="no"?>
<svg
   xmlns:osb="http://www.openswatchbook.org/uri/2009/osb"
   xmlns:dc="http://purl.org/dc/elements/1.1/"
   xmlns:cc="http://creativecommons.org/ns#"
   xmlns:rdf="http://www.w3.org/1999/02/22-rdf-syntax-ns#"
   xmlns:svg="http://www.w3.org/2000/svg"
   xmlns="http://www.w3.org/2000/svg"
   xmlns:xlink="http://www.w3.org/1999/xlink"
   height="100%"
   width="100%"
   version="1.1"
   id="svg2"
   viewBox="0,0,48,48">
  <defs
     id="defs4">
    <linearGradient
       osb:paint="solid"
       id="linearGradient5103">
      <stop
         id="stop5105"
         offset="0"
         style="stop-color:#000000;stop-opacity:1;" />
    </linearGradient>
    <linearGradient
       id="linearGradient5041">
      <stop
         id="stop5043"
         offset="0"
         style="stop-color:#ffffff;stop-opacity:1;" />
      <stop
         id="stop5045"
         offset="1"
         style="stop-color:#ffffff;stop-opacity:0;" />
    </linearGradient>
    <linearGradient
       id="linearGradient4981">
      <stop
         id="stop4983"
         offset="0"
         style="stop-color:#11566a;stop-opacity:1" />
      <stop
         id="stop4985"
         offset="1"
         style="stop-color:#3790aa;stop-opacity:1" />
    </linearGradient>
    <linearGradient
       id="linearGradient5736">
      <stop
         id="stop5738"
         offset="0"
         style="stop-color:#c3c3c3;stop-opacity:1" />
      <stop
         id="stop5740"
         offset="1"
         style="stop-color:#ffffff;stop-opacity:1;" />
    </linearGradient>
    <linearGradient
       gradientUnits="userSpaceOnUse"
       y2="8.078125"
       x2="9.9570312"
       y1="41.769531"
       x1="37.976562"
       id="linearGradient5742"
       xlink:href="#linearGradient5736" />
    <linearGradient
       gradientUnits="userSpaceOnUse"
       y2="1019.0466"
       x2="29.488289"
       y1="1012.6989"
       x1="36.402351"
       id="linearGradient5796-6"
       xlink:href="#linearGradient5736-8" />
    <linearGradient
       id="linearGradient5736-8">
      <stop
         id="stop5738-9"
         offset="0"
         style="stop-color:#c3c3c3;stop-opacity:1" />
      <stop
         id="stop5740-8"
         offset="1"
         style="stop-color:#ffffff;stop-opacity:1;" />
    </linearGradient>
    <linearGradient
       gradientUnits="userSpaceOnUse"
       y2="8.078125"
       x2="9.9570312"
       y1="41.769531"
       x1="37.976562"
       id="linearGradient5742-5"
       xlink:href="#linearGradient5736-5" />
    <linearGradient
       id="linearGradient5736-5">
      <stop
         id="stop5738-8"
         offset="0"
         style="stop-color:#c3c3c3;stop-opacity:1" />
      <stop
         id="stop5740-4"
         offset="1"
         style="stop-color:#ffffff;stop-opacity:1;" />
    </linearGradient>
    <radialGradient
       gradientTransform="matrix(1.4392962,-0.01302752,0.01034666,1.1431055,-18.162773,-1145.6554)"
       gradientUnits="userSpaceOnUse"
       r="18.75"
       fy="1037.3335"
       fx="22.232731"
       cy="1037.3335"
       cx="22.232731"
       id="radialGradient4987"
       xlink:href="#linearGradient4981" />
    <linearGradient
       gradientTransform="matrix(0,1.1856884,-1.1856884,0,1238.4261,-1.9369)"
       gradientUnits="userSpaceOnUse"
       y2="1024.2372"
       x2="25.488281"
       y1="1024.2372"
       x1="1.0742188"
       id="linearGradient5047"
       xlink:href="#linearGradient5041" />
    <filter
       height="1.12"
       y="-0.06"
       width="1.12"
       x="-0.06"
       id="filter5162"
       style="color-interpolation-filters:sRGB">
      <feGaussianBlur
         id="feGaussianBlur5164"
         stdDeviation="0.97167969" />
    </filter>
    <linearGradient
       gradientTransform="matrix(1.1856884,0,0,1.3328365,18.0631,-1389.1407)"
       gradientUnits="userSpaceOnUse"
       y2="1024.2372"
       x2="25.488281"
       y1="1024.2372"
       x1="1.0742188"
       id="linearGradient5047-0"
       xlink:href="#linearGradient5041" />
    <radialGradient
       gradientTransform="matrix(1.4105103,-0.01276697,0.01013973,1.1202434,-17.319518,-1122.2623)"
       gradientUnits="userSpaceOnUse"
       r="18.75"
       fy="1037.3335"
       fx="22.232731"
       cy="1037.3335"
       cx="22.232731"
       id="radialGradient4987-0"
       xlink:href="#linearGradient5041" />
    <linearGradient
       gradientUnits="userSpaceOnUse"
       y2="32.916721"
       x2="23.424726"
       y1="-16.996809"
       x1="23.424726"
       id="linearGradient4188"
       xlink:href="#linearGradient5041" />
  </defs>
  <metadata
     id="metadata7">
    <rdf:RDF>
      <cc:Work
         rdf:about="">
        <dc:format>image/svg+xml</dc:format>
        <dc:type
           rdf:resource="http://purl.org/dc/dcmitype/StillImage" />
        <dc:title></dc:title>
      </cc:Work>
    </rdf:RDF>
  </metadata>
  <circle
     style="opacity:1;fill:#000000;fill-opacity:1;stroke:none;filter:url(#filter5162)"
     id="path4979-3"
     cx="24"
     cy="1028.3622"
     r="19.433594"
     transform="matrix(1.1256281,0,0,1.1256281,-3.0150754,-1133.5534)" />
  <circle
     style="opacity:1;fill:url(#radialGradient4987);fill-opacity:1;stroke:none;stroke-opacity:1"
     id="path4979"
     cx="24"
     cy="23.999983"
     r="21.875" />
  <path
     id="path4979-1"
     d="M 24 2.5625 A 21.4375 21.4375 0 0 0 2.6347656 22.544922 A 26.204197 12.685274 0 0 0 24 27.912109 A 26.204197 12.685274 0 0 0 45.386719 22.542969 A 21.4375 21.4375 0 0 0 24 2.5625 z "
     style="opacity:1;fill:url(#linearGradient4188);fill-opacity:1;stroke:none;stroke-opacity:1" />
  <g
     transform="matrix(1.1181225,0,0,0.94017193,-0.60705129,-1030.3734)"
     style="font-style:normal;font-weight:normal;font-size:32.19615555px;line-height:125%;font-family:sans-serif;letter-spacing:0px;word-spacing:0px;fill:#ffffff;fill-opacity:1;stroke:#ffffff;stroke-width:1.20000005;stroke-linecap:round;stroke-linejoin:round;stroke-miterlimit:4;stroke-dasharray:none;stroke-opacity:1"
     id="text5049" />
  <g
     transform="matrix(0.92812407,0,0,0.92812407,1.7250154,1.050682)"
     id="text4163"
     style="font-style:normal;font-weight:normal;font-size:40.37348175px;line-height:125%;font-family:sans-serif;letter-spacing:0px;word-spacing:0px;fill:#ffffff;fill-opacity:1;stroke:none;stroke-width:1.39999998;stroke-linecap:butt;stroke-linejoin:miter;stroke-miterlimit:4;stroke-dasharray:none;stroke-opacity:1">
    <path
       id="path4170"
       style="font-style:normal;font-variant:normal;font-weight:normal;font-stretch:normal;font-family:Arial;-inkscape-font-specification:Arial;fill:#ffffff;fill-opacity:1;stroke:#ffffff;stroke-width:1.39999998;stroke-linejoin:round;stroke-miterlimit:4;stroke-dasharray:none;stroke-opacity:1"
       d="m 22.206061,31.353177 c -0.01314,-0.473127 -0.01971,-0.827972 -0.01971,-1.064535 0,-1.393096 0.197136,-2.595627 0.591408,-3.607592 0.289133,-0.762259 0.755689,-1.53109 1.399667,-2.306493 0.473127,-0.565123 1.320812,-1.386524 2.543056,-2.464201 1.235387,-1.09082 2.037074,-1.958219 2.405061,-2.602198 0.367987,-0.643978 0.551981,-1.347097 0.551981,-2.109356 0,-1.379953 -0.538839,-2.589055 -1.616516,-3.627305 -1.077678,-1.051393 -2.39849,-1.577089 -3.962437,-1.577089 -1.511377,0 -2.773048,0.473127 -3.785014,1.41938 -1.011965,0.946253 -1.675657,2.424774 -1.991075,4.435563 l -3.647018,-0.433699 c 0.32856,-2.694194 1.301098,-4.757552 2.917615,-6.190075 1.629659,-1.4325229 3.778443,-2.1487843 6.446352,-2.1487843 2.825618,0 5.079541,0.7688311 6.761769,2.3064933 1.682229,1.537661 2.523343,3.397312 2.523343,5.578952 0,1.261671 -0.295704,2.424775 -0.887113,3.48931 -0.591408,1.064535 -1.74794,2.359063 -3.469596,3.883582 -1.156532,1.025108 -1.912221,1.780797 -2.267066,2.267066 -0.354845,0.486269 -0.617693,1.044821 -0.788544,1.675657 -0.170851,0.630835 -0.269419,1.655943 -0.295704,3.075324 z" />
  </g>
  <circle
     r="1.8752692"
     cy="36.647388"
     cx="23.99999"
     id="path4167"
     style="opacity:1;fill:#ffffff;fill-opacity:1;fill-rule:nonzero;stroke:#ffffff;stroke-width:1.30391526;stroke-linecap:round;stroke-linejoin:round;stroke-miterlimit:4;stroke-dasharray:none;stroke-opacity:1" />
</svg>
