<?xml version="1.0" encoding="UTF-8" standalone="no"?>
<svg
   xmlns:dc="http://purl.org/dc/elements/1.1/"
   xmlns:cc="http://creativecommons.org/ns#"
   xmlns:rdf="http://www.w3.org/1999/02/22-rdf-syntax-ns#"
   xmlns:svg="http://www.w3.org/2000/svg"
   xmlns="http://www.w3.org/2000/svg"
   xmlns:xlink="http://www.w3.org/1999/xlink"
   height="100%"
   width="100%"
   version="1.1"
   id="svg2"
   viewBox="0,0,48,48">
  <defs
     id="defs4">
    <linearGradient
       id="linearGradient5736">
      <stop
         id="stop5738"
         offset="0"
         style="stop-color:#c3c3c3;stop-opacity:1" />
      <stop
         id="stop5740"
         offset="1"
         style="stop-color:#ffffff;stop-opacity:1;" />
    </linearGradient>
    <linearGradient
       gradientUnits="userSpaceOnUse"
       y2="8.078125"
       x2="9.9570312"
       y1="41.769531"
       x1="37.976562"
       id="linearGradient5742"
       xlink:href="#linearGradient5736" />
    <linearGradient
       gradientTransform="matrix(1.2339726,0,0,1.2339726,-6.116643,-240.72429)"
       gradientUnits="userSpaceOnUse"
       y2="1019.0466"
       x2="29.488289"
       y1="1012.6989"
       x1="36.402351"
       id="linearGradient5796"
       xlink:href="#linearGradient5736" />
    <linearGradient
       gradientUnits="userSpaceOnUse"
       y2="1019.0466"
       x2="29.488289"
       y1="1012.6989"
       x1="36.402351"
       id="linearGradient5796-6"
       xlink:href="#linearGradient5736-8" />
    <linearGradient
       id="linearGradient5736-8">
      <stop
         id="stop5738-9"
         offset="0"
         style="stop-color:#c3c3c3;stop-opacity:1" />
      <stop
         id="stop5740-8"
         offset="1"
         style="stop-color:#ffffff;stop-opacity:1;" />
    </linearGradient>
    <filter
       height="1.2644746"
       y="-0.13223728"
       width="1.2639663"
       x="-0.13198315"
       id="filter5860">
      <feGaussianBlur
         id="feGaussianBlur5862"
         stdDeviation="0.39311389" />
    </filter>
    <linearGradient
       gradientUnits="userSpaceOnUse"
       y2="8.078125"
       x2="9.9570312"
       y1="41.769531"
       x1="37.976562"
       id="linearGradient5742-5"
       xlink:href="#linearGradient5736-5" />
    <linearGradient
       id="linearGradient5736-5">
      <stop
         id="stop5738-8"
         offset="0"
         style="stop-color:#c3c3c3;stop-opacity:1" />
      <stop
         id="stop5740-4"
         offset="1"
         style="stop-color:#ffffff;stop-opacity:1;" />
    </linearGradient>
    <filter
       id="filter5926">
      <feGaussianBlur
         id="feGaussianBlur5928"
         stdDeviation="0.8728125" />
    </filter>
    <linearGradient
       gradientTransform="matrix(1.2339726,0,0,1.2339726,-6.116643,998.63111)"
       y2="8.078125"
       x2="9.9570312"
       y1="41.769531"
       x1="37.976562"
       gradientUnits="userSpaceOnUse"
       id="linearGradient5930"
       xlink:href="#linearGradient5736" />
    <linearGradient
       xlink:href="#linearGradient4275"
       id="linearGradient4281-0"
       x1="23.36586"
       y1="-14.574146"
       x2="23.36586"
       y2="34.839916"
       gradientUnits="userSpaceOnUse"
       gradientTransform="matrix(0.57138189,0,0,0.57229835,2.8667094,1007.114)" />
    <linearGradient
       id="linearGradient4275">
      <stop
         style="stop-color:#ffffff;stop-opacity:1"
         offset="0"
         id="stop4277" />
      <stop
         style="stop-color:#ffffff;stop-opacity:0"
         offset="1"
         id="stop4279" />
    </linearGradient>
    <linearGradient
       xlink:href="#linearGradient4275"
       id="linearGradient4281"
       x1="23.36586"
       y1="-14.574146"
       x2="23.36586"
       y2="34.839916"
       gradientUnits="userSpaceOnUse"
       gradientTransform="matrix(0.42457137,0,0,0.42526325,16.838329,1023.2131)" />
  </defs>
  <metadata
     id="metadata7">
    <rdf:RDF>
      <cc:Work
         rdf:about="">
        <dc:format>image/svg+xml</dc:format>
        <dc:type
           rdf:resource="http://purl.org/dc/dcmitype/StillImage" />
        <dc:title></dc:title>
      </cc:Work>
    </rdf:RDF>
  </metadata>
  <g
     transform="translate(0,-1004.3622)"
     id="layer1">
    <path
       transform="matrix(1.2339726,0,0,1.2339726,-5.6153416,-240.60854)"
       id="rect5188-0"
       d="m 11.59375,1011.6747 0,33.375 24.8125,0 0,-26.25 -7.15625,-7.125 -17.65625,0 z"
       style="fill:#000000;fill-opacity:1;fill-rule:evenodd;stroke:none;filter:url(#filter5926)" />
    <path
       id="rect5188"
       d="m 8.6910278,1007.7703 0,41.1838 30.6179442,0 0,-32.3918 -8.830616,-8.792 -21.7873282,0 z"
       style="fill:url(#linearGradient5930);fill-opacity:1;fill-rule:evenodd;stroke:none" />
    <path
       transform="matrix(1.2339726,0,0,1.2339726,-5.6153416,-240.60854)"
       id="rect5194-3"
       d="m 29.271538,1011.6746 -0.01372,7.1347 7.148438,0 -7.134743,-7.1347 z"
       style="fill:#000000;fill-opacity:1;fill-rule:evenodd;stroke:none;filter:url(#filter5860)" />
    <path
       id="rect5194"
       d="m 30.504933,1007.7702 -0.01693,8.804 8.820977,0 -8.804078,-8.804 z"
       style="fill:url(#linearGradient5796);fill-opacity:1;fill-rule:evenodd;stroke:none" />
    <g
       transform="matrix(0.59939623,0,0,0.59939623,9.6153153,413.96489)"
       id="g4513">
      <path
         transform="matrix(0.57138189,0,0,0.57229835,2.8667094,432.3192)"
         id="path4155-5"
         d="m 25.197265,1010.819 c -2.854298,0.075 -0.516242,3.3557 -4.052735,4.1075 -3.772259,0.8018 -2.609362,-3.7447 -5.949219,-1.8165 -3.339856,1.9283 1.176228,3.1946 -1.404296,6.0606 -2.580526,2.866 -4.3103131,-1.4938 -5.8789071,2.0293 -1.5685939,3.5231 2.8288991,1.8911 2.4257821,5.7266 -0.4031187,3.8354 -4.3662722,1.3254 -3.564454,5.0976 0.8018181,3.7723 3.401812,-0.1328 5.330079,3.207 1.928267,3.3399 -2.7526828,3.6383 0.113281,6.2188 2.865963,2.5805 2.672194,-2.1077 6.195312,-0.5391 3.52312,1.5686 -0.08931,4.5618 3.746094,4.9649 3.835407,0.4031 0.925007,-3.2763 4.697266,-4.0782 3.772259,-0.8018 2.609362,3.7447 5.949219,1.8165 3.339856,-1.9283 -1.176228,-3.1946 1.404296,-6.0606 2.580526,-2.866 4.310313,1.4938 5.878907,-2.0293 1.568593,-3.5231 -2.828899,-1.8911 -2.425782,-5.7266 0.403118,-3.8354 4.366272,-1.3253 3.564453,-5.0976 -0.801818,-3.7723 -3.401811,0.1328 -5.330078,-3.207 -1.928267,-3.3399 2.752682,-3.6383 -0.113281,-6.2188 -2.865963,-2.5805 -2.672194,2.1077 -6.195312,0.5391 -3.52312,-1.5686 0.08931,-4.5618 -3.746094,-4.9649 -0.239713,-0.025 -0.454245,-0.034 -0.644531,-0.029 z m -1.197266,9.6328 a 7.9101562,7.9101562 0 0 1 7.910156,7.9102 7.9101562,7.9101562 0 0 1 -7.910156,7.9102 7.9101562,7.9101562 0 0 1 -7.910156,-7.9102 7.9101562,7.9101562 0 0 1 7.910156,-7.9102 z"
         style="fill:#a0a0a0;fill-opacity:1;fill-rule:evenodd;stroke:none;stroke-width:1px;stroke-linecap:butt;stroke-linejoin:miter;stroke-opacity:1" />
      <path
         id="path4225-9"
         d="m 17.263971,1010.8093 c -1.630894,0.043 -0.294971,1.9205 -2.31566,2.3507 -2.1554,0.4589 -1.490941,-2.143 -3.399276,-1.0395 -1.9083322,1.1036 0.672076,1.8282 -0.802389,3.4684 -1.4744656,1.6402 -2.4628344,-0.8549 -3.3591006,1.1614 -0.8962661,2.0163 1.6163815,1.0822 1.3860477,3.2773 -0.023135,0.2205 -0.071207,0.3965 -0.1305699,0.5511 a 13.838155,6.4551236 0 0 0 3.4561908,0.8159 4.51972,4.5269693 0 0 1 -0.03906,-0.5454 4.51972,4.5269693 0 0 1 4.51972,-4.527 4.51972,4.5269693 0 0 1 4.51972,4.527 4.51972,4.5269693 0 0 1 -0.03683,0.5454 13.838155,6.4551236 0 0 0 5.153597,-1.4665 c 0.231217,-0.1947 0.346003,-0.5172 0.206456,-1.1748 -0.458143,-2.1588 -1.943733,0.076 -3.04551,-1.8353 -1.101777,-1.9115 1.572833,-2.0822 -0.06473,-3.559 -1.637559,-1.4768 -1.526843,1.2062 -3.539889,0.3085 -2.013047,-0.8977 0.05103,-2.6107 -2.14045,-2.8414 -0.136968,-0.014 -0.259547,-0.02 -0.368273,-0.017 z"
         style="fill:url(#linearGradient4281-0);fill-opacity:1;stroke:none" />
    </g>
    <path
       style="fill:#b6ad4a;fill-opacity:1;fill-rule:evenodd;stroke:none;stroke-width:1px;stroke-linecap:butt;stroke-linejoin:miter;stroke-opacity:1"
       d="m 27.536367,1025.9589 c -1.211854,0.032 -0.219182,1.4271 -1.720676,1.7469 -1.601594,0.3408 -1.107861,-1.5925 -2.525869,-0.7726 -1.418006,0.82 0.499393,1.3586 -0.596223,2.5773 -1.095618,1.2189 -1.830036,-0.6351 -2.496016,0.8631 -0.66598,1.4982 1.201069,0.8042 1.029918,2.4353 -0.171153,1.6311 -1.853795,0.5636 -1.513365,2.1678 0.340429,1.6042 1.444312,-0.057 2.262999,1.3638 0.818687,1.4204 -1.168711,1.5473 0.0481,2.6447 1.216805,1.0974 1.134536,-0.8963 2.630353,-0.2293 1.495814,0.667 -0.03792,1.94 1.590483,2.1114 1.628404,0.1714 0.392731,-1.3933 1.994325,-1.7343 1.601592,-0.341 1.10786,1.5925 2.525868,0.7725 1.418007,-0.82 -0.499393,-1.3586 0.596225,-2.5774 1.095616,-1.2188 1.830034,0.6353 2.496014,-0.863 0.66598,-1.4982 -1.201069,-0.8041 -1.029917,-2.4353 0.171152,-1.631 1.853794,-0.5636 1.513365,-2.1678 -0.34043,-1.6042 -1.444312,0.057 -2.262999,-1.3639 -0.818686,-1.4203 1.168711,-1.5472 -0.0481,-2.6445 -1.216806,-1.0974 -1.134538,0.8963 -2.630353,0.2293 -1.495816,-0.6672 0.03792,-1.9401 -1.590484,-2.1115 -0.101772,-0.011 -0.19286,-0.014 -0.273649,-0.013 z m -0.508326,4.0966 a 3.3584259,3.3638988 0 0 1 3.358426,3.3639 3.3584259,3.3638988 0 0 1 -3.358426,3.3638 3.3584259,3.3638988 0 0 1 -3.358425,-3.3638 3.3584259,3.3638988 0 0 1 3.358425,-3.3639 z"
       id="path4155" />
    <path
       style="fill:url(#linearGradient4281);fill-opacity:1;stroke:none"
       d="m 27.536367,1025.959 c -1.211853,0.032 -0.219182,1.427 -1.720676,1.7468 -1.601593,0.3409 -1.10786,-1.5925 -2.525867,-0.7725 -1.418007,0.82 0.499392,1.3585 -0.596225,2.5773 -1.095617,1.2189 -1.830036,-0.6352 -2.496016,0.863 -0.66598,1.4982 1.20107,0.8042 1.029918,2.4354 -0.01719,0.1638 -0.05291,0.2946 -0.09703,0.4094 a 10.282588,4.7966711 0 0 0 2.56816,0.6064 3.3584259,3.3638988 0 0 1 -0.02903,-0.4054 3.3584259,3.3638988 0 0 1 3.358426,-3.3639 3.3584259,3.3638988 0 0 1 3.358425,3.3639 3.3584259,3.3638988 0 0 1 -0.02737,0.4054 10.282588,4.7966711 0 0 0 3.829435,-1.0898 c 0.171808,-0.1447 0.257101,-0.3843 0.153409,-0.873 -0.340428,-1.6041 -1.444312,0.057 -2.262999,-1.3637 -0.818686,-1.4204 1.168711,-1.5473 -0.0481,-2.6447 -1.216806,-1.0974 -1.134537,0.8963 -2.630352,0.2293 -1.495816,-0.6672 0.03792,-1.94 -1.590485,-2.1114 -0.101772,-0.011 -0.192859,-0.014 -0.273648,-0.012 z"
       id="path4225" />
  </g>
</svg>
