<?xml version="1.0" encoding="UTF-8" standalone="no"?>
<svg
   xmlns:osb="http://www.openswatchbook.org/uri/2009/osb"
   xmlns:dc="http://purl.org/dc/elements/1.1/"
   xmlns:cc="http://creativecommons.org/ns#"
   xmlns:rdf="http://www.w3.org/1999/02/22-rdf-syntax-ns#"
   xmlns:svg="http://www.w3.org/2000/svg"
   xmlns="http://www.w3.org/2000/svg"
   width="640"
   height="96"
   viewBox="0 0 640.00001 96.000002"
   id="svg2"
   version="1.1">
  <defs
     id="defs4">
    <linearGradient
       id="linearGradient5103"
       osb:paint="solid">
      <stop
         style="stop-color:#000000;stop-opacity:1;"
         offset="0"
         id="stop5105" />
    </linearGradient>
  </defs>
  <metadata
     id="metadata7">
    <rdf:RDF>
      <cc:Work
         rdf:about="">
        <dc:format>image/svg+xml</dc:format>
        <dc:type
           rdf:resource="http://purl.org/dc/dcmitype/StillImage" />
        <dc:title></dc:title>
      </cc:Work>
    </rdf:RDF>
  </metadata>
  <path
     id="rect6082"
     d="M 498.11914 -3.6035156 L 498.11914 -0.09375 L 498.11914 62.748047 L 514.11914 62.748047 L 514.11914 78.748047 L 530.11914 78.748047 L 530.11914 94.748047 L 596.47266 94.748047 L 596.47266 28.396484 L 580.47266 28.396484 L 580.47266 12.396484 L 564.47266 12.396484 L 564.47266 -3.6035156 L 498.11914 -3.6035156 z M 505.13867 3.4160156 L 557.45312 3.4160156 L 557.45312 12.396484 L 514.11914 12.396484 L 514.11914 15.90625 L 514.11914 55.728516 L 505.13867 55.728516 L 505.13867 3.4160156 z M 521.13867 19.416016 L 557.45312 19.416016 L 557.45312 28.396484 L 530.11914 28.396484 L 530.11914 31.90625 L 530.11914 55.728516 L 521.13867 55.728516 L 521.13867 19.416016 z M 564.47266 19.416016 L 573.45312 19.416016 L 573.45312 28.396484 L 564.47266 28.396484 L 564.47266 19.416016 z M 537.13867 35.416016 L 557.45312 35.416016 L 557.45312 55.728516 L 537.13867 55.728516 L 537.13867 35.416016 z M 564.47266 35.416016 L 573.45312 35.416016 L 573.45312 71.728516 L 537.13867 71.728516 L 537.13867 62.748047 L 564.47266 62.748047 L 564.47266 35.416016 z M 580.47266 35.416016 L 589.45312 35.416016 L 589.45312 87.728516 L 537.13867 87.728516 L 537.13867 78.748047 L 580.47266 78.748047 L 580.47266 35.416016 z M 521.13867 62.748047 L 530.11914 62.748047 L 530.11914 71.728516 L 521.13867 71.728516 L 521.13867 62.748047 z "
     style="color:#000000;font-style:normal;font-variant:normal;font-weight:normal;font-stretch:normal;font-size:medium;line-height:normal;font-family:sans-serif;text-indent:0;text-align:start;text-decoration:none;text-decoration-line:none;text-decoration-style:solid;text-decoration-color:#000000;letter-spacing:normal;word-spacing:normal;text-transform:none;direction:ltr;block-progression:tb;writing-mode:lr-tb;baseline-shift:baseline;text-anchor:start;white-space:normal;clip-rule:nonzero;display:inline;overflow:visible;visibility:visible;opacity:1;isolation:auto;mix-blend-mode:normal;color-interpolation:sRGB;color-interpolation-filters:linearRGB;solid-color:#000000;solid-opacity:1;fill:#ffffff;fill-opacity:0.50196078;fill-rule:nonzero;stroke:none;stroke-width:7.01929474;stroke-linecap:round;stroke-linejoin:miter;stroke-miterlimit:4;stroke-dasharray:none;stroke-dashoffset:0;stroke-opacity:1;color-rendering:auto;image-rendering:auto;shape-rendering:auto;text-rendering:auto;enable-background:accumulate" />
</svg>
