<?xml version="1.0" encoding="UTF-8" standalone="no"?>
<svg
   xmlns:osb="http://www.openswatchbook.org/uri/2009/osb"
   xmlns:dc="http://purl.org/dc/elements/1.1/"
   xmlns:cc="http://creativecommons.org/ns#"
   xmlns:rdf="http://www.w3.org/1999/02/22-rdf-syntax-ns#"
   xmlns:svg="http://www.w3.org/2000/svg"
   xmlns="http://www.w3.org/2000/svg"
   xmlns:xlink="http://www.w3.org/1999/xlink"
   viewBox="0,0,48,48"
   id="svg2"
   version="1.1"
   width="100%"
   height="100%">
  <defs
     id="defs4">
    <linearGradient
       id="linearGradient5103"
       osb:paint="solid">
      <stop
         style="stop-color:#000000;stop-opacity:1;"
         offset="0"
         id="stop5105" />
    </linearGradient>
    <linearGradient
       gradientUnits="userSpaceOnUse"
       y2="-0.26209447"
       x2="26.0625"
       y1="48.175404"
       x1="26.0625"
       id="linearGradient4201"
       xlink:href="#linearGradient4730" />
    <linearGradient
       gradientTransform="matrix(2.9349053,0,0,0.86945131,-20.536781,-4.9928599)"
       gradientUnits="userSpaceOnUse"
       y2="3.7048709"
       x2="34.343147"
       y1="44.186733"
       x1="34.343147"
       id="linearGradient4814-9"
       xlink:href="#linearGradient4730" />
    <linearGradient
       id="linearGradient4730">
      <stop
         id="stop4732"
         offset="0"
         style="stop-color:#4e4e4e;stop-opacity:1" />
      <stop
         style="stop-color:#181818;stop-opacity:1;"
         offset="0.49000001"
         id="stop4740" />
      <stop
         style="stop-color:#4a4a4a;stop-opacity:1;"
         offset="0.5"
         id="stop4738" />
      <stop
         id="stop4734"
         offset="1"
         style="stop-color:#707070;stop-opacity:1" />
    </linearGradient>
    <linearGradient
       xlink:href="#linearGradient4730"
       id="linearGradient6365"
       x1="-15.875"
       y1="45.691128"
       x2="11.875"
       y2="17.941128"
       gradientUnits="userSpaceOnUse"
       gradientTransform="matrix(0.90625,0,0,0.90625,-1.4054187e-7,3.1819814)" />
    <linearGradient
       xlink:href="#linearGradient4730"
       id="linearGradient6365-6"
       x1="-15.875"
       y1="45.691128"
       x2="11.875"
       y2="17.941128"
       gradientUnits="userSpaceOnUse"
       gradientTransform="matrix(0.90625,0,0,0.90625,-1.4054187e-7,3.1819814)" />
  </defs>
  <metadata
     id="metadata7">
    <rdf:RDF>
      <cc:Work
         rdf:about="">
        <dc:format>image/svg+xml</dc:format>
        <dc:type
           rdf:resource="http://purl.org/dc/dcmitype/StillImage" />
        <dc:title></dc:title>
      </cc:Work>
    </rdf:RDF>
  </metadata>
  <path
     id="path4141"
     d="M 22.228516 2.0078125 L 22.228516 6.1894531 A 19.25 19.25 0 0 0 15.511719 8.1035156 L 22.027344 14.619141 A 10.916159 10.916159 0 0 1 22.228516 14.578125 L 22.228516 14.820312 L 24.849609 17.441406 L 34.355469 10.660156 L 34.355469 10.658203 L 22.228516 2.0078125 z M 7.7148438 15.123047 A 19.25 19.25 0 0 0 4.75 25.34375 A 19.25 19.25 0 0 0 24 44.59375 A 19.25 19.25 0 0 0 34.220703 41.628906 L 28.0625 35.470703 A 10.916159 10.916159 0 0 1 24 36.259766 A 10.916159 10.916159 0 0 1 13.083984 25.34375 A 10.916159 10.916159 0 0 1 13.876953 21.285156 L 7.7148438 15.123047 z M 40.550781 15.556641 L 33.517578 20.021484 A 10.916159 10.916159 0 0 1 34.916016 25.34375 A 10.916159 10.916159 0 0 1 34.728516 27.320312 L 41.257812 33.849609 A 19.25 19.25 0 0 0 43.25 25.34375 A 19.25 19.25 0 0 0 40.550781 15.556641 z "
     style="opacity:1;fill:url(#linearGradient4201);fill-opacity:1;stroke:none;stroke-width:3;stroke-linecap:round;stroke-linejoin:miter;stroke-miterlimit:4;stroke-dasharray:none;stroke-opacity:1" />
  <rect
     style="opacity:1;fill:url(#linearGradient6365);fill-opacity:1;stroke:none;stroke-width:1.89999998;stroke-linecap:round;stroke-linejoin:round;stroke-miterlimit:4;stroke-dasharray:none;stroke-opacity:1"
     id="rect6218"
     width="7.4765625"
     height="52.996155"
     x="-3.7382812"
     y="7.4430485"
     transform="matrix(0.70710678,-0.70710678,0.70710678,0.70710678,0,0)" />
</svg>
