<?xml version="1.0" encoding="UTF-8" standalone="no"?>
<svg
   xmlns:dc="http://purl.org/dc/elements/1.1/"
   xmlns:cc="http://creativecommons.org/ns#"
   xmlns:rdf="http://www.w3.org/1999/02/22-rdf-syntax-ns#"
   xmlns:svg="http://www.w3.org/2000/svg"
   xmlns="http://www.w3.org/2000/svg"
   xmlns:xlink="http://www.w3.org/1999/xlink"
   xmlns:sodipodi="http://sodipodi.sourceforge.net/DTD/sodipodi-0.dtd"
   xmlns:inkscape="http://www.inkscape.org/namespaces/inkscape"
   height="100%"
   width="100%"
   version="1.1"
   id="svg2"
   viewBox="0,0,48,48"
   inkscape:version="0.91 r13725"
   sodipodi:docname="arrow-right-up.svg">
  <sodipodi:namedview
     pagecolor="#ffffff"
     bordercolor="#666666"
     borderopacity="1"
     objecttolerance="10"
     gridtolerance="10"
     guidetolerance="10"
     inkscape:pageopacity="0"
     inkscape:pageshadow="2"
     inkscape:window-width="1280"
     inkscape:window-height="790"
     id="namedview26"
     showgrid="false"
     inkscape:zoom="4.9166667"
     inkscape:cx="21.986265"
     inkscape:cy="24"
     inkscape:window-x="-8"
     inkscape:window-y="-8"
     inkscape:window-maximized="1"
     inkscape:current-layer="svg2" />
  <defs
     id="defs4">
    <linearGradient
       id="linearGradient13351">
      <stop
         id="stop13353"
         offset="0"
         style="stop-color:#0ad849;stop-opacity:1" />
      <stop
         id="stop13355"
         offset="1"
         style="stop-color:#109238;stop-opacity:1" />
    </linearGradient>
    <linearGradient
       id="linearGradient5736">
      <stop
         id="stop5738"
         offset="0"
         style="stop-color:#c3c3c3;stop-opacity:1" />
      <stop
         id="stop5740"
         offset="1"
         style="stop-color:#ffffff;stop-opacity:1;" />
    </linearGradient>
    <linearGradient
       gradientUnits="userSpaceOnUse"
       y2="8.078125"
       x2="9.9570312"
       y1="41.769531"
       x1="37.976562"
       id="linearGradient5742"
       xlink:href="#linearGradient5736" />
    <linearGradient
       gradientUnits="userSpaceOnUse"
       y2="1019.0466"
       x2="29.488289"
       y1="1012.6989"
       x1="36.402351"
       id="linearGradient5796-6"
       xlink:href="#linearGradient5736-8" />
    <linearGradient
       id="linearGradient5736-8">
      <stop
         id="stop5738-9"
         offset="0"
         style="stop-color:#c3c3c3;stop-opacity:1" />
      <stop
         id="stop5740-8"
         offset="1"
         style="stop-color:#ffffff;stop-opacity:1;" />
    </linearGradient>
    <linearGradient
       gradientUnits="userSpaceOnUse"
       y2="8.078125"
       x2="9.9570312"
       y1="41.769531"
       x1="37.976562"
       id="linearGradient5742-5"
       xlink:href="#linearGradient5736-5" />
    <linearGradient
       id="linearGradient5736-5">
      <stop
         id="stop5738-8"
         offset="0"
         style="stop-color:#c3c3c3;stop-opacity:1" />
      <stop
         id="stop5740-4"
         offset="1"
         style="stop-color:#ffffff;stop-opacity:1;" />
    </linearGradient>
    <linearGradient
       gradientTransform="matrix(1.1285547,0,0,1.1285547,-3.0814411,-1136.5637)"
       gradientUnits="userSpaceOnUse"
       y2="1009.7959"
       x2="23.951172"
       y1="1037.4442"
       x1="23.951172"
       id="linearGradient13357"
       xlink:href="#linearGradient13351" />
    <filter
       height="1.1469348"
       y="-0.07346742"
       width="1.1411801"
       x="-0.070590052"
       id="filter13425"
       style="color-interpolation-filters:sRGB">
      <feGaussianBlur
         id="feGaussianBlur13427"
         stdDeviation="1.0948402" />
    </filter>
  </defs>
  <metadata
     id="metadata7">
    <rdf:RDF>
      <cc:Work
         rdf:about="">
        <dc:format>image/svg+xml</dc:format>
        <dc:type
           rdf:resource="http://purl.org/dc/dcmitype/StillImage" />
        <dc:title />
      </cc:Work>
    </rdf:RDF>
  </metadata>
  <path
     inkscape:connector-curvature="0"
     style="color:#000000;font-style:normal;font-variant:normal;font-weight:normal;font-stretch:normal;font-size:medium;line-height:normal;font-family:sans-serif;text-indent:0;text-align:start;text-decoration:none;text-decoration-line:none;text-decoration-style:solid;text-decoration-color:#000000;letter-spacing:normal;word-spacing:normal;text-transform:none;direction:ltr;block-progression:tb;writing-mode:lr-tb;baseline-shift:baseline;text-anchor:start;white-space:normal;clip-rule:nonzero;display:inline;overflow:visible;visibility:visible;opacity:1;isolation:auto;mix-blend-mode:normal;color-interpolation:sRGB;color-interpolation-filters:linearRGB;solid-color:#000000;solid-opacity:1;fill:#000000;fill-opacity:1;fill-rule:evenodd;stroke:none;stroke-width:6.10911703;stroke-linecap:round;stroke-linejoin:round;stroke-miterlimit:4;stroke-dasharray:none;stroke-dashoffset:0;stroke-opacity:1;filter:url(#filter13425);color-rendering:auto;image-rendering:auto;shape-rendering:auto;text-rendering:auto;enable-background:accumulate"
     d="m 27.246094,1010.4805 a 3.054864,3.054864 0 0 0 -1.988282,0.7851 l -0.914062,0.8242 a 3.054864,3.054864 0 0 0 -0.3125,4.2129 l 6.851562,8.3086 -22.4433589,0 a 3.054864,3.054864 0 0 0 -3.0546875,3.0528 l 0,0.1308 0,1.1348 0,0.1289 a 3.054864,3.054864 0 0 0 3.0546875,3.0547 l 22.4414059,0 -6.849609,8.3086 a 3.054864,3.054864 0 0 0 0.3125,4.2129 l 0.914062,0.8242 a 3.054864,3.054864 0 0 0 4.589844,-0.5762 c 0.486799,-0.7314 3.841615,-4.6377 6.730469,-7.9394 1.444427,-1.6509 2.82077,-3.2355 3.851563,-4.4942 0.515396,-0.6293 0.938493,-1.1636 1.289062,-1.6699 0.175284,-0.2532 0.330773,-0.478 0.515625,-0.8594 0.09243,-0.1907 0.205336,-0.4066 0.298828,-0.8691 0.09197,-0.455 0.254681,-1.4695 -0.619141,-2.5742 -2.839281,-4.4118 -8.761606,-10.6511 -12.253906,-14.8868 a 3.054864,3.054864 0 0 0 -2.414062,-1.1093 z"
     id="path13328-2"
     transform="matrix(0.79800868,-0.79800868,0.79800868,0.79800868,-815.79192,-777.493)" />
  <path
     inkscape:connector-curvature="0"
     style="color:#000000;font-style:normal;font-variant:normal;font-weight:normal;font-stretch:normal;font-size:medium;line-height:normal;font-family:sans-serif;text-indent:0;text-align:start;text-decoration:none;text-decoration-line:none;text-decoration-style:solid;text-decoration-color:#000000;letter-spacing:normal;word-spacing:normal;text-transform:none;direction:ltr;block-progression:tb;writing-mode:lr-tb;baseline-shift:baseline;text-anchor:start;white-space:normal;clip-rule:nonzero;display:inline;overflow:visible;visibility:visible;opacity:1;isolation:auto;mix-blend-mode:normal;color-interpolation:sRGB;color-interpolation-filters:linearRGB;solid-color:#000000;solid-opacity:1;fill:url(#linearGradient13357);fill-opacity:1;fill-rule:evenodd;stroke:none;stroke-width:6.10911703;stroke-linecap:round;stroke-linejoin:round;stroke-miterlimit:4;stroke-dasharray:none;stroke-dashoffset:0;stroke-opacity:1;color-rendering:auto;image-rendering:auto;shape-rendering:auto;text-rendering:auto;enable-background:accumulate"
     d="m 12.322896,7.1365846 a 3.4475811,3.4475811 0 0 0 -0.960099,2.2132336 l -0.07175,1.3871098 a 3.4475811,3.4475811 0 0 0 3.112562,3.611316 L 26.501544,15.510966 8.5915491,33.420961 a 3.4475811,3.4475811 0 0 0 -0.00147,4.873862 l 0.104369,0.104369 0.9055916,0.905592 0.1028133,0.102813 a 3.4475811,3.4475811 0 0 0 4.8753471,1.3e-5 L 32.486634,21.499174 33.650986,33.59562 a 3.4475811,3.4475811 0 0 0 3.611246,3.112491 l 1.38718,-0.07168 a 3.4475811,3.4475811 0 0 0 3.202903,-4.122567 C 41.65714,31.541749 41.217032,25.747297 40.887612,20.807216 40.722796,18.337069 40.55661,15.974217 40.374747,14.14719 40.28385,13.233712 40.1951,12.469691 40.070887,11.785964 40.008674,11.443995 39.953363,11.14052 39.796537,10.688668 39.718127,10.462739 39.635906,10.200317 39.341403,9.7565998 39.051767,9.3201784 38.371975,8.3806966 36.793107,8.1964641 31.006723,6.9416204 21.301634,6.6886657 15.134636,6.0954399 a 3.4475811,3.4475811 0 0 0 -2.81174,1.0411447 z"
     id="path13328" />
</svg>
