<?xml version="1.0" encoding="UTF-8" standalone="no"?>
<svg
   xmlns:dc="http://purl.org/dc/elements/1.1/"
   xmlns:cc="http://creativecommons.org/ns#"
   xmlns:rdf="http://www.w3.org/1999/02/22-rdf-syntax-ns#"
   xmlns:svg="http://www.w3.org/2000/svg"
   xmlns="http://www.w3.org/2000/svg"
   xmlns:xlink="http://www.w3.org/1999/xlink"
   viewBox="0,0,48,48"
   id="svg2"
   version="1.1"
   width="100%"
   height="100%">
  <defs
     id="defs4">
    <linearGradient
       id="linearGradient13351">
      <stop
         style="stop-color:#0ad849;stop-opacity:1"
         offset="0"
         id="stop13353" />
      <stop
         style="stop-color:#109238;stop-opacity:1"
         offset="1"
         id="stop13355" />
    </linearGradient>
    <linearGradient
       id="linearGradient5736">
      <stop
         style="stop-color:#c3c3c3;stop-opacity:1"
         offset="0"
         id="stop5738" />
      <stop
         style="stop-color:#ffffff;stop-opacity:1;"
         offset="1"
         id="stop5740" />
    </linearGradient>
    <linearGradient
       xlink:href="#linearGradient5736"
       id="linearGradient5742"
       x1="37.976562"
       y1="41.769531"
       x2="9.9570312"
       y2="8.078125"
       gradientUnits="userSpaceOnUse" />
    <linearGradient
       xlink:href="#linearGradient5736-8"
       id="linearGradient5796-6"
       x1="36.402351"
       y1="1012.6989"
       x2="29.488289"
       y2="1019.0466"
       gradientUnits="userSpaceOnUse" />
    <linearGradient
       id="linearGradient5736-8">
      <stop
         style="stop-color:#c3c3c3;stop-opacity:1"
         offset="0"
         id="stop5738-9" />
      <stop
         style="stop-color:#ffffff;stop-opacity:1;"
         offset="1"
         id="stop5740-8" />
    </linearGradient>
    <linearGradient
       xlink:href="#linearGradient5736-5"
       id="linearGradient5742-5"
       x1="37.976562"
       y1="41.769531"
       x2="9.9570312"
       y2="8.078125"
       gradientUnits="userSpaceOnUse" />
    <linearGradient
       id="linearGradient5736-5">
      <stop
         style="stop-color:#c3c3c3;stop-opacity:1"
         offset="0"
         id="stop5738-8" />
      <stop
         style="stop-color:#ffffff;stop-opacity:1;"
         offset="1"
         id="stop5740-4" />
    </linearGradient>
    <linearGradient
       xlink:href="#linearGradient13351"
       id="linearGradient13357"
       x1="18.184084"
       y1="1032.244"
       x2="43.358433"
       y2="1032.244"
       gradientUnits="userSpaceOnUse"
       gradientTransform="matrix(0,-1.1285547,1.1285547,0,-1136.5637,1055.4436)" />
    <filter
       style="color-interpolation-filters:sRGB"
       id="filter13425"
       x="-0.070590052"
       width="1.1411801"
       y="-0.07346742"
       height="1.1469348">
      <feGaussianBlur
         stdDeviation="1.0948402"
         id="feGaussianBlur13427" />
    </filter>
  </defs>
  <metadata
     id="metadata7">
    <rdf:RDF>
      <cc:Work
         rdf:about="">
        <dc:format>image/svg+xml</dc:format>
        <dc:type
           rdf:resource="http://purl.org/dc/dcmitype/StillImage" />
        <dc:title></dc:title>
      </cc:Work>
    </rdf:RDF>
  </metadata>
  <g
     id="layer1"
     transform="translate(0,-1004.3622)">
    <path
       style="color:#000000;font-style:normal;font-variant:normal;font-weight:normal;font-stretch:normal;font-size:medium;line-height:normal;font-family:sans-serif;text-indent:0;text-align:start;text-decoration:none;text-decoration-line:none;text-decoration-style:solid;text-decoration-color:#000000;letter-spacing:normal;word-spacing:normal;text-transform:none;direction:ltr;block-progression:tb;writing-mode:lr-tb;baseline-shift:baseline;text-anchor:start;white-space:normal;clip-rule:nonzero;display:inline;overflow:visible;visibility:visible;opacity:1;isolation:auto;mix-blend-mode:normal;color-interpolation:sRGB;color-interpolation-filters:linearRGB;solid-color:#000000;solid-opacity:1;fill:#000000;fill-opacity:1;fill-rule:evenodd;stroke:none;stroke-width:6.10911703;stroke-linecap:round;stroke-linejoin:round;stroke-miterlimit:4;stroke-dasharray:none;stroke-dashoffset:0;stroke-opacity:1;filter:url(#filter13425);color-rendering:auto;image-rendering:auto;shape-rendering:auto;text-rendering:auto;enable-background:accumulate"
       d="m 27.246094,1010.4805 a 3.054864,3.054864 0 0 0 -1.988282,0.7851 l -0.914062,0.8242 a 3.054864,3.054864 0 0 0 -0.3125,4.2129 l 6.851562,8.3086 -22.4433589,0 a 3.054864,3.054864 0 0 0 -3.0546875,3.0528 l 0,0.1308 0,1.1348 0,0.1289 a 3.054864,3.054864 0 0 0 3.0546875,3.0547 l 22.4414059,0 -6.849609,8.3086 a 3.054864,3.054864 0 0 0 0.3125,4.2129 l 0.914062,0.8242 a 3.054864,3.054864 0 0 0 4.589844,-0.5762 c 0.486799,-0.7314 3.841615,-4.6377 6.730469,-7.9394 1.444427,-1.6509 2.82077,-3.2355 3.851563,-4.4942 0.515396,-0.6293 0.938493,-1.1636 1.289062,-1.6699 0.175284,-0.2532 0.330773,-0.478 0.515625,-0.8594 0.09243,-0.1907 0.205336,-0.4066 0.298828,-0.8691 0.09197,-0.455 0.254681,-1.4695 -0.619141,-2.5742 -2.839281,-4.4118 -8.761606,-10.6511 -12.253906,-14.8868 a 3.054864,3.054864 0 0 0 -2.414062,-1.1093 z"
       id="path13328-2"
       transform="matrix(0,-1.1285547,1.1285547,0,-1136.5637,1055.4436)" />
    <path
       style="color:#000000;font-style:normal;font-variant:normal;font-weight:normal;font-stretch:normal;font-size:medium;line-height:normal;font-family:sans-serif;text-indent:0;text-align:start;text-decoration:none;text-decoration-line:none;text-decoration-style:solid;text-decoration-color:#000000;letter-spacing:normal;word-spacing:normal;text-transform:none;direction:ltr;block-progression:tb;writing-mode:lr-tb;baseline-shift:baseline;text-anchor:start;white-space:normal;clip-rule:nonzero;display:inline;overflow:visible;visibility:visible;opacity:1;isolation:auto;mix-blend-mode:normal;color-interpolation:sRGB;color-interpolation-filters:linearRGB;solid-color:#000000;solid-opacity:1;fill:url(#linearGradient13357);fill-opacity:1;fill-rule:evenodd;stroke:none;stroke-width:6.10911703;stroke-linecap:round;stroke-linejoin:round;stroke-miterlimit:4;stroke-dasharray:none;stroke-dashoffset:0;stroke-opacity:1;color-rendering:auto;image-rendering:auto;shape-rendering:auto;text-rendering:auto;enable-background:accumulate"
       d="m 3.8187987,1024.6949 a 3.4475811,3.4475811 0 0 0 0.8861,2.2439 l 0.9301,1.0316 a 3.4475811,3.4475811 0 0 0 4.7545003,0.3527 l 9.3767,-7.7324 0,25.3286 a 3.4475811,3.4475811 0 0 0 3.4453,3.4473 l 0.1476,0 1.2807,0 0.1454,0 a 3.4475811,3.4475811 0 0 0 3.4474,-3.4473 l 0,-25.3264 9.3768,7.7302 a 3.4475811,3.4475811 0 0 0 4.7544,-0.3527 l 0.9302,-1.0316 a 3.4475811,3.4475811 0 0 0 -0.6503,-5.1799 c -0.8254,-0.5493 -5.2339,-4.3354 -8.96,-7.5957 -1.8632,-1.6301 -3.6515,-3.1834 -5.072,-4.3467 -0.7102,-0.5816 -1.3132,-1.0591 -1.8845,-1.4547 -0.2858,-0.1979 -0.5395,-0.3733 -0.9699,-0.582 -0.2152,-0.1043 -0.4589,-0.2317 -0.9809,-0.3372 -0.5134,-0.1038 -1.6584,-0.2874 -2.9051,0.6987 -4.9789,3.2043 -12.0203003,9.888 -16.8005003,13.8292 a 3.4475811,3.4475811 0 0 0 -1.252,2.7244 z"
       id="path13328" />
  </g>
</svg>
