<?xml version="1.0" encoding="UTF-8" standalone="no"?>
<svg
   xmlns:dc="http://purl.org/dc/elements/1.1/"
   xmlns:cc="http://creativecommons.org/ns#"
   xmlns:rdf="http://www.w3.org/1999/02/22-rdf-syntax-ns#"
   xmlns:svg="http://www.w3.org/2000/svg"
   xmlns="http://www.w3.org/2000/svg"
   xmlns:xlink="http://www.w3.org/1999/xlink"
   height="100%"
   width="100%"
   version="1.1"
   id="svg2"
   viewBox="0,0,48,48">
  <defs
     id="defs4">
    <linearGradient
       id="linearGradient13351">
      <stop
         id="stop13353"
         offset="0"
         style="stop-color:#0ad849;stop-opacity:1" />
      <stop
         id="stop13355"
         offset="1"
         style="stop-color:#109238;stop-opacity:1" />
    </linearGradient>
    <linearGradient
       id="linearGradient5736">
      <stop
         id="stop5738"
         offset="0"
         style="stop-color:#c3c3c3;stop-opacity:1" />
      <stop
         id="stop5740"
         offset="1"
         style="stop-color:#ffffff;stop-opacity:1;" />
    </linearGradient>
    <linearGradient
       gradientUnits="userSpaceOnUse"
       y2="8.078125"
       x2="9.9570312"
       y1="41.769531"
       x1="37.976562"
       id="linearGradient5742"
       xlink:href="#linearGradient5736" />
    <linearGradient
       gradientUnits="userSpaceOnUse"
       y2="1019.0466"
       x2="29.488289"
       y1="1012.6989"
       x1="36.402351"
       id="linearGradient5796-6"
       xlink:href="#linearGradient5736-8" />
    <linearGradient
       id="linearGradient5736-8">
      <stop
         id="stop5738-9"
         offset="0"
         style="stop-color:#c3c3c3;stop-opacity:1" />
      <stop
         id="stop5740-8"
         offset="1"
         style="stop-color:#ffffff;stop-opacity:1;" />
    </linearGradient>
    <linearGradient
       gradientUnits="userSpaceOnUse"
       y2="8.078125"
       x2="9.9570312"
       y1="41.769531"
       x1="37.976562"
       id="linearGradient5742-5"
       xlink:href="#linearGradient5736-5" />
    <linearGradient
       id="linearGradient5736-5">
      <stop
         id="stop5738-8"
         offset="0"
         style="stop-color:#c3c3c3;stop-opacity:1" />
      <stop
         id="stop5740-4"
         offset="1"
         style="stop-color:#ffffff;stop-opacity:1;" />
    </linearGradient>
    <linearGradient
       gradientTransform="matrix(-1.1285547,0,0,1.1285547,51.081443,-132.2015)"
       gradientUnits="userSpaceOnUse"
       y2="1009.7959"
       x2="23.951172"
       y1="1037.4442"
       x1="23.951172"
       id="linearGradient13357"
       xlink:href="#linearGradient13351" />
    <filter
       height="1.1469348"
       y="-0.07346742"
       width="1.1411801"
       x="-0.070590052"
       id="filter13425"
       style="color-interpolation-filters:sRGB">
      <feGaussianBlur
         id="feGaussianBlur13427"
         stdDeviation="1.0948402" />
    </filter>
  </defs>
  <metadata
     id="metadata7">
    <rdf:RDF>
      <cc:Work
         rdf:about="">
        <dc:format>image/svg+xml</dc:format>
        <dc:type
           rdf:resource="http://purl.org/dc/dcmitype/StillImage" />
        <dc:title></dc:title>
      </cc:Work>
    </rdf:RDF>
  </metadata>
  <g
     transform="translate(0,-1004.3622)"
     id="layer1">
    <path
       transform="matrix(-1.1285547,0,0,1.1285547,51.081443,-132.20148)"
       id="path13328-2"
       d="m 27.246094,1010.4805 a 3.054864,3.054864 0 0 0 -1.988282,0.7851 l -0.914062,0.8242 a 3.054864,3.054864 0 0 0 -0.3125,4.2129 l 6.851562,8.3086 -22.4433589,0 a 3.054864,3.054864 0 0 0 -3.0546875,3.0528 l 0,0.1308 0,1.1348 0,0.1289 a 3.054864,3.054864 0 0 0 3.0546875,3.0547 l 22.4414059,0 -6.849609,8.3086 a 3.054864,3.054864 0 0 0 0.3125,4.2129 l 0.914062,0.8242 a 3.054864,3.054864 0 0 0 4.589844,-0.5762 c 0.486799,-0.7314 3.841615,-4.6377 6.730469,-7.9394 1.444427,-1.6509 2.82077,-3.2355 3.851563,-4.4942 0.515396,-0.6293 0.938493,-1.1636 1.289062,-1.6699 0.175284,-0.2532 0.330773,-0.478 0.515625,-0.8594 0.09243,-0.1907 0.205336,-0.4066 0.298828,-0.8691 0.09197,-0.455 0.254681,-1.4695 -0.619141,-2.5742 -2.839281,-4.4118 -8.761606,-10.6511 -12.253906,-14.8868 a 3.054864,3.054864 0 0 0 -2.414062,-1.1093 z"
       style="color:#000000;font-style:normal;font-variant:normal;font-weight:normal;font-stretch:normal;font-size:medium;line-height:normal;font-family:sans-serif;text-indent:0;text-align:start;text-decoration:none;text-decoration-line:none;text-decoration-style:solid;text-decoration-color:#000000;letter-spacing:normal;word-spacing:normal;text-transform:none;direction:ltr;block-progression:tb;writing-mode:lr-tb;baseline-shift:baseline;text-anchor:start;white-space:normal;clip-rule:nonzero;display:inline;overflow:visible;visibility:visible;opacity:1;isolation:auto;mix-blend-mode:normal;color-interpolation:sRGB;color-interpolation-filters:linearRGB;solid-color:#000000;solid-opacity:1;fill:#000000;fill-opacity:1;fill-rule:evenodd;stroke:none;stroke-width:6.10911703;stroke-linecap:round;stroke-linejoin:round;stroke-miterlimit:4;stroke-dasharray:none;stroke-dashoffset:0;stroke-opacity:1;filter:url(#filter13425);color-rendering:auto;image-rendering:auto;shape-rendering:auto;text-rendering:auto;enable-background:accumulate" />
    <path
       id="path13328"
       d="m 20.332737,1008.181 a 3.4475811,3.4475811 0 0 1 2.243885,0.8861 l 1.031569,0.9301 a 3.4475811,3.4475811 0 0 1 0.352673,4.7545 l -7.732363,9.3767 25.328558,0 a 3.4475811,3.4475811 0 0 1 3.447382,3.4453 l 0,0.1476 0,1.2807 0,0.1454 a 3.4475811,3.4475811 0 0 1 -3.447382,3.4474 l -25.326353,0 7.730158,9.3768 a 3.4475811,3.4475811 0 0 1 -0.352673,4.7544 l -1.031569,0.9302 a 3.4475811,3.4475811 0 0 1 -5.17989,-0.6503 c -0.54938,-0.8254 -4.335473,-5.2339 -7.595703,-8.96 -1.630115,-1.8632 -3.183393,-3.6515 -4.346699,-5.072 -0.581653,-0.7102 -1.059141,-1.3132 -1.454777,-1.8845 -0.197818,-0.2858 -0.373296,-0.5395 -0.581911,-0.9699 -0.104312,-0.2152 -0.231733,-0.4589 -0.337244,-0.9809 -0.103793,-0.5134 -0.287421,-1.6584 0.698735,-2.9051 3.204283,-4.9789 9.887951,-12.0203 13.829203,-16.8005 a 3.4475811,3.4475811 0 0 1 2.724401,-1.252 z"
       style="color:#000000;font-style:normal;font-variant:normal;font-weight:normal;font-stretch:normal;font-size:medium;line-height:normal;font-family:sans-serif;text-indent:0;text-align:start;text-decoration:none;text-decoration-line:none;text-decoration-style:solid;text-decoration-color:#000000;letter-spacing:normal;word-spacing:normal;text-transform:none;direction:ltr;block-progression:tb;writing-mode:lr-tb;baseline-shift:baseline;text-anchor:start;white-space:normal;clip-rule:nonzero;display:inline;overflow:visible;visibility:visible;opacity:1;isolation:auto;mix-blend-mode:normal;color-interpolation:sRGB;color-interpolation-filters:linearRGB;solid-color:#000000;solid-opacity:1;fill:url(#linearGradient13357);fill-opacity:1;fill-rule:evenodd;stroke:none;stroke-width:6.10911703;stroke-linecap:round;stroke-linejoin:round;stroke-miterlimit:4;stroke-dasharray:none;stroke-dashoffset:0;stroke-opacity:1;color-rendering:auto;image-rendering:auto;shape-rendering:auto;text-rendering:auto;enable-background:accumulate" />
  </g>
</svg>
