<?xml version="1.0" encoding="UTF-8" standalone="no"?>
<svg
   xmlns:dc="http://purl.org/dc/elements/1.1/"
   xmlns:cc="http://creativecommons.org/ns#"
   xmlns:rdf="http://www.w3.org/1999/02/22-rdf-syntax-ns#"
   xmlns:svg="http://www.w3.org/2000/svg"
   xmlns="http://www.w3.org/2000/svg"
   xmlns:xlink="http://www.w3.org/1999/xlink"
   viewBox="0,0,48,48"
   id="svg2"
   version="1.1"
   width="100%"
   height="100%">
  <defs
     id="defs4">
    <linearGradient
       id="linearGradient13351">
      <stop
         style="stop-color:#0ad849;stop-opacity:1"
         offset="0"
         id="stop13353" />
      <stop
         style="stop-color:#109238;stop-opacity:1"
         offset="1"
         id="stop13355" />
    </linearGradient>
    <linearGradient
       id="linearGradient5736">
      <stop
         style="stop-color:#c3c3c3;stop-opacity:1"
         offset="0"
         id="stop5738" />
      <stop
         style="stop-color:#ffffff;stop-opacity:1;"
         offset="1"
         id="stop5740" />
    </linearGradient>
    <linearGradient
       xlink:href="#linearGradient5736"
       id="linearGradient5742"
       x1="37.976562"
       y1="41.769531"
       x2="9.9570312"
       y2="8.078125"
       gradientUnits="userSpaceOnUse" />
    <linearGradient
       xlink:href="#linearGradient5736-8"
       id="linearGradient5796-6"
       x1="36.402351"
       y1="1012.6989"
       x2="29.488289"
       y2="1019.0466"
       gradientUnits="userSpaceOnUse" />
    <linearGradient
       id="linearGradient5736-8">
      <stop
         style="stop-color:#c3c3c3;stop-opacity:1"
         offset="0"
         id="stop5738-9" />
      <stop
         style="stop-color:#ffffff;stop-opacity:1;"
         offset="1"
         id="stop5740-8" />
    </linearGradient>
    <linearGradient
       xlink:href="#linearGradient5736-5"
       id="linearGradient5742-5"
       x1="37.976562"
       y1="41.769531"
       x2="9.9570312"
       y2="8.078125"
       gradientUnits="userSpaceOnUse" />
    <linearGradient
       id="linearGradient5736-5">
      <stop
         style="stop-color:#c3c3c3;stop-opacity:1"
         offset="0"
         id="stop5738-8" />
      <stop
         style="stop-color:#ffffff;stop-opacity:1;"
         offset="1"
         id="stop5740-4" />
    </linearGradient>
    <linearGradient
       xlink:href="#linearGradient13351"
       id="linearGradient13357"
       x1="23.951172"
       y1="1037.4442"
       x2="23.951172"
       y2="1009.7959"
       gradientUnits="userSpaceOnUse"
       gradientTransform="matrix(1.1285547,0,0,1.1285547,-3.0814414,-1136.5637)" />
    <filter
       style="color-interpolation-filters:sRGB"
       id="filter13425"
       x="-0.070590052"
       width="1.1411801"
       y="-0.07346742"
       height="1.1469348">
      <feGaussianBlur
         stdDeviation="1.0948402"
         id="feGaussianBlur13427" />
    </filter>
  </defs>
  <metadata
     id="metadata7">
    <rdf:RDF>
      <cc:Work
         rdf:about="">
        <dc:format>image/svg+xml</dc:format>
        <dc:type
           rdf:resource="http://purl.org/dc/dcmitype/StillImage" />
        <dc:title></dc:title>
      </cc:Work>
    </rdf:RDF>
  </metadata>
  <path
     transform="matrix(-0.79800868,-0.79800868,0.79800868,-0.79800868,-777.49298,863.7919)"
     id="path13328-2"
     d="m 27.246094,1010.4805 a 3.054864,3.054864 0 0 0 -1.988282,0.7851 l -0.914062,0.8242 a 3.054864,3.054864 0 0 0 -0.3125,4.2129 l 6.851562,8.3086 -22.4433589,0 a 3.054864,3.054864 0 0 0 -3.0546875,3.0528 l 0,0.1308 0,1.1348 0,0.1289 a 3.054864,3.054864 0 0 0 3.0546875,3.0547 l 22.4414059,0 -6.849609,8.3086 a 3.054864,3.054864 0 0 0 0.3125,4.2129 l 0.914062,0.8242 a 3.054864,3.054864 0 0 0 4.589844,-0.5762 c 0.486799,-0.7314 3.841615,-4.6377 6.730469,-7.9394 1.444427,-1.6509 2.82077,-3.2355 3.851563,-4.4942 0.515396,-0.6293 0.938493,-1.1636 1.289062,-1.6699 0.175284,-0.2532 0.330773,-0.478 0.515625,-0.8594 0.09243,-0.1907 0.205336,-0.4066 0.298828,-0.8691 0.09197,-0.455 0.254681,-1.4695 -0.619141,-2.5742 -2.839281,-4.4118 -8.761606,-10.6511 -12.253906,-14.8868 a 3.054864,3.054864 0 0 0 -2.414062,-1.1093 z"
     style="color:#000000;font-style:normal;font-variant:normal;font-weight:normal;font-stretch:normal;font-size:medium;line-height:normal;font-family:sans-serif;text-indent:0;text-align:start;text-decoration:none;text-decoration-line:none;text-decoration-style:solid;text-decoration-color:#000000;letter-spacing:normal;word-spacing:normal;text-transform:none;direction:ltr;block-progression:tb;writing-mode:lr-tb;baseline-shift:baseline;text-anchor:start;white-space:normal;clip-rule:nonzero;display:inline;overflow:visible;visibility:visible;opacity:1;isolation:auto;mix-blend-mode:normal;color-interpolation:sRGB;color-interpolation-filters:linearRGB;solid-color:#000000;solid-opacity:1;fill:#000000;fill-opacity:1;fill-rule:evenodd;stroke:none;stroke-width:6.10911703;stroke-linecap:round;stroke-linejoin:round;stroke-miterlimit:4;stroke-dasharray:none;stroke-dashoffset:0;stroke-opacity:1;filter:url(#filter13425);color-rendering:auto;image-rendering:auto;shape-rendering:auto;text-rendering:auto;enable-background:accumulate" />
  <path
     id="path13328"
     d="m 7.1366186,35.677096 a 3.4475811,3.4475811 0 0 0 2.213234,0.960099 l 1.3871104,0.07175 a 3.4475811,3.4475811 0 0 0 3.611316,-3.112562 l 1.162722,-12.097935 17.909995,17.909995 a 3.4475811,3.4475811 0 0 0 4.873861,0.0015 l 0.104369,-0.104399 0.905592,-0.905591 0.102813,-0.102814 a 3.4475811,3.4475811 0 0 0 1.3e-5,-4.875347 L 21.499209,15.513358 33.595655,14.349006 a 3.4475811,3.4475811 0 0 0 3.112491,-3.611246 l -0.07168,-1.3871796 a 3.4475811,3.4475811 0 0 0 -4.122567,-3.202903 c -0.972115,0.195175 -6.766567,0.635283 -11.706648,0.964703 -2.470147,0.164816 -4.832999,0.331002 -6.660026,0.512865 -0.913478,0.0909 -1.677499,0.179647 -2.361226,0.30386 -0.341969,0.06221 -0.645444,0.117524 -1.097296,0.27435 -0.225929,0.07841 -0.488351,0.160631 -0.9320694,0.455134 -0.436421,0.289636 -1.375903,0.969428 -1.560135,2.5482956 -1.254844,5.786384 -1.507799,15.491473 -2.101025,21.658471 a 3.4475811,3.4475811 0 0 0 1.041145,2.81174 z"
     style="color:#000000;font-style:normal;font-variant:normal;font-weight:normal;font-stretch:normal;font-size:medium;line-height:normal;font-family:sans-serif;text-indent:0;text-align:start;text-decoration:none;text-decoration-line:none;text-decoration-style:solid;text-decoration-color:#000000;letter-spacing:normal;word-spacing:normal;text-transform:none;direction:ltr;block-progression:tb;writing-mode:lr-tb;baseline-shift:baseline;text-anchor:start;white-space:normal;clip-rule:nonzero;display:inline;overflow:visible;visibility:visible;opacity:1;isolation:auto;mix-blend-mode:normal;color-interpolation:sRGB;color-interpolation-filters:linearRGB;solid-color:#000000;solid-opacity:1;fill:url(#linearGradient13357);fill-opacity:1;fill-rule:evenodd;stroke:none;stroke-width:6.10911703;stroke-linecap:round;stroke-linejoin:round;stroke-miterlimit:4;stroke-dasharray:none;stroke-dashoffset:0;stroke-opacity:1;color-rendering:auto;image-rendering:auto;shape-rendering:auto;text-rendering:auto;enable-background:accumulate" />
</svg>
