<?xml version="1.0" encoding="UTF-8" standalone="no"?>
<svg
   xmlns:dc="http://purl.org/dc/elements/1.1/"
   xmlns:cc="http://creativecommons.org/ns#"
   xmlns:rdf="http://www.w3.org/1999/02/22-rdf-syntax-ns#"
   xmlns:svg="http://www.w3.org/2000/svg"
   xmlns="http://www.w3.org/2000/svg"
   xmlns:xlink="http://www.w3.org/1999/xlink"
   height="100%"
   width="100%"
   version="1.1"
   id="svg2"
   viewBox="0,0,48,48">
  <defs
     id="defs4">
    <linearGradient
       id="linearGradient887">
      <stop
         style="stop-color:#e7e7e7;stop-opacity:0"
         offset="0"
         id="stop1268" />
      <stop
         style="stop-color:#ffffff;stop-opacity:1"
         offset="1"
         id="stop1270" />
    </linearGradient>
    <linearGradient
       id="linearGradient887-5">
      <stop
         style="stop-color:#e7e7e7;stop-opacity:1"
         offset="0"
         id="stop883" />
      <stop
         style="stop-color:#ffffff;stop-opacity:1"
         offset="1"
         id="stop885" />
    </linearGradient>
    <linearGradient
       id="linearGradient879">
      <stop
         style="stop-color:#f6b3ad;stop-opacity:1"
         offset="0"
         id="stop875" />
      <stop
         style="stop-color:#ca2418;stop-opacity:1"
         offset="1"
         id="stop877" />
    </linearGradient>
    <linearGradient
       xlink:href="#linearGradient879"
       id="linearGradient881"
       x1="24.277887"
       y1="1.0381992"
       x2="24.277887"
       y2="47.277992"
       gradientUnits="userSpaceOnUse"
       gradientTransform="matrix(0.90008318,0,0,0.90008318,2.3980035,2.3622801)" />
    <linearGradient
       xlink:href="#linearGradient887-5"
       id="linearGradient889"
       x1="24.357748"
       y1="5.5104418"
       x2="24.357748"
       y2="42.486301"
       gradientUnits="userSpaceOnUse"
       gradientTransform="matrix(0.90008318,0,0,0.90008318,2.3980035,2.3622801)" />
    <linearGradient
       xlink:href="#linearGradient879"
       id="linearGradient918"
       gradientUnits="userSpaceOnUse"
       x1="24.277887"
       y1="1.0381992"
       x2="24.277887"
       y2="47.277992"
       gradientTransform="matrix(0.85416663,0,0,0.85416663,3.5,-44.5)" />
    <filter
       style="color-interpolation-filters:sRGB"
       id="filter993"
       x="-0.04332"
       width="1.08664"
       y="-0.04332"
       height="1.08664">
      <feGaussianBlur
         stdDeviation="0.7092177"
         id="feGaussianBlur995" />
    </filter>
    <filter
       style="color-interpolation-filters:sRGB"
       id="filter1198"
       x="-0.064244587"
       width="1.1284892"
       y="-0.17565463"
       height="1.3513093">
      <feGaussianBlur
         stdDeviation="0.97269697"
         id="feGaussianBlur1200" />
    </filter>
    <linearGradient
       xlink:href="#linearGradient887"
       id="linearGradient1230"
       gradientUnits="userSpaceOnUse"
       x1="22.481262"
       y1="37.054882"
       x2="22.145966"
       y2="-6.8394489"
       gradientTransform="matrix(1.0719135,0,0,1.0719135,-1.7259275,-1.6382163)" />
    <filter
       style="color-interpolation-filters:sRGB"
       id="filter1515"
       x="-0.075"
       width="1.15"
       y="-0.075"
       height="1.15">
      <feGaussianBlur
         stdDeviation="1.3159724"
         id="feGaussianBlur1517" />
    </filter>
  </defs>
  <metadata
     id="metadata7">
    <rdf:RDF>
      <cc:Work
         rdf:about="">
        <dc:format>image/svg+xml</dc:format>
        <dc:type
           rdf:resource="http://purl.org/dc/dcmitype/StillImage" />
        <dc:title></dc:title>
      </cc:Work>
    </rdf:RDF>
  </metadata>
  <circle
     style="fill:#000000;fill-opacity:1;stroke-width:2.03416;paint-order:markers stroke fill;filter:url(#filter1515)"
     id="path853-9"
     cx="24"
     cy="23.964277"
     r="21.055559"
     transform="matrix(0.98320855,0,0,0.98320855,0.40299481,0.40239498)" />
  <circle
     style="fill:url(#linearGradient881);fill-opacity:1;stroke-width:2;paint-order:markers stroke fill"
     id="path853"
     cx="24"
     cy="23.964277"
     r="20.702005" />
  <circle
     style="fill:url(#linearGradient918);fill-opacity:1;stroke-width:2.22202;paint-order:markers stroke fill;filter:url(#filter993)"
     id="path853-3"
     cx="24"
     cy="-24"
     r="19.64592"
     transform="matrix(0.90008318,0,0,-0.90008318,2.3980035,2.3622801)" />
  <circle
     style="fill:url(#linearGradient889);fill-opacity:1;stroke-width:2;paint-order:markers stroke fill"
     id="path853-2"
     cx="24"
     cy="23.964277"
     r="16.46097" />
  <path
     id="path1383"
     style="color:#000000;font-style:normal;font-variant:normal;font-weight:normal;font-stretch:normal;font-size:medium;line-height:normal;font-family:sans-serif;font-variant-ligatures:normal;font-variant-position:normal;font-variant-caps:normal;font-variant-numeric:normal;font-variant-alternates:normal;font-variant-east-asian:normal;font-feature-settings:normal;font-variation-settings:normal;text-indent:0;text-align:start;text-decoration:none;text-decoration-line:none;text-decoration-style:solid;text-decoration-color:#000000;letter-spacing:normal;word-spacing:normal;text-transform:none;writing-mode:lr-tb;direction:ltr;text-orientation:mixed;dominant-baseline:auto;baseline-shift:baseline;text-anchor:start;white-space:normal;shape-padding:0;shape-margin:0;inline-size:0;clip-rule:nonzero;display:inline;overflow:visible;visibility:visible;opacity:1;isolation:auto;mix-blend-mode:normal;color-interpolation:sRGB;color-interpolation-filters:linearRGB;solid-color:#000000;solid-opacity:1;vector-effect:none;fill:#777777;fill-opacity:1;fill-rule:nonzero;stroke:none;stroke-width:1;stroke-linecap:round;stroke-linejoin:miter;stroke-miterlimit:4;stroke-dasharray:none;stroke-dashoffset:0;stroke-opacity:1;color-rendering:auto;image-rendering:auto;shape-rendering:auto;text-rendering:auto;enable-background:accumulate;stop-color:#000000;stop-opacity:1"
     d="m 18.009816,12.55381 a 0.75155029,0.75155029 0 0 0 -0.35816,0.09982 0.75155029,0.75155029 0 0 0 -0.275961,1.02751 l 0.305318,0.528434 a 0.75155029,0.75155029 0 0 1 0.0059,0.0089 l 4.902691,8.493105 1.06274,1.840711 2.05502,0.548983 9.470707,2.539419 0.604763,0.161465 A 0.75155029,0.75155029 0 0 0 36.701722,27.270789 0.75155029,0.75155029 0 0 0 36.170352,26.3519 L 24.644587,23.263469 18.679156,12.929652 a 0.75155029,0.75155029 0 0 0 -0.669351,-0.375775 z" />
  <path
     id="path1273"
     style="color:#000000;font-style:normal;font-variant:normal;font-weight:normal;font-stretch:normal;font-size:medium;line-height:normal;font-family:sans-serif;font-variant-ligatures:normal;font-variant-position:normal;font-variant-caps:normal;font-variant-numeric:normal;font-variant-alternates:normal;font-variant-east-asian:normal;font-feature-settings:normal;font-variation-settings:normal;text-indent:0;text-align:start;text-decoration:none;text-decoration-line:none;text-decoration-style:solid;text-decoration-color:#000000;letter-spacing:normal;word-spacing:normal;text-transform:none;writing-mode:lr-tb;direction:ltr;text-orientation:mixed;dominant-baseline:auto;baseline-shift:baseline;text-anchor:start;white-space:normal;shape-padding:0;shape-margin:0;inline-size:0;clip-rule:nonzero;display:inline;overflow:visible;visibility:visible;opacity:1;isolation:auto;mix-blend-mode:normal;color-interpolation:sRGB;color-interpolation-filters:linearRGB;solid-color:#000000;solid-opacity:1;vector-effect:none;fill:#777777;fill-opacity:1;fill-rule:nonzero;stroke:none;stroke-width:1;stroke-linecap:round;stroke-linejoin:miter;stroke-miterlimit:4;stroke-dasharray:none;stroke-dashoffset:0;stroke-opacity:1;color-rendering:auto;image-rendering:auto;shape-rendering:auto;text-rendering:auto;enable-background:accumulate;stop-color:#000000;stop-opacity:1"
     d="M 24,8.2391905 A 0.75870325,0.75870325 0 0 0 23.240555,8.9968777 V 12.057511 A 11.932407,11.932407 0 0 1 24,12.031143 a 11.932407,11.932407 0 0 1 0.759445,0.02637 V 8.9968777 A 0.75870325,0.75870325 0 0 0 24,8.2391905 Z M 13.381831,12.621823 a 0.75870325,0.75870325 0 0 0 -0.501023,0.223262 0.75870325,0.75870325 0 0 0 0,1.072365 l 2.16231,2.162309 a 11.932407,11.932407 0 0 1 1.072364,-1.072365 l -2.162309,-2.162309 a 0.75870325,0.75870325 0 0 0 -0.571342,-0.223262 z m 21.166019,0 a 0.75870325,0.75870325 0 0 0 -0.501024,0.223262 l -2.162308,2.162309 a 11.932407,11.932407 0 0 1 1.072364,1.072365 l 2.16231,-2.162309 a 0.75870325,0.75870325 0 0 0 0,-1.072365 0.75870325,0.75870325 0 0 0 -0.571342,-0.223262 z M 9.0326011,23.204831 a 0.75870325,0.75870325 0 0 0 -0.7576872,0.759445 0.75870325,0.75870325 0 0 0 0.7576872,0.759446 h 3.0606339 a 11.932407,11.932407 0 0 1 -0.02637,-0.759446 11.932407,11.932407 0 0 1 0.02637,-0.759445 z m 26.8741639,0 a 11.932407,11.932407 0 0 1 0.02637,0.759445 11.932407,11.932407 0 0 1 -0.02637,0.759446 h 3.060634 a 0.75870325,0.75870325 0 0 0 0.757687,-0.759446 0.75870325,0.75870325 0 0 0 -0.757687,-0.759445 z m -20.863647,8.643964 -2.16231,2.162308 a 0.75870325,0.75870325 0 0 0 0,1.072365 0.75870325,0.75870325 0 0 0 1.072365,0 l 2.162309,-2.162309 a 11.932407,11.932407 0 0 1 -1.072364,-1.072364 z m 17.913764,0 a 11.932407,11.932407 0 0 1 -1.072364,1.072364 l 2.162308,2.162309 a 0.75870325,0.75870325 0 0 0 1.072366,0 0.75870325,0.75870325 0 0 0 0,-1.072365 z m -9.716327,4.022247 v 3.060634 A 0.75870325,0.75870325 0 0 0 24,39.689363 0.75870325,0.75870325 0 0 0 24.759445,38.931676 V 35.871042 A 11.932407,11.932407 0 0 1 24,35.89741 11.932407,11.932407 0 0 1 23.240555,35.871038 Z" />
  <path
     id="path853-5"
     style="fill:#000000;fill-opacity:0.3;stroke-width:1.85547;paint-order:markers stroke fill;filter:url(#filter1198)"
     d="M 23.999999,4.9965368 A 18.758091,17.686209 0 0 0 5.8313659,18.286666 20.256131,16.550114 0 0 1 23.999999,9.0516108 20.256131,16.550114 0 0 1 42.168633,18.285164 18.758091,17.686209 0 0 0 23.999999,4.9965368 Z"
     transform="matrix(0.97518288,0,0,1.1914405,0.59561109,-0.67005813)" />
  <path
     id="path853-2-9"
     style="fill:url(#linearGradient1230);fill-opacity:1;stroke-width:2;paint-order:markers stroke fill"
     d="M 23.84973,4.4847433 A 19.603453,19.603453 0 0 0 4.3970322,24.08771 19.603453,19.603453 0 0 0 4.577713,26.75141 29.551473,10.825787 0 0 0 23.999999,29.418686 29.551473,10.825787 0 0 0 43.420497,26.753198 19.603453,19.603453 0 0 0 43.602966,24.08771 19.603453,19.603453 0 0 0 23.999999,4.4847433 a 19.603453,19.603453 0 0 0 -0.150269,0 z" />
</svg>
