<?xml version="1.0" encoding="UTF-8" standalone="no"?>
<svg
   xmlns:dc="http://purl.org/dc/elements/1.1/"
   xmlns:cc="http://creativecommons.org/ns#"
   xmlns:rdf="http://www.w3.org/1999/02/22-rdf-syntax-ns#"
   xmlns:svg="http://www.w3.org/2000/svg"
   xmlns="http://www.w3.org/2000/svg"
   xmlns:xlink="http://www.w3.org/1999/xlink"
   height="100%"
   width="100%"
   version="1.1"
   id="svg2"
   viewBox="0,0,48,48">
  <defs
     id="defs4">
    <linearGradient
       id="linearGradient913">
      <stop
         id="stop909"
         offset="0"
         style="stop-color:#97f2a5;stop-opacity:1" />
      <stop
         id="stop861"
         offset="0.54413515"
         style="stop-color:#008e17;stop-opacity:0.99607843" />
      <stop
         id="stop911"
         offset="1"
         style="stop-color:#00c31f;stop-opacity:0.99607843" />
    </linearGradient>
    <linearGradient
       id="linearGradient4356">
      <stop
         style="stop-color:#1ad537;stop-opacity:1"
         offset="0"
         id="stop4358" />
      <stop
         style="stop-color:#00a119;stop-opacity:0.99607843"
         offset="1"
         id="stop4360" />
    </linearGradient>
    <linearGradient
       id="linearGradient4264">
      <stop
         style="stop-color:#ffffff;stop-opacity:0.66666669"
         offset="0"
         id="stop4266" />
      <stop
         style="stop-color:#ffffff;stop-opacity:0"
         offset="1"
         id="stop4268" />
    </linearGradient>
    <linearGradient
       id="linearGradient4222">
      <stop
         id="stop4224"
         offset="0"
         style="stop-color:#97f2a5;stop-opacity:1" />
      <stop
         id="stop4226"
         offset="1"
         style="stop-color:#00d822;stop-opacity:0.99607843" />
    </linearGradient>
    <linearGradient
       id="linearGradient4212">
      <stop
         style="stop-color:#007fd8;stop-opacity:1"
         offset="0"
         id="stop4216" />
      <stop
         style="stop-color:#003c66;stop-opacity:1"
         offset="0.58500826"
         id="stop863" />
      <stop
         style="stop-color:#0699ff;stop-opacity:1"
         offset="1"
         id="stop4214" />
    </linearGradient>
    <radialGradient
       gradientTransform="matrix(2.9780968,0,0,2.9780968,-47.474325,-3050.5448)"
       gradientUnits="userSpaceOnUse"
       r="12.9375"
       fy="1030.601"
       fx="22.213856"
       cy="1030.601"
       cx="22.213856"
       id="radialGradient4220"
       xlink:href="#linearGradient4212" />
    <radialGradient
       gradientUnits="userSpaceOnUse"
       gradientTransform="matrix(5.4481538,0,0,5.4441896,-105.66282,-123.84023)"
       r="6.7461257"
       fy="29.824511"
       fx="23.716764"
       cy="29.824511"
       cx="23.716764"
       id="radialGradient4228"
       xlink:href="#linearGradient4356" />
    <radialGradient
       gradientUnits="userSpaceOnUse"
       gradientTransform="matrix(5.211159,0,0,4.8042754,-101.3997,-101.2469)"
       r="7.3658814"
       fy="24.784922"
       fx="23.076666"
       cy="24.784922"
       cx="23.076666"
       id="radialGradient4236"
       xlink:href="#linearGradient913" />
    <linearGradient
       gradientTransform="matrix(1.58883,0,0,1.58883,-14.131889,-1610.0489)"
       gradientUnits="userSpaceOnUse"
       y2="1035.4247"
       x2="24.5625"
       y1="1010.8622"
       x1="24.5625"
       id="linearGradient4262"
       xlink:href="#linearGradient4264" />
    <filter
       height="1.168"
       y="-0.084"
       width="1.168"
       x="-0.084"
       id="filter4352"
       style="color-interpolation-filters:sRGB">
      <feGaussianBlur
         id="feGaussianBlur4354"
         stdDeviation="1.4" />
    </filter>
    <radialGradient
       gradientUnits="userSpaceOnUse"
       gradientTransform="matrix(5.1100138,0,0,4.7110275,-98.965766,-98.815936)"
       r="7.3658814"
       fy="24.761414"
       fx="22.599861"
       cy="24.761414"
       cx="22.599861"
       id="radialGradient4236-4"
       xlink:href="#linearGradient4222" />
    <filter
       style="color-interpolation-filters:sRGB"
       id="filter877"
       x="-0.023195444"
       width="1.0463909"
       y="-0.024862375"
       height="1.0497247">
      <feGaussianBlur
         stdDeviation="0.39444336"
         id="feGaussianBlur879" />
    </filter>
  </defs>
  <metadata
     id="metadata7">
    <rdf:RDF>
      <cc:Work
         rdf:about="">
        <dc:format>image/svg+xml</dc:format>
        <dc:type
           rdf:resource="http://purl.org/dc/dcmitype/StillImage" />
        <dc:title></dc:title>
      </cc:Work>
    </rdf:RDF>
  </metadata>
  <circle
     style="opacity:1;fill:#000000;fill-opacity:1;stroke:none;stroke-width:0.10039051;stroke-linecap:round;stroke-linejoin:miter;stroke-miterlimit:4;stroke-dasharray:none;stroke-opacity:1;filter:url(#filter4352)"
     id="path4178-1-0"
     cx="24"
     cy="1028.3622"
     r="20"
     transform="matrix(1.0440822,0,0,1.0440822,-1.0579734,-1049.6947)" />
  <circle
     style="opacity:1;fill:url(#radialGradient4220);fill-opacity:1;stroke:none;stroke-width:0.1;stroke-linecap:round;stroke-linejoin:miter;stroke-miterlimit:4;stroke-dasharray:none;stroke-opacity:1"
     id="path4178-1"
     cx="24"
     cy="23.999983"
     r="20.952696" />
  <path
     style="opacity:1;fill:#000000;fill-opacity:0.25373134;fill-rule:evenodd;stroke:none;stroke-width:0.09805907;stroke-linecap:butt;stroke-linejoin:miter;stroke-miterlimit:4;stroke-dasharray:none;stroke-opacity:1;filter:url(#filter877)"
     d="M 24,3.433594 A 20.565779,20.565779 0 0 0 3.4960938,22.779297 c 0.5773878,0.5606 1.2826412,1.851919 1.328125,2.761719 0.049673,0.9934 0.5961444,2.58244 1.1425781,4.61914 0.5464337,2.0368 2.3364535,2.4841 2.5351562,3.875 0.570467,3.5603 1.4810248,4.484194 3.0566409,6.308594 a 20.565779,20.565779 0 0 0 1.705078,1.166016 c -0.635201,-2.2135 -0.384799,-3.0575 1.148437,-3.75 3.874712,-1.6393 4.023993,-7.152257 2.732422,-7.847657 -1.29157,-0.6955 -2.783572,-0.896543 -3.279297,-1.589843 -1.268557,-1.7743 -2.929941,-3.676575 -5.662109,-4.421875 -2.7321685,-0.745 -3.1799846,-3.626932 -1.7890625,-4.769532 2.3767723,-2.0324 3.4645201,-4.490881 4.1855465,-4.613281 5.181867,-0.9449 4.422562,-3.006259 4.359375,-5.568359 -0.176059,-1.1600001 -1.615766,-2.8000688 1.142578,-3.2304688 1.142543,-0.1495 1.886719,-0.1971875 1.886719,0.9453125 0,1.1425 -0.712483,3.0578969 0.128907,3.0292969 2.632816,-0.099 2.752908,-0.7450313 3.498046,-0.8945313 0.745136,-0.1494 3.576024,-0.695225 4.271485,-1.390625 0.671884,-0.6719 2.081564,-1.6758843 -0.316407,-3.8964843 A 20.565779,20.565779 0 0 0 24,3.433594 Z m 8.777344,3.5195312 v 0.00195 c -0.08776,0 -0.177127,-9.375e-4 -0.263672,0.039063 -0.271664,0.1558 -1.258792,0.7867313 -2.306641,1.0195313 -1.009038,0.1558 -0.270468,1.2396406 -0.115234,1.7441406 0.155243,0.5045999 -0.541343,0.8168789 -0.890625,1.2050789 -0.349284,0.3881 -1.205371,0.349446 -2.447266,0.310547 -1.316408,0.607499 -1.474609,1.860371 -1.474609,2.326171 0,0.4657 0.116791,1.632288 1.552734,1.554688 1.435941,-0.077 1.476456,-0.855841 2.058594,-1.244141 0.582139,-0.388 0.734667,-1.512265 1.976563,-0.697265 1.241894,0.815 1.824545,1.124521 2.173828,1.357421 0.349284,0.2326 -0.117218,1.437885 0.77539,0.583985 0.892615,-0.8538 -0.65911,-0.854806 -1.396484,-1.941406 -0.232856,-0.3105 0.775969,-0.351379 1.164062,-0.08008 0.388093,0.2716 1.398404,2.795941 2.291016,2.369141 0.310473,-0.038 0.659546,-0.04004 1.164062,0.347656 0.50452,0.3883 1.007633,-0.308912 1.279297,0.117188 0.271665,0.4269 1.006152,3.130097 -2.769531,1.154297 -2.774588,1.4314 -3.052013,-1.659678 -4.138672,-1.892578 -1.086657,-0.233 -1.358799,-0.542991 -3.066406,0.349609 -1.707603,0.8925 -2.133759,-0.581625 -4.074219,2.484375 -0.683633,0.8864 -1.521677,1.539756 -1.396484,5.160156 0.1286,3.7192 3.958049,5.238828 6.208984,4.423828 0.465709,-0.116 1.884004,0.837385 1.767578,2.583985 -0.116424,1.0477 0.833585,0.174706 0.173829,4.753906 -0.132098,0.7403 0.982178,1.356975 1.044921,3.296875 0.0388,1.1996 1.048875,2.794447 4.347657,0.310547 3.298784,-2.4838 1.139735,-3.137138 3.259765,-6.210938 0.736383,-1.0675 -0.104243,-3.183703 3.06836,-6.595703 0.562496,-1.1361 -2.682689,-2.32874 0.154297,-3.49414 0.529634,-1.1464 0.523023,-2.628419 1.410156,-1.449219 A 20.565779,20.565779 0 0 0 38.132812,9.0937502 C 37.412247,9.2989502 35.776284,8.3863158 35.136719,7.8535158 34.671011,7.6977158 33.624999,7.3515627 33.625,7.3515627 33.314136,7.1244627 33.040615,6.9638252 32.777344,6.9531252 Z"
     id="path4176-5"
     transform="matrix(1.0197935,0,0,1.0197935,-0.4750453,-0.47504478)" />
  <path
     style="fill:url(#radialGradient4236);fill-opacity:1;fill-rule:evenodd;stroke:none;stroke-width:0.1;stroke-linecap:butt;stroke-linejoin:miter;stroke-miterlimit:4;stroke-dasharray:none;stroke-opacity:1"
     d="M 24,3.026512 A 20.972849,20.972849 0 0 0 3.0902485,22.755135 c 0.5888165,0.571697 1.3080293,1.888575 1.3544134,2.816383 0.050656,1.013063 0.6079442,2.633556 1.1651937,4.71057 0.5572495,2.077115 2.3827002,2.533268 2.5853359,3.9517 0.5817586,3.630771 1.5103396,4.572951 3.1171435,6.433463 a 20.972849,20.972849 0 0 0 1.738827,1.189095 C 12.403388,39.599033 12.658747,38.738327 14.22233,38.03212 18.173737,36.360373 18.325972,30.738295 17.008837,30.02913 15.691702,29.319864 14.170168,29.114842 13.664631,28.407819 12.370964,26.5984 10.676696,24.658472 7.8904486,23.89842 5.1042008,23.138673 4.6475208,20.199698 6.0659742,19.034482 c 2.423817,-2.072629 3.5330952,-4.579772 4.2683928,-4.704595 5.284435,-0.963602 4.510101,-3.065763 4.445663,-5.6785763 -0.179544,-1.1829606 -1.647747,-2.855492 1.165193,-3.2944112 1.165158,-0.1524591 1.924064,-0.2010905 1.924064,0.9640236 0,1.1651141 -0.726585,3.1184234 0.131459,3.0892574 2.684929,-0.1009596 2.807398,-0.7597781 3.567285,-0.9122372 0.759885,-0.1523572 3.646806,-0.708986 4.356032,-1.4181505 0.685183,-0.6851992 2.122766,-1.709056 -0.322669,-3.9736095 A 20.972849,20.972849 0 0 0 24,3.026512 Z m 8.951078,3.5891951 v 0.00199 c -0.08949,0 -0.180633,-9.561e-4 -0.268891,0.039836 -0.277041,0.1588839 -1.283708,0.8023035 -2.352297,1.0397114 -1.029011,0.1588839 -0.275822,1.2641775 -0.117515,1.7786634 0.158316,0.5145873 -0.552058,0.8330471 -0.908254,1.2289311 -0.356197,0.395782 -1.229229,0.356363 -2.495706,0.316694 -1.342464,0.619523 -1.503797,1.897194 -1.503797,2.372214 0,0.474918 0.119103,1.664597 1.583469,1.585461 1.464363,-0.07853 1.50568,-0.872782 2.09934,-1.268767 0.593662,-0.39568 0.749209,-1.542198 2.015687,-0.711067 1.266475,0.831132 1.860659,1.14678 2.216855,1.384289 0.356197,0.237204 -0.119538,1.466346 0.790738,0.595545 0.910283,-0.8707 -0.672156,-0.871726 -1.424125,-1.979834 -0.237465,-0.316646 0.791327,-0.358334 1.187103,-0.08167 0.395774,0.276977 1.426083,2.851283 2.336363,2.416035 0.316618,-0.03875 0.672601,-0.04083 1.187102,0.354537 0.514507,0.395987 1.027579,-0.315026 1.30462,0.119508 0.277041,0.43535 1.026067,3.192053 -2.824351,1.177144 -2.829507,1.459733 -3.112422,-1.692528 -4.22059,-1.930038 -1.108166,-0.237612 -1.385695,-0.553739 -3.127101,0.356529 -1.741403,0.910165 -2.175994,-0.593138 -4.154862,2.533549 -0.697165,0.903945 -1.551797,1.570233 -1.424126,5.262294 0.131146,3.792816 4.036393,5.342523 6.331882,4.511391 0.474927,-0.118296 1.921295,0.85396 1.802565,2.635132 -0.118729,1.068437 0.850084,0.178164 0.177269,4.848002 -0.134712,0.754953 1.001619,1.383835 1.065604,3.362132 0.03957,1.223344 1.069636,2.849759 4.433713,0.316693 3.364078,-2.532962 1.162294,-3.199232 3.324286,-6.333874 0.75096,-1.088629 -0.106305,-3.246719 3.129095,-6.726255 0.573629,-1.158587 -2.735789,-2.374834 0.15735,-3.563301 0.540118,-1.169092 0.533376,-2.680445 1.438068,-1.477905 A 20.972849,20.972849 0 0 0 38.41255,8.7987027 C 37.677723,9.0079643 36.009378,8.0772657 35.357154,7.5339197 34.882228,7.3750358 33.815512,7.0220311 33.815513,7.0220311 33.498495,6.7904361 33.21956,6.6266189 32.951078,6.6157071 Z"
     id="path4176" />
  <path
     style="opacity:1;fill:url(#linearGradient4262);fill-opacity:1;stroke:none;stroke-width:0.1;stroke-linecap:round;stroke-linejoin:miter;stroke-miterlimit:4;stroke-dasharray:none;stroke-opacity:1"
     d="M 24.000031,3.3875826 A 20.456186,20.456186 0 0 0 3.5562564,23.570679 26.513601,14.647026 0 0 0 24.000031,28.908107 26.513601,14.647026 0 0 0 44.446909,23.573778 20.456186,20.456186 0 0 0 24.000031,3.3875826 Z"
     id="path4178-1-7" />
</svg>
