<?xml version="1.0" encoding="UTF-8" standalone="no"?>
<svg
   xmlns:dc="http://purl.org/dc/elements/1.1/"
   xmlns:cc="http://creativecommons.org/ns#"
   xmlns:rdf="http://www.w3.org/1999/02/22-rdf-syntax-ns#"
   xmlns:svg="http://www.w3.org/2000/svg"
   xmlns="http://www.w3.org/2000/svg"
   xmlns:xlink="http://www.w3.org/1999/xlink"
   height="100%"
   width="100%"
   version="1.1"
   id="svg2"
   viewBox="0,0,48,48">
  <defs
     id="defs4">
    <linearGradient
       id="linearGradient4427">
      <stop
         id="stop4429"
         offset="0"
         style="stop-color:#ffffff;stop-opacity:1" />
      <stop
         id="stop4431"
         offset="1"
         style="stop-color:#ffffff;stop-opacity:0" />
    </linearGradient>
    <linearGradient
       id="linearGradient5736">
      <stop
         id="stop5738"
         offset="0"
         style="stop-color:#c3c3c3;stop-opacity:1" />
      <stop
         id="stop5740"
         offset="1"
         style="stop-color:#ffffff;stop-opacity:1;" />
    </linearGradient>
    <linearGradient
       gradientUnits="userSpaceOnUse"
       y2="8.078125"
       x2="9.9570312"
       y1="41.769531"
       x1="37.976562"
       id="linearGradient5742"
       xlink:href="#linearGradient5736" />
    <linearGradient
       gradientUnits="userSpaceOnUse"
       y2="1019.0466"
       x2="29.488289"
       y1="1012.6989"
       x1="36.402351"
       id="linearGradient5796-6"
       xlink:href="#linearGradient5736-8" />
    <linearGradient
       id="linearGradient5736-8">
      <stop
         id="stop5738-9"
         offset="0"
         style="stop-color:#c3c3c3;stop-opacity:1" />
      <stop
         id="stop5740-8"
         offset="1"
         style="stop-color:#ffffff;stop-opacity:1;" />
    </linearGradient>
    <linearGradient
       gradientUnits="userSpaceOnUse"
       y2="8.078125"
       x2="9.9570312"
       y1="41.769531"
       x1="37.976562"
       id="linearGradient5742-5"
       xlink:href="#linearGradient5736-5" />
    <linearGradient
       id="linearGradient5736-5">
      <stop
         id="stop5738-8"
         offset="0"
         style="stop-color:#c3c3c3;stop-opacity:1" />
      <stop
         id="stop5740-4"
         offset="1"
         style="stop-color:#ffffff;stop-opacity:1;" />
    </linearGradient>
    <filter
       id="filter4242"
       style="color-interpolation-filters:sRGB;">
      <feMorphology
         id="feMorphology4244"
         result="result91"
         in="SourceAlpha"
         radius="4.3" />
      <feComposite
         id="feComposite4246"
         in2="result91"
         in="SourceGraphic"
         operator="out" />
      <feGaussianBlur
         id="feGaussianBlur4248"
         stdDeviation="1.2"
         result="result0" />
      <feDiffuseLighting
         id="feDiffuseLighting4250"
         diffuseConstant="1">
        <feDistantLight
           id="feDistantLight4252"
           azimuth="225"
           elevation="66" />
      </feDiffuseLighting>
      <feBlend
         id="feBlend4254"
         in2="SourceGraphic"
         mode="multiply" />
      <feComposite
         id="feComposite4256"
         in2="SourceAlpha"
         operator="in" />
    </filter>
    <filter
       id="filter4242-1"
       style="color-interpolation-filters:sRGB">
      <feMorphology
         id="feMorphology4244-5"
         result="result91"
         in="SourceAlpha"
         radius="4.3" />
      <feComposite
         id="feComposite4246-8"
         in2="result91"
         in="SourceGraphic"
         operator="out" />
      <feGaussianBlur
         id="feGaussianBlur4248-2"
         stdDeviation="1.2"
         result="result0" />
      <feDiffuseLighting
         id="feDiffuseLighting4250-3"
         diffuseConstant="1">
        <feDistantLight
           id="feDistantLight4252-2"
           azimuth="225"
           elevation="66" />
      </feDiffuseLighting>
      <feBlend
         id="feBlend4254-6"
         in2="SourceGraphic"
         mode="multiply" />
      <feComposite
         id="feComposite4256-8"
         in2="SourceAlpha"
         operator="in" />
    </filter>
    <filter
       height="1.1576434"
       y="-0.078821724"
       width="1.179813"
       x="-0.089906502"
       id="filter4333"
       style="color-interpolation-filters:sRGB">
      <feGaussianBlur
         id="feGaussianBlur4335"
         stdDeviation="0.57713595" />
    </filter>
    <filter
       height="1.1464712"
       y="-0.073235589"
       width="1.1416108"
       x="-0.070805412"
       id="filter4382"
       style="color-interpolation-filters:sRGB">
      <feGaussianBlur
         id="feGaussianBlur4384"
         stdDeviation="0.71542968" />
    </filter>
    <linearGradient
       gradientTransform="matrix(1.1883677,0,0,1.1883677,-4.4869796,-194.32627)"
       gradientUnits="userSpaceOnUse"
       y2="1037.2634"
       x2="21.621641"
       y1="1020.3148"
       x1="19.346743"
       id="linearGradient4433"
       xlink:href="#linearGradient4427" />
  </defs>
  <metadata
     id="metadata7">
    <rdf:RDF>
      <cc:Work
         rdf:about="">
        <dc:format>image/svg+xml</dc:format>
        <dc:type
           rdf:resource="http://purl.org/dc/dcmitype/StillImage" />
        <dc:title></dc:title>
      </cc:Work>
    </rdf:RDF>
  </metadata>
  <g
     transform="translate(0,-1004.3622)"
     id="layer1">
    <g
       style="opacity:1;fill:#737373;fill-opacity:1;fill-rule:nonzero;stroke:none;stroke-width:0.89999998;stroke-linecap:round;stroke-linejoin:miter;stroke-miterlimit:4;stroke-dasharray:none;stroke-opacity:1"
       id="g4175">
      <path
         transform="matrix(1.1665193,0,0,1.1665193,-3.9964638,-171.24218)"
         id="path4197-2"
         d="m 17.501954,1024.3122 -5.626953,1.8067 0,14.7734 21.050781,6.8653 3.199219,-6.3125 0,-15.9356 -18.623047,-1.1973 z"
         style="opacity:1;fill:#000000;fill-opacity:1;fill-rule:evenodd;stroke:none;stroke-width:1px;stroke-linecap:butt;stroke-linejoin:round;stroke-miterlimit:4;stroke-dasharray:none;stroke-opacity:1;filter:url(#filter4382)" />
      <path
         id="path4197"
         style="fill:#ababab;fill-opacity:1;fill-rule:evenodd;stroke:none;stroke-width:1px;stroke-linecap:butt;stroke-linejoin:round;stroke-opacity:1"
         d="m 9.856176,1025.7452 24.55584,2.4001 3.73181,-3.1111 -21.722851,-1.3954 z" />
      <path
         id="path4199"
         style="fill:#898989;fill-opacity:1;fill-rule:evenodd;stroke:none;stroke-width:1px;stroke-linecap:butt;stroke-linejoin:round;stroke-opacity:1"
         d="m 34.412016,1028.1455 0,22.8408 3.73181,-7.3636 0,-18.5884 z" />
      <path
         id="path4201"
         style="fill:#9c9c9c;fill-opacity:1;fill-rule:evenodd;stroke:none;stroke-width:1px;stroke-linecap:butt;stroke-linejoin:round;stroke-opacity:1"
         d="m 9.856176,1025.6285 24.673049,2.4112 0,22.9466 -24.6730502,-8.0454 z" />
      <path
         transform="matrix(1.1665193,0,0,1.1665193,-3.9964638,-171.24218)"
         id="path4238-1"
         d="m 22.751954,1009.0876 c -0.516507,0.01 -0.995969,0.061 -1.4375,0.1504 -0.883061,0.179 -1.657759,0.5363 -2.324219,1.0742 -0.774762,0.6334 -1.299303,1.4142 -1.574218,2.3399 -0.283245,0.9245 -0.423828,2.1021 -0.423828,3.5351 l 0,8.1133 0.943359,0.031 0.716797,-0.6817 0.746094,0.7305 1.304687,0.043 0,-8.0742 c 0,-1.5662 0.300576,-2.7022 0.900391,-3.4063 0.599815,-0.6956 1.622713,-0.9561 3.072265,-0.7852 1.049677,0.1239 1.866066,0.408 2.449219,0.8516 0.583154,0.4522 0.991347,1.0336 1.224609,1.7442 0.22493,0.7179 0.337891,1.5885 0.337891,2.6132 l 0,7.3223 1.689453,0.057 0.189453,-0.1875 0.148438,0.1973 1.683594,0.057 0,-6.8066 c 0,-1.383 -0.149312,-2.5938 -0.449219,-3.6289 -0.299908,-1.0268 -0.770642,-1.8961 -1.41211,-2.6133 -0.641469,-0.7088 -1.469974,-1.2789 -2.486328,-1.707 -1.016353,-0.4199 -2.228821,-0.7128 -3.636719,-0.8789 -0.591484,-0.07 -1.145601,-0.1004 -1.662109,-0.09 z"
         style="font-style:normal;font-variant:normal;font-weight:normal;font-stretch:normal;font-size:medium;line-height:125%;font-family:'Arial Rounded MT Bold';-inkscape-font-specification:'Arial Rounded MT Bold, ';letter-spacing:0px;word-spacing:0px;opacity:1;fill:#000000;fill-opacity:1;fill-rule:nonzero;stroke:none;stroke-width:1px;stroke-linecap:butt;stroke-linejoin:miter;stroke-miterlimit:4;stroke-dasharray:none;stroke-opacity:1;filter:url(#filter4333)" />
      <path
         transform="matrix(1.1665193,0.01232374,0,1.1665193,-3.9964626,-171.92838)"
         id="path4238"
         d="m 22.751953,1009.4364 c -0.516507,0.015 -0.995969,0.07 -1.4375,0.1641 -0.883061,0.1883 -1.657758,0.5546 -2.324218,1.0996 -0.774762,0.6415 -1.299304,1.4269 -1.574219,2.3555 -0.283245,0.9275 -0.423828,2.108 -0.423828,3.541 l 0,8.8086 c 0,0.1974 0.01143,0.3813 0.03516,0.5547 l 3.652344,0.248 c 0.01215,-0.1292 0.02344,-0.2595 0.02344,-0.4043 l 0,-9.084 c 0,-1.5662 0.300576,-2.7056 0.900391,-3.416 0.599815,-0.7019 1.622713,-0.974 3.072265,-0.8184 1.049677,0.1128 1.866066,0.3888 2.449219,0.8262 0.583154,0.446 0.991348,1.0224 1.22461,1.7305 0.22493,0.7156 0.33789,1.5847 0.33789,2.6094 l 0,9.0097 c 0,0.032 0.0052,0.06 0.0059,0.092 l 3.705078,0.252 0,-8.7539 c 0,-1.383 -0.149312,-2.5912 -0.449219,-3.6231 -0.299908,-1.0236 -0.770641,-1.8892 -1.412109,-2.5996 -0.641469,-0.702 -1.469975,-1.2623 -2.486329,-1.6797 -1.016353,-0.4091 -2.22882,-0.6886 -3.636718,-0.8398 -0.591485,-0.064 -1.145602,-0.088 -1.66211,-0.072 z"
         style="font-style:normal;font-variant:normal;font-weight:normal;font-stretch:normal;font-size:medium;line-height:125%;font-family:'Arial Rounded MT Bold';-inkscape-font-specification:'Arial Rounded MT Bold, ';letter-spacing:0px;word-spacing:0px;fill:#ababab;fill-opacity:1;stroke:none;stroke-width:1px;stroke-linecap:butt;stroke-linejoin:miter;stroke-opacity:1;filter:url(#filter4242)" />
      <path
         id="path4201-3"
         d="m 10.302512,1026.0472 0,15.9371 c 2.917496,-3.1829 9.420996,-6.8823 23.779223,-5.7231 l 0,-7.8918 -23.779223,-2.3222 z"
         style="opacity:1;fill:url(#linearGradient4433);fill-opacity:1;fill-rule:evenodd;stroke:none;stroke-width:1px;stroke-linecap:butt;stroke-linejoin:round;stroke-miterlimit:4;stroke-dasharray:none;stroke-opacity:1" />
    </g>
  </g>
</svg>
