<?xml version="1.0" encoding="UTF-8" standalone="no"?>
<svg
   xmlns:dc="http://purl.org/dc/elements/1.1/"
   xmlns:cc="http://creativecommons.org/ns#"
   xmlns:rdf="http://www.w3.org/1999/02/22-rdf-syntax-ns#"
   xmlns:svg="http://www.w3.org/2000/svg"
   xmlns="http://www.w3.org/2000/svg"
   xmlns:xlink="http://www.w3.org/1999/xlink"
   viewBox="0,0,48,48"
   id="svg2"
   version="1.1"
   width="100%"
   height="100%">
  <defs
     id="defs4">
    <linearGradient
       id="linearGradient4255">
      <stop
         id="stop4257"
         offset="0"
         style="stop-color:#006889;stop-opacity:1" />
      <stop
         id="stop4259"
         offset="1"
         style="stop-color:#00c1ff;stop-opacity:1" />
    </linearGradient>
    <linearGradient
       xlink:href="#linearGradient4255"
       id="linearGradient4173"
       x1="15.788025"
       y1="6.5429487"
       x2="30.650429"
       y2="6.5429487"
       gradientUnits="userSpaceOnUse"
       gradientTransform="matrix(3.241679,0,0,1,-51.279711,-31.181981)" />
    <filter
       style="color-interpolation-filters:sRGB"
       id="filter4217"
       x="-0.050116996"
       width="1.100234"
       y="-0.25932178"
       height="1.5186436">
      <feGaussianBlur
         stdDeviation="0.89937022"
         id="feGaussianBlur4219" />
    </filter>
    <linearGradient
       xlink:href="#linearGradient4255"
       id="linearGradient4173-1"
       x1="15.788025"
       y1="6.5429487"
       x2="30.650429"
       y2="6.5429487"
       gradientUnits="userSpaceOnUse"
       gradientTransform="matrix(3.241679,0,0,1,-51.279711,-31.181981)" />
    <linearGradient
       xlink:href="#linearGradient4255"
       id="linearGradient4173-5"
       x1="15.788025"
       y1="6.5429487"
       x2="30.650429"
       y2="6.5429487"
       gradientUnits="userSpaceOnUse"
       gradientTransform="matrix(3.241679,0,0,1,-51.279711,-31.181981)" />
    <linearGradient
       gradientUnits="userSpaceOnUse"
       y2="49.024387"
       x2="23.711792"
       y1="-0.16147918"
       x1="23.711792"
       id="linearGradient5034"
       xlink:href="#linearGradient4255" />
    <filter
       height="1.144"
       y="-0.072"
       width="1.144"
       x="-0.072"
       id="filter5080"
       style="color-interpolation-filters:sRGB">
      <feGaussianBlur
         id="feGaussianBlur5082"
         stdDeviation="1.2598828" />
    </filter>
  </defs>
  <metadata
     id="metadata7">
    <rdf:RDF>
      <cc:Work
         rdf:about="">
        <dc:format>image/svg+xml</dc:format>
        <dc:type
           rdf:resource="http://purl.org/dc/dcmitype/StillImage" />
        <dc:title></dc:title>
      </cc:Work>
    </rdf:RDF>
  </metadata>
  <path
     id="path5010-8"
     d="M 24,3.001953 A 20.997475,20.997475 0 0 0 3.0019531,24 20.997475,20.997475 0 0 0 24,44.998047 20.997475,20.997475 0 0 0 44.998047,24 20.997475,20.997475 0 0 0 24,3.001953 Z m 0,7.191406 A 13.806559,13.806559 0 0 1 37.806641,24 13.806559,13.806559 0 0 1 24,37.806641 13.806559,13.806559 0 0 1 10.193359,24 13.806559,13.806559 0 0 1 24,10.193359 Z"
     style="opacity:1;fill:#000000;fill-opacity:1;stroke:none;stroke-width:0.1;stroke-linecap:round;stroke-linejoin:miter;stroke-miterlimit:4;stroke-dasharray:none;stroke-opacity:1;filter:url(#filter5080)" />
  <path
     id="path5010"
     d="M 24 3.0019531 A 20.997475 20.997475 0 0 0 3.0019531 24 A 20.997475 20.997475 0 0 0 24 44.998047 A 20.997475 20.997475 0 0 0 44.998047 24 A 20.997475 20.997475 0 0 0 24 3.0019531 z M 24 10.193359 A 13.806559 13.806559 0 0 1 37.806641 24 A 13.806559 13.806559 0 0 1 24 37.806641 A 13.806559 13.806559 0 0 1 10.193359 24 A 13.806559 13.806559 0 0 1 24 10.193359 z "
     style="opacity:1;fill:url(#linearGradient5034);fill-opacity:1;stroke:none;stroke-width:0.1;stroke-linecap:round;stroke-linejoin:miter;stroke-miterlimit:4;stroke-dasharray:none;stroke-opacity:1" />
</svg>
