<?xml version="1.0" encoding="UTF-8" standalone="no"?>
<svg
   xmlns:dc="http://purl.org/dc/elements/1.1/"
   xmlns:cc="http://creativecommons.org/ns#"
   xmlns:rdf="http://www.w3.org/1999/02/22-rdf-syntax-ns#"
   xmlns:svg="http://www.w3.org/2000/svg"
   xmlns="http://www.w3.org/2000/svg"
   xmlns:xlink="http://www.w3.org/1999/xlink"
   height="100%"
   width="100%"
   version="1.1"
   id="svg2"
   viewBox="0,0,48,48">
  <defs
     id="defs4">
    <linearGradient
       id="linearGradient13351">
      <stop
         style="stop-color:#0ad849;stop-opacity:1"
         offset="0"
         id="stop13353" />
      <stop
         style="stop-color:#109238;stop-opacity:1"
         offset="1"
         id="stop13355" />
    </linearGradient>
    <linearGradient
       gradientTransform="matrix(3.241679,0,0,1,-53.745214,-3.0201853)"
       gradientUnits="userSpaceOnUse"
       y2="2.7266526"
       x2="23.592638"
       y1="51.624886"
       x1="23.592638"
       id="linearGradient4173"
       xlink:href="#linearGradient13351" />
    <filter
       height="1.144"
       y="-0.072"
       width="1.144"
       x="-0.072"
       id="filter4265"
       style="color-interpolation-filters:sRGB">
      <feGaussianBlur
         id="feGaussianBlur4267"
         stdDeviation="1.2921094" />
    </filter>
  </defs>
  <metadata
     id="metadata7">
    <rdf:RDF>
      <cc:Work
         rdf:about="">
        <dc:format>image/svg+xml</dc:format>
        <dc:type
           rdf:resource="http://purl.org/dc/dcmitype/StillImage" />
        <dc:title></dc:title>
      </cc:Work>
    </rdf:RDF>
  </metadata>
  <path
     id="rect4165-7"
     d="m 23.837891,2.464844 c -2.216,0 -4,1.7839999 -4,4 l 0,13.373047 -13.3730472,0 c -2.2160001,0 -4,1.784 -4,4 l 0,0.324218 c 0,2.216 1.7839999,4 4,4 l 13.3730472,0 0,13.373047 c 0,2.216 1.784,4 4,4 l 0.324218,0 c 2.216,0 4,-1.784 4,-4 l 0,-13.373047 13.373047,0 c 2.216,0 4,-1.784 4,-4 l 0,-0.324218 c 0,-2.216 -1.784,-4 -4,-4 l -13.373047,0 0,-13.373047 c 0,-2.2160001 -1.784,-4 -4,-4 l -0.324218,0 z"
     style="opacity:1;fill:#000000;fill-opacity:1;stroke:none;stroke-width:0.1;stroke-linecap:round;stroke-linejoin:miter;stroke-miterlimit:4;stroke-dasharray:none;stroke-opacity:1;filter:url(#filter4265)" />
  <path
     id="rect4165"
     d="M 23.837891 2.4648438 C 21.621891 2.4648438 19.837891 4.2488437 19.837891 6.4648438 L 19.837891 19.837891 L 6.4648438 19.837891 C 4.2488437 19.837891 2.4648438 21.621891 2.4648438 23.837891 L 2.4648438 24.162109 C 2.4648438 26.378109 4.2488437 28.162109 6.4648438 28.162109 L 19.837891 28.162109 L 19.837891 41.535156 C 19.837891 43.751156 21.621891 45.535156 23.837891 45.535156 L 24.162109 45.535156 C 26.378109 45.535156 28.162109 43.751156 28.162109 41.535156 L 28.162109 28.162109 L 41.535156 28.162109 C 43.751156 28.162109 45.535156 26.378109 45.535156 24.162109 L 45.535156 23.837891 C 45.535156 21.621891 43.751156 19.837891 41.535156 19.837891 L 28.162109 19.837891 L 28.162109 6.4648438 C 28.162109 4.2488437 26.378109 2.4648438 24.162109 2.4648438 L 23.837891 2.4648438 z "
     style="opacity:1;fill:url(#linearGradient4173);fill-opacity:1;stroke:none;stroke-width:0.1;stroke-linecap:round;stroke-linejoin:miter;stroke-miterlimit:4;stroke-dasharray:none;stroke-opacity:1" />
</svg>
