<?xml version="1.0" encoding="UTF-8" standalone="no"?>
<svg
   xmlns:dc="http://purl.org/dc/elements/1.1/"
   xmlns:cc="http://creativecommons.org/ns#"
   xmlns:rdf="http://www.w3.org/1999/02/22-rdf-syntax-ns#"
   xmlns:svg="http://www.w3.org/2000/svg"
   xmlns="http://www.w3.org/2000/svg"
   xmlns:xlink="http://www.w3.org/1999/xlink"
   viewBox="0,0,48,48"
   id="svg2"
   version="1.1"
   width="100%"
   height="100%">
  <defs
     id="defs4">
    <linearGradient
       id="linearGradient4165">
      <stop
         style="stop-color:#ffffff;stop-opacity:1"
         offset="0"
         id="stop887" />
      <stop
         style="stop-color:#ffffff;stop-opacity:0"
         offset="1"
         id="stop889" />
    </linearGradient>
    <linearGradient
       id="linearGradient4165-0">
      <stop
         id="stop4169"
         offset="0"
         style="stop-color:#ffde00;stop-opacity:1" />
      <stop
         id="stop4167"
         offset="1"
         style="stop-color:#b59f0b;stop-opacity:1" />
    </linearGradient>
    <linearGradient
       xlink:href="#linearGradient4165-0"
       id="linearGradient4171"
       x1="8.0394526"
       y1="1001.9357"
       x2="3.0923829"
       y2="1027.8339"
       gradientUnits="userSpaceOnUse" />
    <filter
       style="color-interpolation-filters:sRGB"
       id="filter4238"
       x="-0.070305469"
       width="1.1406109"
       y="-0.073778233"
       height="1.1475565">
      <feGaussianBlur
         stdDeviation="0.80655708"
         id="feGaussianBlur4240" />
    </filter>
    <linearGradient
       gradientTransform="matrix(1.4817416,-0.28304245,0.28304245,1.4817416,-271.74832,-474.64894)"
       gradientUnits="userSpaceOnUse"
       y2="1018.7961"
       x2="4.8187804"
       y1="1001.9357"
       x1="8.0394526"
       id="linearGradient4171-9"
       xlink:href="#linearGradient4165" />
    <linearGradient
       y2="1018.7961"
       x2="4.8187804"
       y1="1001.9357"
       x1="8.0394526"
       gradientTransform="matrix(1.4341626,-0.27395391,0.27395391,1.4341626,-262.26489,-426.40076)"
       gradientUnits="userSpaceOnUse"
       id="linearGradient906"
       xlink:href="#linearGradient4165" />
    <linearGradient
       y2="1023.8055"
       x2="3.8618906"
       y1="1001.9357"
       x1="8.0394526"
       gradientTransform="matrix(1.4341626,-0.27395391,0.27395391,1.4341626,-262.26489,-1430.763)"
       gradientUnits="userSpaceOnUse"
       id="linearGradient914"
       xlink:href="#linearGradient4165" />
  </defs>
  <metadata
     id="metadata7">
    <rdf:RDF>
      <cc:Work
         rdf:about="">
        <dc:format>image/svg+xml</dc:format>
        <dc:type
           rdf:resource="http://purl.org/dc/dcmitype/StillImage" />
        <dc:title></dc:title>
      </cc:Work>
    </rdf:RDF>
  </metadata>
  <g
     id="layer1"
     transform="translate(0,-1004.3622)">
    <path
       style="opacity:1;fill:#000000;fill-opacity:1;stroke:none;stroke-width:18;stroke-linecap:butt;stroke-linejoin:bevel;stroke-miterlimit:4;stroke-dasharray:none;stroke-opacity:1;filter:url(#filter4238)"
       id="path4163-4"
       d="m 11.523438,1019.8915 c -0.460436,0.843 0.715637,9.1933 -0.152397,9.6047 -0.868034,0.4114 -6.5867732,-5.7859 -7.5308459,-5.9632 -0.9440725,-0.1774 -8.522213,3.5215 -9.1817205,2.823 -0.6595075,-0.6984 3.4672456,-8.0523 3.3442126,-9.005 -0.1230329,-0.9526 -5.9826551,-7.0169 -5.5222191,-7.8599 0.4604361,-0.8431 8.7296492,0.8092 9.5976833,0.3978 0.8680341,-0.4114 4.8247289,-7.8582 5.7688015,-7.6808 0.9440726,0.1774 1.9279744,8.5525 2.5874821,9.2509 0.659507,0.6984 8.964501,2.1603 9.087534,3.113 0.123033,0.9526 -7.538095,4.4764 -7.998531,5.3195 z"
       transform="matrix(1.5486916,-0.29583126,0.29583126,1.5486916,-285.09279,-542.54069)" />
    <path
       style="opacity:1;fill:url(#linearGradient4171);fill-opacity:1;stroke:none;stroke-width:18;stroke-linecap:butt;stroke-linejoin:bevel;stroke-miterlimit:4;stroke-dasharray:none;stroke-opacity:1"
       id="path4163"
       d="m 11.523438,1019.8915 c -0.460436,0.843 0.715637,9.1933 -0.152397,9.6047 -0.868034,0.4114 -6.5867732,-5.7859 -7.5308459,-5.9632 -0.9440725,-0.1774 -8.522213,3.5215 -9.1817205,2.823 -0.6595075,-0.6984 3.4672456,-8.0523 3.3442126,-9.005 -0.1230329,-0.9526 -5.9826551,-7.0169 -5.5222191,-7.8599 0.4604361,-0.8431 8.7296492,0.8092 9.5976833,0.3978 0.8680341,-0.4114 4.8247289,-7.8582 5.7688015,-7.6808 0.9440726,0.1774 1.9279744,8.5525 2.5874821,9.2509 0.659507,0.6984 8.964501,2.1603 9.087534,3.113 0.123033,0.9526 -7.538095,4.4764 -7.998531,5.3195 z"
       transform="matrix(1.5486916,-0.29583126,0.29583126,1.5486916,-285.09279,-542.54069)" />
    <path
       transform="translate(0,1004.3622)"
       d="M 23.546875 4.4160156 C 22.144322 4.4201156 18.511105 16.183919 17.378906 17.011719 C 16.24671 17.839519 3.9352291 17.736966 3.5058594 19.072266 C 3.1423948 20.202366 10.247471 25.4251 12.71875 27.820312 C 15.932548 28.574013 19.613432 29.004694 23.527344 29.007812 L 23.564453 29.007812 C 27.512814 29.007875 31.224509 28.57217 34.460938 27.808594 C 36.869328 25.422265 44.05249 20.0848 43.679688 18.949219 C 43.242241 17.616519 30.93014 17.795509 29.792969 16.974609 C 28.655799 16.153709 24.949429 4.4160156 23.546875 4.4160156 z "
       style="opacity:1;fill:url(#linearGradient914);fill-opacity:1;stroke:none;stroke-width:26.2817;stroke-linecap:butt;stroke-linejoin:bevel;stroke-miterlimit:4;stroke-dasharray:none;stroke-opacity:1"
       id="path4163-0" />
  </g>
</svg>
