<?xml version="1.0" encoding="UTF-8" standalone="no"?>
<svg
   xmlns:dc="http://purl.org/dc/elements/1.1/"
   xmlns:cc="http://creativecommons.org/ns#"
   xmlns:rdf="http://www.w3.org/1999/02/22-rdf-syntax-ns#"
   xmlns:svg="http://www.w3.org/2000/svg"
   xmlns="http://www.w3.org/2000/svg"
   xmlns:xlink="http://www.w3.org/1999/xlink"
   viewBox="0,0,48,48"
   id="svg2"
   version="1.1"
   width="100%"
   height="100%">
  <defs
     id="defs4">
    <linearGradient
       id="linearGradient4255">
      <stop
         id="stop4257"
         offset="0"
         style="stop-color:#890000;stop-opacity:1" />
      <stop
         id="stop4259"
         offset="1"
         style="stop-color:#ff0000;stop-opacity:1" />
    </linearGradient>
    <linearGradient
       gradientTransform="matrix(1.2232766,0,0,1.2232766,-5.3586377,-5.3586376)"
       gradientUnits="userSpaceOnUse"
       y2="40.893402"
       x2="23.429644"
       y1="7.1065989"
       x1="23.429644"
       id="linearGradient4261"
       xlink:href="#linearGradient4255" />
    <filter
       height="1.168"
       y="-0.083999999"
       width="1.168"
       x="-0.084000001"
       id="filter4343"
       style="color-interpolation-filters:sRGB">
      <feGaussianBlur
         id="feGaussianBlur4345"
         stdDeviation="1.1712955" />
    </filter>
  </defs>
  <metadata
     id="metadata7">
    <rdf:RDF>
      <cc:Work
         rdf:about="">
        <dc:format>image/svg+xml</dc:format>
        <dc:type
           rdf:resource="http://purl.org/dc/dcmitype/StillImage" />
        <dc:title></dc:title>
      </cc:Work>
    </rdf:RDF>
  </metadata>
  <path
     transform="matrix(1.2232766,0,0,1.2232766,-5.3586377,-5.3586376)"
     id="rect4237-2"
     d="M 10.850586,7.2744136 C 9.8826071,7.2199161 8.9353084,7.5353943 8.2353517,8.2353511 6.8354382,9.6352646 6.9691843,12.023872 8.5361329,13.59082 L 18.944336,23.999023 8.5361329,34.409179 c -1.5669486,1.566949 -1.7006947,3.955556 -0.3007812,5.355469 1.3999135,1.399914 3.7885203,1.266168 5.3554693,-0.300781 L 23.999024,29.053711 34.40918,39.463867 c 1.566949,1.566949 3.955555,1.700695 5.355469,0.300781 1.399913,-1.399913 1.266167,-3.78852 -0.300782,-5.355469 L 29.053711,23.999023 39.463867,13.59082 C 41.030816,12.023872 41.164562,9.6352646 39.764649,8.2353511 38.364735,6.8354376 35.976129,6.9691837 34.40918,8.5361323 L 23.999024,18.944336 13.590821,8.5361323 C 12.807346,7.752658 11.818565,7.328911 10.850586,7.2744136 Z"
     style="opacity:1;fill:#000000;fill-opacity:1;stroke:none;stroke-width:0.1;stroke-linecap:round;stroke-linejoin:miter;stroke-miterlimit:4;stroke-dasharray:none;stroke-opacity:1;filter:url(#filter4343)" />
  <path
     id="rect4237"
     d="M 7.9146299,3.5399826 C 6.730524,3.4733171 5.5717157,3.8592342 4.7154751,4.7154749 3.0029937,6.4279563 3.1666022,9.3498833 5.0834137,11.266694 L 17.815525,23.998805 5.0834137,36.733305 c -1.9168115,1.916812 -2.08042,4.838739 -0.3679386,6.55122 1.7124814,1.712482 4.6344081,1.548873 6.5512199,-0.367939 l 12.732111,-12.7345 12.7345,12.7345 c 1.916812,1.916812 4.838738,2.080421 6.55122,0.367939 1.712481,-1.712481 1.548872,-4.634408 -0.36794,-6.55122 l -12.7345,-12.7345 12.7345,-12.732111 C 44.833398,9.3498833 44.997007,6.4279563 43.284526,4.7154749 41.572044,3.0029935 38.650118,3.166602 36.733306,5.0834135 L 23.998806,17.815525 11.266695,5.0834135 C 10.308289,4.1250078 9.098736,3.606648 7.9146299,3.5399826 Z"
     style="opacity:1;fill:url(#linearGradient4261);fill-opacity:1;stroke:none;stroke-width:0.1;stroke-linecap:round;stroke-linejoin:miter;stroke-miterlimit:4;stroke-dasharray:none;stroke-opacity:1" />
</svg>
