<?xml version="1.0" encoding="UTF-8" standalone="no"?>
<svg
   xmlns:dc="http://purl.org/dc/elements/1.1/"
   xmlns:cc="http://creativecommons.org/ns#"
   xmlns:rdf="http://www.w3.org/1999/02/22-rdf-syntax-ns#"
   xmlns:svg="http://www.w3.org/2000/svg"
   xmlns="http://www.w3.org/2000/svg"
   xmlns:xlink="http://www.w3.org/1999/xlink"
   height="100%"
   width="100%"
   version="1.1"
   id="svg2"
   viewBox="0,0,48,48">
  <defs
     id="defs4">
    <linearGradient
       id="linearGradient4165">
      <stop
         id="stop4167"
         offset="0"
         style="stop-color:#b59f0b;stop-opacity:1" />
      <stop
         id="stop4169"
         offset="1"
         style="stop-color:#ffde00;stop-opacity:1" />
    </linearGradient>
    <linearGradient
       gradientUnits="userSpaceOnUse"
       y2="1027.8339"
       x2="3.0923829"
       y1="1001.9357"
       x1="8.0394526"
       id="linearGradient4171"
       xlink:href="#linearGradient4165" />
    <filter
       height="1.1475565"
       y="-0.073778233"
       width="1.1406109"
       x="-0.070305469"
       id="filter4238"
       style="color-interpolation-filters:sRGB">
      <feGaussianBlur
         id="feGaussianBlur4240"
         stdDeviation="0.80655708" />
    </filter>
  </defs>
  <metadata
     id="metadata7">
    <rdf:RDF>
      <cc:Work
         rdf:about="">
        <dc:format>image/svg+xml</dc:format>
        <dc:type
           rdf:resource="http://purl.org/dc/dcmitype/StillImage" />
        <dc:title></dc:title>
      </cc:Work>
    </rdf:RDF>
  </metadata>
  <g
     transform="translate(0,-1004.3622)"
     id="layer1">
    <path
       transform="matrix(1.5486916,-0.29583126,0.29583126,1.5486916,-285.09279,-542.54069)"
       d="m 11.523438,1019.8915 c -0.460436,0.843 0.715637,9.1933 -0.152397,9.6047 -0.868034,0.4114 -6.5867732,-5.7859 -7.5308459,-5.9632 -0.9440725,-0.1774 -8.522213,3.5215 -9.1817205,2.823 -0.6595075,-0.6984 3.4672456,-8.0523 3.3442126,-9.005 -0.1230329,-0.9526 -5.9826551,-7.0169 -5.5222191,-7.8599 0.4604361,-0.8431 8.7296492,0.8092 9.5976833,0.3978 0.8680341,-0.4114 4.8247289,-7.8582 5.7688015,-7.6808 0.9440726,0.1774 1.9279744,8.5525 2.5874821,9.2509 0.659507,0.6984 8.964501,2.1603 9.087534,3.113 0.123033,0.9526 -7.538095,4.4764 -7.998531,5.3195 z"
       id="path4163-4"
       style="opacity:1;fill:#000000;fill-opacity:1;stroke:none;stroke-width:18;stroke-linecap:butt;stroke-linejoin:bevel;stroke-miterlimit:4;stroke-dasharray:none;stroke-opacity:1;filter:url(#filter4238)" />
    <path
       transform="matrix(1.5486916,-0.29583126,0.29583126,1.5486916,-285.09279,-542.54069)"
       d="m 11.523438,1019.8915 c -0.460436,0.843 0.715637,9.1933 -0.152397,9.6047 -0.868034,0.4114 -6.5867732,-5.7859 -7.5308459,-5.9632 -0.9440725,-0.1774 -8.522213,3.5215 -9.1817205,2.823 -0.6595075,-0.6984 3.4672456,-8.0523 3.3442126,-9.005 -0.1230329,-0.9526 -5.9826551,-7.0169 -5.5222191,-7.8599 0.4604361,-0.8431 8.7296492,0.8092 9.5976833,0.3978 0.8680341,-0.4114 4.8247289,-7.8582 5.7688015,-7.6808 0.9440726,0.1774 1.9279744,8.5525 2.5874821,9.2509 0.659507,0.6984 8.964501,2.1603 9.087534,3.113 0.123033,0.9526 -7.538095,4.4764 -7.998531,5.3195 z"
       id="path4163"
       style="opacity:1;fill:url(#linearGradient4171);fill-opacity:1;stroke:none;stroke-width:18;stroke-linecap:butt;stroke-linejoin:bevel;stroke-miterlimit:4;stroke-dasharray:none;stroke-opacity:1" />
  </g>
</svg>
