<?xml version="1.0" encoding="UTF-8" standalone="no"?>
<svg
   xmlns:osb="http://www.openswatchbook.org/uri/2009/osb"
   xmlns:dc="http://purl.org/dc/elements/1.1/"
   xmlns:cc="http://creativecommons.org/ns#"
   xmlns:rdf="http://www.w3.org/1999/02/22-rdf-syntax-ns#"
   xmlns:svg="http://www.w3.org/2000/svg"
   xmlns="http://www.w3.org/2000/svg"
   xmlns:xlink="http://www.w3.org/1999/xlink"
   viewBox="0,0,48,48"
   id="svg2"
   version="1.1"
   width="100%"
   height="100%">
  <defs
     id="defs4">
    <linearGradient
       id="linearGradient5482">
      <stop
         style="stop-color:#ff0000;stop-opacity:1"
         offset="0"
         id="stop5486" />
      <stop
         style="stop-color:#890000;stop-opacity:1"
         offset="1"
         id="stop5484" />
    </linearGradient>
    <linearGradient
       id="linearGradient5103"
       osb:paint="solid">
      <stop
         style="stop-color:#000000;stop-opacity:1;"
         offset="0"
         id="stop5105" />
    </linearGradient>
    <linearGradient
       xlink:href="#linearGradient5482"
       id="linearGradient4151"
       x1="23.389832"
       y1="41.898304"
       x2="23.389832"
       y2="-6.711864"
       gradientUnits="userSpaceOnUse"
       gradientTransform="matrix(0.86829213,0,0,0.86829213,2.8077857,8.6356446)" />
    <linearGradient
       xlink:href="#linearGradient5482"
       id="linearGradient4151-2"
       x1="23.389832"
       y1="41.898304"
       x2="23.389832"
       y2="-6.711864"
       gradientUnits="userSpaceOnUse"
       gradientTransform="matrix(0.89912648,0,0,0.89912648,2.0552185,8.0900332)" />
    <filter
       height="1.144"
       y="-0.072"
       width="1.144"
       x="-0.072"
       id="filter4600"
       style="color-interpolation-filters:sRGB">
      <feGaussianBlur
         id="feGaussianBlur4602"
         stdDeviation="1.3057031" />
    </filter>
  </defs>
  <metadata
     id="metadata7">
    <rdf:RDF>
      <cc:Work
         rdf:about="">
        <dc:format>image/svg+xml</dc:format>
        <dc:type
           rdf:resource="http://purl.org/dc/dcmitype/StillImage" />
        <dc:title></dc:title>
      </cc:Work>
    </rdf:RDF>
  </metadata>
  <path
     transform="matrix(0.96570633,0,0,0.96570633,0.82304817,0.82304817)"
     id="path4143-0"
     d="M 24,2.238281 A 21.761908,21.761908 0 0 0 2.2382812,24 21.761908,21.761908 0 0 0 24,45.761719 21.761908,21.761908 0 0 0 45.761719,24 21.761908,21.761908 0 0 0 24,2.238281 Z m 0,6.9238282 A 14.837007,14.837007 0 0 1 38.837891,24 14.837007,14.837007 0 0 1 36.896484,31.314453 L 16.691406,11.109375 A 14.837007,14.837007 0 0 1 24,9.1621092 Z M 11.103516,16.685547 31.308594,36.890625 A 14.837007,14.837007 0 0 1 24,38.837891 14.837007,14.837007 0 0 1 9.1621094,24 14.837007,14.837007 0 0 1 11.103516,16.685547 Z"
     style="opacity:1;fill:#0d0000;fill-opacity:1;stroke:none;stroke-width:1.06996047;stroke-linecap:round;stroke-linejoin:miter;stroke-miterlimit:4;stroke-dasharray:none;stroke-opacity:1;filter:url(#filter4600)" />
  <path
     id="path4143"
     d="M 24,2.9845705 A 21.015612,21.015612 0 0 0 2.9845705,24 21.015612,21.015612 0 0 0 24,45.01543 21.015612,21.015612 0 0 0 45.01543,24 21.015612,21.015612 0 0 0 24,2.9845705 Z m 0,6.6863847 A 14.328192,14.328192 0 0 1 38.329045,24 14.328192,14.328192 0 0 1 36.454216,31.063614 L 16.942045,11.551442 A 14.328192,14.328192 0 0 1 24,9.6709552 Z M 11.545784,16.936386 31.057956,36.448558 A 14.328192,14.328192 0 0 1 24,38.329045 14.328192,14.328192 0 0 1 9.6709552,24 14.328192,14.328192 0 0 1 11.545784,16.936386 Z"
     style="opacity:1;fill:url(#linearGradient4151);fill-opacity:1;stroke:none;stroke-width:1.03326762;stroke-linecap:round;stroke-linejoin:miter;stroke-miterlimit:4;stroke-dasharray:none;stroke-opacity:1" />
</svg>
