<?xml version="1.0" encoding="UTF-8" standalone="no"?>
<svg
   xmlns:dc="http://purl.org/dc/elements/1.1/"
   xmlns:cc="http://creativecommons.org/ns#"
   xmlns:rdf="http://www.w3.org/1999/02/22-rdf-syntax-ns#"
   xmlns:svg="http://www.w3.org/2000/svg"
   xmlns="http://www.w3.org/2000/svg"
   xmlns:xlink="http://www.w3.org/1999/xlink"
   xmlns:sodipodi="http://sodipodi.sourceforge.net/DTD/sodipodi-0.dtd"
   xmlns:inkscape="http://www.inkscape.org/namespaces/inkscape"
   height="100%"
   width="100%"
   version="1.1"
   id="svg2"
   viewBox="0,0,48,48"
   inkscape:version="0.91 r13725"
   sodipodi:docname="message.svg">
  <sodipodi:namedview
     pagecolor="#ffffff"
     bordercolor="#666666"
     borderopacity="1"
     objecttolerance="10"
     gridtolerance="10"
     guidetolerance="10"
     inkscape:pageopacity="0"
     inkscape:pageshadow="2"
     inkscape:window-width="1280"
     inkscape:window-height="790"
     id="namedview31"
     showgrid="false"
     inkscape:zoom="4.9166667"
     inkscape:cx="-4.3728814"
     inkscape:cy="24"
     inkscape:window-x="-8"
     inkscape:window-y="-8"
     inkscape:window-maximized="1"
     inkscape:current-layer="svg2" />
  <defs
     id="defs4">
    <linearGradient
       id="linearGradient4271">
      <stop
         style="stop-color:#ffb900;stop-opacity:1"
         offset="0"
         id="stop4273" />
      <stop
         style="stop-color:#ffe49d;stop-opacity:1"
         offset="1"
         id="stop4275" />
    </linearGradient>
    <linearGradient
       id="linearGradient4200">
      <stop
         style="stop-color:#ffffff;stop-opacity:1"
         offset="0"
         id="stop4202" />
      <stop
         style="stop-color:#ffffff;stop-opacity:0"
         offset="1"
         id="stop4204" />
    </linearGradient>
    <linearGradient
       id="linearGradient4166">
      <stop
         id="stop4168"
         offset="0"
         style="stop-color:#00dd60;stop-opacity:1" />
      <stop
         id="stop4170"
         offset="1"
         style="stop-color:#00a548;stop-opacity:1" />
    </linearGradient>
    <radialGradient
       gradientUnits="userSpaceOnUse"
       gradientTransform="matrix(1.2260182,0,0,1.2388234,-5.2798004,-11.206745)"
       r="17.724609"
       fy="35.043339"
       fx="22.853159"
       cy="35.043339"
       cx="22.853159"
       id="radialGradient4172"
       xlink:href="#linearGradient4166" />
    <linearGradient
       gradientTransform="matrix(0.94588108,0,0,0.98232236,1.2604564,18.20968)"
       gradientUnits="userSpaceOnUse"
       y2="1032.1177"
       x2="23.658396"
       y1="1007.8682"
       x1="23.658396"
       id="linearGradient4198"
       xlink:href="#linearGradient4200" />
    <radialGradient
       gradientUnits="userSpaceOnUse"
       gradientTransform="matrix(1.2260182,0,0,1.2388234,-11.77082,1010.9712)"
       r="17.724609"
       fy="35.043339"
       fx="22.853159"
       cy="35.043339"
       cx="22.853159"
       id="radialGradient4172-3"
       xlink:href="#linearGradient4271" />
    <linearGradient
       gradientTransform="matrix(0.94588108,0,0,0.98232236,-5.2305629,36.025461)"
       gradientUnits="userSpaceOnUse"
       y2="1033.7083"
       x2="23.658396"
       y1="1013.0377"
       x1="23.658396"
       id="linearGradient4198-8"
       xlink:href="#linearGradient4200" />
    <filter
       height="1.1377856"
       y="-0.068892786"
       width="1.1062811"
       x="-0.053140538"
       id="filter4327"
       style="color-interpolation-filters:sRGB">
      <feGaussianBlur
         id="feGaussianBlur4329"
         stdDeviation="0.78491274" />
    </filter>
    <filter
       height="1.1102285"
       y="-0.055114229"
       width="1.0850249"
       x="-0.042512431"
       id="filter4403"
       style="color-interpolation-filters:sRGB">
      <feGaussianBlur
         id="feGaussianBlur4405"
         stdDeviation="0.62793019" />
    </filter>
  </defs>
  <metadata
     id="metadata7">
    <rdf:RDF>
      <cc:Work
         rdf:about="">
        <dc:format>image/svg+xml</dc:format>
        <dc:type
           rdf:resource="http://purl.org/dc/dcmitype/StillImage" />
        <dc:title />
      </cc:Work>
    </rdf:RDF>
  </metadata>
  <g
     id="g4414"
     transform="matrix(1.2218247,0,0,1.3711148,-4.4575405,-1385.7028)">
    <path
       inkscape:connector-curvature="0"
       id="path4161-9"
       d="m 23.291016,1014.4716 a 17.724609,12.304688 0 0 0 -17.7246098,12.3047 17.724609,12.304688 0 0 0 17.7246098,12.3047 17.724609,12.304688 0 0 0 6.085937,-0.7578 c 3.549367,3.4803 8.611328,3.4922 8.611328,3.4922 -5.294229,-3.1856 -2.499853,-6.0239 -2.015625,-6.461 a 17.724609,12.304688 0 0 0 5.042969,-8.5781 17.724609,12.304688 0 0 0 -17.724609,-12.3047 z"
       style="opacity:1;fill:#000000;fill-opacity:1;fill-rule:nonzero;stroke:none;stroke-width:1;stroke-linecap:round;stroke-linejoin:miter;stroke-miterlimit:4;stroke-dasharray:none;stroke-opacity:1;filter:url(#filter4403)" />
    <path
       inkscape:connector-curvature="0"
       id="path4161"
       transform="translate(0,1004.3622)"
       d="M 23.291016,10.109375 A 17.724609,12.304688 0 0 0 5.5664062,22.414062 17.724609,12.304688 0 0 0 23.291016,34.71875 17.724609,12.304688 0 0 0 29.376953,33.960938 c 3.549367,3.480288 8.611328,3.492187 8.611328,3.492187 -5.294229,-3.185552 -2.499853,-6.023839 -2.015625,-6.460937 A 17.724609,12.304688 0 0 0 41.015625,22.414062 17.724609,12.304688 0 0 0 23.291016,10.109375 Z"
       style="opacity:1;fill:url(#radialGradient4172);fill-opacity:1;fill-rule:nonzero;stroke:none;stroke-width:1;stroke-linecap:round;stroke-linejoin:miter;stroke-miterlimit:4;stroke-dasharray:none;stroke-opacity:1" />
    <path
       inkscape:connector-curvature="0"
       id="path4161-2"
       d="m 23.290988,1014.747 a 16.765372,12.08717 0 0 0 -16.7395127,11.539 24.330032,12.08717 0 0 0 16.7395127,3.3223 24.330032,12.08717 0 0 0 16.725897,-3.3301 16.765372,12.08717 0 0 0 -16.725897,-11.5312 z"
       style="opacity:1;fill:url(#linearGradient4198);fill-opacity:1;fill-rule:nonzero;stroke:none;stroke-width:1;stroke-linecap:round;stroke-linejoin:miter;stroke-miterlimit:4;stroke-dasharray:none;stroke-opacity:1" />
  </g>
</svg>
