<?xml version="1.0" encoding="UTF-8" standalone="no"?>
<svg
   xmlns:dc="http://purl.org/dc/elements/1.1/"
   xmlns:cc="http://creativecommons.org/ns#"
   xmlns:rdf="http://www.w3.org/1999/02/22-rdf-syntax-ns#"
   xmlns:svg="http://www.w3.org/2000/svg"
   xmlns="http://www.w3.org/2000/svg"
   xmlns:xlink="http://www.w3.org/1999/xlink"
   xmlns:sodipodi="http://sodipodi.sourceforge.net/DTD/sodipodi-0.dtd"
   xmlns:inkscape="http://www.inkscape.org/namespaces/inkscape"
   height="100%"
   width="100%"
   version="1.1"
   id="svg2"
   viewBox="0,0,48,48"
   inkscape:version="0.91 r13725"
   sodipodi:docname="options.svg">
  <sodipodi:namedview
     pagecolor="#ffffff"
     bordercolor="#666666"
     borderopacity="1"
     objecttolerance="10"
     gridtolerance="10"
     guidetolerance="10"
     inkscape:pageopacity="0"
     inkscape:pageshadow="2"
     inkscape:window-width="1280"
     inkscape:window-height="790"
     id="namedview75"
     showgrid="false"
     inkscape:zoom="9.8333333"
     inkscape:cx="6.5653461"
     inkscape:cy="17.35923"
     inkscape:window-x="-8"
     inkscape:window-y="-8"
     inkscape:window-maximized="1"
     inkscape:current-layer="layer1" />
  <defs
     id="defs4">
    <linearGradient
       id="linearGradient4275">
      <stop
         id="stop4277"
         offset="0"
         style="stop-color:#ffffff;stop-opacity:1" />
      <stop
         id="stop4279"
         offset="1"
         style="stop-color:#ffffff;stop-opacity:0" />
    </linearGradient>
    <linearGradient
       id="linearGradient5736">
      <stop
         id="stop5738"
         offset="0"
         style="stop-color:#c3c3c3;stop-opacity:1" />
      <stop
         id="stop5740"
         offset="1"
         style="stop-color:#ffffff;stop-opacity:1;" />
    </linearGradient>
    <linearGradient
       gradientUnits="userSpaceOnUse"
       y2="8.078125"
       x2="9.9570312"
       y1="41.769531"
       x1="37.976562"
       id="linearGradient5742"
       xlink:href="#linearGradient5736" />
    <linearGradient
       gradientUnits="userSpaceOnUse"
       y2="1019.0466"
       x2="29.488289"
       y1="1012.6989"
       x1="36.402351"
       id="linearGradient5796-6"
       xlink:href="#linearGradient5736-8" />
    <linearGradient
       id="linearGradient5736-8">
      <stop
         id="stop5738-9"
         offset="0"
         style="stop-color:#c3c3c3;stop-opacity:1" />
      <stop
         id="stop5740-8"
         offset="1"
         style="stop-color:#ffffff;stop-opacity:1;" />
    </linearGradient>
    <linearGradient
       gradientUnits="userSpaceOnUse"
       y2="8.078125"
       x2="9.9570312"
       y1="41.769531"
       x1="37.976562"
       id="linearGradient5742-5"
       xlink:href="#linearGradient5736-5" />
    <linearGradient
       id="linearGradient5736-5">
      <stop
         id="stop5738-8"
         offset="0"
         style="stop-color:#c3c3c3;stop-opacity:1" />
      <stop
         id="stop5740-4"
         offset="1"
         style="stop-color:#ffffff;stop-opacity:1;" />
    </linearGradient>
    <filter
       id="filter4209"
       style="color-interpolation-filters:sRGB;">
      <feMorphology
         id="feMorphology4211"
         result="result91"
         in="SourceAlpha"
         radius="4.3" />
      <feComposite
         id="feComposite4213"
         in2="result91"
         in="SourceGraphic"
         operator="out" />
      <feGaussianBlur
         id="feGaussianBlur4215"
         stdDeviation="1.2"
         result="result0" />
      <feDiffuseLighting
         id="feDiffuseLighting4217"
         diffuseConstant="1">
        <feDistantLight
           id="feDistantLight4219"
           azimuth="225"
           elevation="66" />
      </feDiffuseLighting>
      <feBlend
         id="feBlend4221"
         in2="SourceGraphic"
         mode="multiply" />
      <feComposite
         id="feComposite4223"
         in2="SourceAlpha"
         operator="in" />
    </filter>
    <filter
       id="filter4209-6"
       style="color-interpolation-filters:sRGB">
      <feMorphology
         id="feMorphology4211-7"
         result="result91"
         in="SourceAlpha"
         radius="4.3" />
      <feComposite
         id="feComposite4213-0"
         in2="result91"
         in="SourceGraphic"
         operator="out" />
      <feGaussianBlur
         id="feGaussianBlur4215-9"
         stdDeviation="1.2"
         result="result0" />
      <feDiffuseLighting
         id="feDiffuseLighting4217-3"
         diffuseConstant="1">
        <feDistantLight
           id="feDistantLight4219-8"
           azimuth="225"
           elevation="66" />
      </feDiffuseLighting>
      <feBlend
         id="feBlend4221-5"
         in2="SourceGraphic"
         mode="multiply" />
      <feComposite
         id="feComposite4223-0"
         in2="SourceAlpha"
         operator="in" />
    </filter>
    <linearGradient
       gradientTransform="matrix(0.70833175,0,0,0.70948605,12.050482,1016.4365)"
       gradientUnits="userSpaceOnUse"
       y2="34.839916"
       x2="23.36586"
       y1="-14.574146"
       x1="23.36586"
       id="linearGradient4281"
       xlink:href="#linearGradient4275" />
    <filter
       id="filter4209-5"
       style="color-interpolation-filters:sRGB">
      <feMorphology
         id="feMorphology4211-0"
         result="result91"
         in="SourceAlpha"
         radius="4.3" />
      <feComposite
         id="feComposite4213-8"
         in2="result91"
         in="SourceGraphic"
         operator="out" />
      <feGaussianBlur
         id="feGaussianBlur4215-4"
         stdDeviation="1.2"
         result="result0" />
      <feDiffuseLighting
         id="feDiffuseLighting4217-8"
         diffuseConstant="1">
        <feDistantLight
           id="feDistantLight4219-2"
           azimuth="225"
           elevation="66" />
      </feDiffuseLighting>
      <feBlend
         id="feBlend4221-1"
         in2="SourceGraphic"
         mode="multiply" />
      <feComposite
         id="feComposite4223-7"
         in2="SourceAlpha"
         operator="in" />
    </filter>
    <linearGradient
       gradientTransform="matrix(0.57138189,0,0,0.57229835,2.8667094,1007.114)"
       gradientUnits="userSpaceOnUse"
       y2="34.839916"
       x2="23.36586"
       y1="-14.574146"
       x1="23.36586"
       id="linearGradient4281-0"
       xlink:href="#linearGradient4275" />
    <filter
       id="filter4209-0"
       style="color-interpolation-filters:sRGB">
      <feMorphology
         id="feMorphology4211-2"
         result="result91"
         in="SourceAlpha"
         radius="4.3" />
      <feComposite
         id="feComposite4213-7"
         in2="result91"
         in="SourceGraphic"
         operator="out" />
      <feGaussianBlur
         id="feGaussianBlur4215-2"
         stdDeviation="1.2"
         result="result0" />
      <feDiffuseLighting
         id="feDiffuseLighting4217-4"
         diffuseConstant="1">
        <feDistantLight
           id="feDistantLight4219-7"
           azimuth="225"
           elevation="66" />
      </feDiffuseLighting>
      <feBlend
         id="feBlend4221-2"
         in2="SourceGraphic"
         mode="multiply" />
      <feComposite
         id="feComposite4223-4"
         in2="SourceAlpha"
         operator="in" />
    </filter>
    <filter
       height="1.1192794"
       y="-0.059639719"
       width="1.1207306"
       x="-0.060365299"
       id="filter4443"
       style="color-interpolation-filters:sRGB">
      <feGaussianBlur
         id="feGaussianBlur4445"
         stdDeviation="0.87194448" />
    </filter>
    <filter
       id="filter4209-5-8"
       style="color-interpolation-filters:sRGB">
      <feMorphology
         id="feMorphology4211-0-5"
         result="result91"
         in="SourceAlpha"
         radius="4.3" />
      <feComposite
         id="feComposite4213-8-9"
         in2="result91"
         in="SourceGraphic"
         operator="out" />
      <feGaussianBlur
         id="feGaussianBlur4215-4-3"
         stdDeviation="1.2"
         result="result0" />
      <feDiffuseLighting
         id="feDiffuseLighting4217-8-3"
         diffuseConstant="1">
        <feDistantLight
           id="feDistantLight4219-2-0"
           azimuth="225"
           elevation="66" />
      </feDiffuseLighting>
      <feBlend
         id="feBlend4221-1-9"
         in2="SourceGraphic"
         mode="multiply" />
      <feComposite
         id="feComposite4223-7-9"
         in2="SourceAlpha"
         operator="in" />
    </filter>
    <filter
       height="1.1192794"
       y="-0.059639713"
       width="1.1207306"
       x="-0.060365294"
       id="filter4509"
       style="color-interpolation-filters:sRGB">
      <feGaussianBlur
         id="feGaussianBlur4511"
         stdDeviation="0.8719444" />
    </filter>
  </defs>
  <metadata
     id="metadata7">
    <rdf:RDF>
      <cc:Work
         rdf:about="">
        <dc:format>image/svg+xml</dc:format>
        <dc:type
           rdf:resource="http://purl.org/dc/dcmitype/StillImage" />
        <dc:title />
      </cc:Work>
    </rdf:RDF>
  </metadata>
  <g
     transform="translate(0,-1004.3622)"
     id="layer1">
    <g
       id="g4513">
      <path
         style="fill:#000000;fill-opacity:1;fill-rule:evenodd;stroke:none;stroke-width:1px;stroke-linecap:butt;stroke-linejoin:miter;stroke-opacity:1;filter:url(#filter4509)"
         d="m 25.197265,1010.819 c -2.854298,0.075 -0.516242,3.3557 -4.052735,4.1075 -3.772259,0.8018 -2.609362,-3.7447 -5.949219,-1.8165 -3.339856,1.9283 1.176228,3.1946 -1.404296,6.0606 -2.580526,2.866 -4.3103131,-1.4938 -5.8789071,2.0293 -1.5685939,3.5231 2.8288991,1.8911 2.4257821,5.7266 -0.4031187,3.8354 -4.3662722,1.3254 -3.564454,5.0976 0.8018181,3.7723 3.401812,-0.1328 5.330079,3.207 1.928267,3.3399 -2.7526828,3.6383 0.113281,6.2188 2.865963,2.5805 2.672194,-2.1077 6.195312,-0.5391 3.52312,1.5686 -0.08931,4.5618 3.746094,4.9649 3.835407,0.4031 0.925007,-3.2763 4.697266,-4.0782 3.772259,-0.8018 2.609362,3.7447 5.949219,1.8165 3.339856,-1.9283 -1.176228,-3.1946 1.404296,-6.0606 2.580526,-2.866 4.310313,1.4938 5.878907,-2.0293 1.568593,-3.5231 -2.828899,-1.8911 -2.425782,-5.7266 0.403118,-3.8354 4.366272,-1.3253 3.564453,-5.0976 -0.801818,-3.7723 -3.401811,0.1328 -5.330078,-3.207 -1.928267,-3.3399 2.752682,-3.6383 -0.113281,-6.2188 -2.865963,-2.5805 -2.672194,2.1077 -6.195312,0.5391 -3.52312,-1.5686 0.08931,-4.5618 -3.746094,-4.9649 -0.239713,-0.025 -0.454245,-0.034 -0.644531,-0.029 z m -1.197266,9.6328 a 7.9101562,7.9101562 0 0 1 7.910156,7.9102 7.9101562,7.9101562 0 0 1 -7.910156,7.9102 7.9101562,7.9101562 0 0 1 -7.910156,-7.9102 7.9101562,7.9101562 0 0 1 7.910156,-7.9102 z"
         id="path4155-5-5"
         transform="matrix(0.57138189,0,0,0.57229835,2.8667094,432.3192)" />
      <path
         style="fill:#a0a0a0;fill-opacity:1;fill-rule:evenodd;stroke:none;stroke-width:1px;stroke-linecap:butt;stroke-linejoin:miter;stroke-opacity:1;"
         d="m 25.197265,1010.819 c -2.854298,0.075 -0.516242,3.3557 -4.052735,4.1075 -3.772259,0.8018 -2.609362,-3.7447 -5.949219,-1.8165 -3.339856,1.9283 1.176228,3.1946 -1.404296,6.0606 -2.580526,2.866 -4.3103131,-1.4938 -5.8789071,2.0293 -1.5685939,3.5231 2.8288991,1.8911 2.4257821,5.7266 -0.4031187,3.8354 -4.3662722,1.3254 -3.564454,5.0976 0.8018181,3.7723 3.401812,-0.1328 5.330079,3.207 1.928267,3.3399 -2.7526828,3.6383 0.113281,6.2188 2.865963,2.5805 2.672194,-2.1077 6.195312,-0.5391 3.52312,1.5686 -0.08931,4.5618 3.746094,4.9649 3.835407,0.4031 0.925007,-3.2763 4.697266,-4.0782 3.772259,-0.8018 2.609362,3.7447 5.949219,1.8165 3.339856,-1.9283 -1.176228,-3.1946 1.404296,-6.0606 2.580526,-2.866 4.310313,1.4938 5.878907,-2.0293 1.568593,-3.5231 -2.828899,-1.8911 -2.425782,-5.7266 0.403118,-3.8354 4.366272,-1.3253 3.564453,-5.0976 -0.801818,-3.7723 -3.401811,0.1328 -5.330078,-3.207 -1.928267,-3.3399 2.752682,-3.6383 -0.113281,-6.2188 -2.865963,-2.5805 -2.672194,2.1077 -6.195312,0.5391 -3.52312,-1.5686 0.08931,-4.5618 -3.746094,-4.9649 -0.239713,-0.025 -0.454245,-0.034 -0.644531,-0.029 z m -1.197266,9.6328 a 7.9101562,7.9101562 0 0 1 7.910156,7.9102 7.9101562,7.9101562 0 0 1 -7.910156,7.9102 7.9101562,7.9101562 0 0 1 -7.910156,-7.9102 7.9101562,7.9101562 0 0 1 7.910156,-7.9102 z"
         id="path4155-5"
         transform="matrix(0.57138189,0,0,0.57229835,2.8667094,432.3192)" />
      <path
         style="fill:url(#linearGradient4281-0);fill-opacity:1;stroke:none"
         d="m 17.263971,1010.8093 c -1.630894,0.043 -0.294971,1.9205 -2.31566,2.3507 -2.1554,0.4589 -1.490941,-2.143 -3.399276,-1.0395 -1.9083322,1.1036 0.672076,1.8282 -0.802389,3.4684 -1.4744656,1.6402 -2.4628344,-0.8549 -3.3591006,1.1614 -0.8962661,2.0163 1.6163815,1.0822 1.3860477,3.2773 -0.023135,0.2205 -0.071207,0.3965 -0.1305699,0.5511 a 13.838155,6.4551236 0 0 0 3.4561908,0.8159 4.51972,4.5269693 0 0 1 -0.03906,-0.5454 4.51972,4.5269693 0 0 1 4.51972,-4.527 4.51972,4.5269693 0 0 1 4.51972,4.527 4.51972,4.5269693 0 0 1 -0.03683,0.5454 13.838155,6.4551236 0 0 0 5.153597,-1.4665 c 0.231217,-0.1947 0.346003,-0.5172 0.206456,-1.1748 -0.458143,-2.1588 -1.943733,0.076 -3.04551,-1.8353 -1.101777,-1.9115 1.572833,-2.0822 -0.06473,-3.559 -1.637559,-1.4768 -1.526843,1.2062 -3.539889,0.3085 -2.013047,-0.8977 0.05103,-2.6107 -2.14045,-2.8414 -0.136968,-0.014 -0.259547,-0.02 -0.368273,-0.017 z"
         id="path4225-9" />
    </g>
    <path
       inkscape:connector-curvature="0"
       transform="matrix(0.70833175,0,0,0.70948605,12.050482,303.85557)"
       id="path4155-2"
       d="m 25.197265,1010.819 c -2.854298,0.075 -0.516242,3.3557 -4.052735,4.1075 -3.772259,0.8018 -2.609362,-3.7447 -5.949219,-1.8165 -3.339856,1.9283 1.176228,3.1946 -1.404296,6.0606 -2.580526,2.866 -4.3103131,-1.4938 -5.8789071,2.0293 -1.5685939,3.5231 2.8288991,1.8911 2.4257821,5.7266 -0.4031187,3.8354 -4.3662722,1.3254 -3.564454,5.0976 0.8018181,3.7723 3.401812,-0.1328 5.330079,3.207 1.928267,3.3399 -2.7526828,3.6383 0.113281,6.2188 2.865963,2.5805 2.672194,-2.1077 6.195312,-0.5391 3.52312,1.5686 -0.08931,4.5618 3.746094,4.9649 3.835407,0.4031 0.925007,-3.2763 4.697266,-4.0782 3.772259,-0.8018 2.609362,3.7447 5.949219,1.8165 3.339856,-1.9283 -1.176228,-3.1946 1.404296,-6.0606 2.580526,-2.866 4.310313,1.4938 5.878907,-2.0293 1.568593,-3.5231 -2.828899,-1.8911 -2.425782,-5.7266 0.403118,-3.8354 4.366272,-1.3253 3.564453,-5.0976 -0.801818,-3.7723 -3.401811,0.1328 -5.330078,-3.207 -1.928267,-3.3399 2.752682,-3.6383 -0.113281,-6.2188 -2.865963,-2.5805 -2.672194,2.1077 -6.195312,0.5391 -3.52312,-1.5686 0.08931,-4.5618 -3.746094,-4.9649 -0.239713,-0.025 -0.454245,-0.034 -0.644531,-0.029 z m -1.197266,9.6328 a 7.9101562,7.9101562 0 0 1 7.910156,7.9102 7.9101562,7.9101562 0 0 1 -7.910156,7.9102 7.9101562,7.9101562 0 0 1 -7.910156,-7.9102 7.9101562,7.9101562 0 0 1 7.910156,-7.9102 z"
       style="fill:#000000;fill-opacity:1;fill-rule:evenodd;stroke:none;stroke-width:1px;stroke-linecap:butt;stroke-linejoin:miter;stroke-opacity:1;filter:url(#filter4443)" />
    <path
       inkscape:connector-curvature="0"
       id="path4155"
       d="m 29.898505,1021.0175 c -2.02179,0.053 -0.365671,2.3809 -2.870681,2.9143 -2.672011,0.5688 -1.848294,-2.6568 -4.214021,-1.2888 -2.365726,1.3681 0.83316,2.2665 -0.994707,4.2999 -1.827869,2.0334 -3.053132,-1.0598 -4.164217,1.4398 -1.111085,2.4995 2.003799,1.3417 1.718259,4.0629 -0.285542,2.7212 -3.09277,0.9403 -2.524816,3.6167 0.567953,2.6764 2.409611,-0.094 3.775464,2.2753 1.365853,2.3696 -1.949813,2.5813 0.08024,4.4121 2.030053,1.8309 1.8928,-1.4953 4.388337,-0.3824 2.495537,1.1129 -0.06326,3.2365 2.653477,3.5225 2.716741,0.286 0.655212,-2.3245 3.327223,-2.8934 2.67201,-0.5689 1.848294,2.6568 4.21402,1.2887 2.365726,-1.3681 -0.833159,-2.2665 0.994708,-4.2999 1.827868,-2.0334 3.053131,1.0599 4.164216,-1.4397 1.111085,-2.4996 -2.003799,-1.3417 -1.718258,-4.063 0.285541,-2.7211 3.092769,-0.9403 2.524815,-3.6166 -0.567953,-2.6764 -2.409611,0.094 -3.775463,-2.2754 -1.365853,-2.3696 1.949812,-2.5813 -0.08024,-4.4121 -2.030052,-1.8308 -1.8928,1.4954 -4.388336,0.3825 -2.495538,-1.1129 0.06326,-3.2366 -2.653477,-3.5226 -0.169797,-0.018 -0.321757,-0.024 -0.456542,-0.021 z m -0.848062,6.8344 a 5.6030148,5.6121455 0 0 1 5.603015,5.6122 5.6030148,5.6121455 0 0 1 -5.603015,5.6121 5.6030148,5.6121455 0 0 1 -5.603014,-5.6121 5.6030148,5.6121455 0 0 1 5.603014,-5.6122 z"
       style="fill:#b6ad4a;fill-opacity:1;fill-rule:evenodd;stroke:none;stroke-width:1px;stroke-linecap:butt;stroke-linejoin:miter;stroke-opacity:1" />
    <path
       inkscape:connector-curvature="0"
       id="path4225"
       d="m 29.898506,1021.0177 c -2.02179,0.053 -0.365671,2.3807 -2.870681,2.9141 -2.672011,0.5689 -1.848294,-2.6567 -4.214021,-1.2887 -2.365725,1.3681 0.83316,2.2665 -0.994708,4.2999 -1.827868,2.0334 -3.053131,-1.0598 -4.164216,1.4397 -1.111085,2.4996 2.003799,1.3417 1.718258,4.063 -0.02868,0.2733 -0.08827,0.4916 -0.161865,0.6831 a 17.15491,8.0025046 0 0 0 4.284577,1.0116 5.6030148,5.6121455 0 0 1 -0.04842,-0.6762 5.6030148,5.6121455 0 0 1 5.603015,-5.6122 5.6030148,5.6121455 0 0 1 5.603015,5.6122 5.6030148,5.6121455 0 0 1 -0.04565,0.6762 17.15491,8.0025046 0 0 0 6.38882,-1.8181 c 0.286636,-0.2413 0.428934,-0.6411 0.25594,-1.4564 -0.567952,-2.6763 -2.409611,0.094 -3.775464,-2.2753 -1.365852,-2.3696 1.949813,-2.5813 -0.08024,-4.4121 -2.030053,-1.8308 -1.8928,1.4953 -4.388336,0.3824 -2.495538,-1.1129 0.06326,-3.2364 -2.653478,-3.5224 -0.169796,-0.018 -0.321756,-0.024 -0.456541,-0.021 z"
       style="fill:url(#linearGradient4281);fill-opacity:1;stroke:none" />
  </g>
</svg>
