<?xml version="1.0" encoding="UTF-8" standalone="no"?>
<svg
   xmlns:dc="http://purl.org/dc/elements/1.1/"
   xmlns:cc="http://creativecommons.org/ns#"
   xmlns:rdf="http://www.w3.org/1999/02/22-rdf-syntax-ns#"
   xmlns:svg="http://www.w3.org/2000/svg"
   xmlns="http://www.w3.org/2000/svg"
   xmlns:xlink="http://www.w3.org/1999/xlink"
   viewBox="0,0,48,48"
   id="svg2"
   version="1.1"
   width="100%"
   height="100%">
  <defs
     id="defs4">
    <linearGradient
       id="linearGradient4724">
      <stop
         id="stop4720"
         offset="0"
         style="stop-color:#acacac;stop-opacity:1;" />
      <stop
         style="stop-color:#d8d8d8;stop-opacity:1"
         offset="0.67272741"
         id="stop4728" />
      <stop
         id="stop4722"
         offset="1"
         style="stop-color:#acacac;stop-opacity:1" />
    </linearGradient>
    <linearGradient
       id="linearGradient4676">
      <stop
         id="stop4672"
         offset="0"
         style="stop-color:#18669e;stop-opacity:1;" />
      <stop
         style="stop-color:#449fe2;stop-opacity:1"
         offset="0.6094839"
         id="stop4680" />
      <stop
         id="stop4674"
         offset="1"
         style="stop-color:#18669e;stop-opacity:1" />
    </linearGradient>
    <linearGradient
       gradientTransform="matrix(1.4550056,-0.08187728,0.08187728,1.4550056,-15.46033,-10.940972)"
       gradientUnits="userSpaceOnUse"
       y2="16.505928"
       x2="23.241106"
       y1="25.70751"
       x1="32.06324"
       id="linearGradient4678"
       xlink:href="#linearGradient4676" />
    <linearGradient
       gradientTransform="matrix(1.4573075,0,0,1.4573075,-15.136417,-13.938102)"
       gradientUnits="userSpaceOnUse"
       y2="8.347826"
       x2="24"
       y1="21.818182"
       x1="38.703556"
       id="linearGradient4688"
       xlink:href="#linearGradient4676" />
    <radialGradient
       gradientUnits="userSpaceOnUse"
       gradientTransform="matrix(0.00751104,-1.4572881,4.0914963,0.02108805,68.410722,40.659552)"
       r="6.2608695"
       fy="-6.9327617"
       fx="37.84486"
       cy="-6.9327617"
       cx="37.84486"
       id="radialGradient4698"
       xlink:href="#linearGradient4676" />
    <radialGradient
       gradientUnits="userSpaceOnUse"
       gradientTransform="matrix(1.8942335,-1.548467,2.1558897,2.6372913,-101.11893,-9.2493514)"
       r="7.4096036"
       fy="33.222836"
       fx="26.910044"
       cy="33.222836"
       cx="26.910044"
       id="radialGradient4708"
       xlink:href="#linearGradient4676" />
    <linearGradient
       gradientTransform="matrix(1.4573075,0,0,1.4573075,-15.136417,-13.938102)"
       gradientUnits="userSpaceOnUse"
       y2="34.482212"
       x2="17.312252"
       y1="36.52174"
       x1="19.636364"
       id="linearGradient4726"
       xlink:href="#linearGradient4724" />
    <filter
       height="1.1583414"
       y="-0.079170702"
       width="1.1789135"
       x="-0.08945673"
       id="filter4877"
       style="color-interpolation-filters:sRGB">
      <feGaussianBlur
         id="feGaussianBlur4879"
         stdDeviation="0.93337497" />
    </filter>
  </defs>
  <metadata
     id="metadata7">
    <rdf:RDF>
      <cc:Work
         rdf:about="">
        <dc:format>image/svg+xml</dc:format>
        <dc:type
           rdf:resource="http://purl.org/dc/dcmitype/StillImage" />
        <dc:title></dc:title>
      </cc:Work>
    </rdf:RDF>
  </metadata>
  <path
     transform="matrix(1.4573075,0,0,1.4573075,-10.975602,-10.975296)"
     id="path4655-2-0"
     d="m 28.033203,9.8535156 a 6.2608695,2.9881425 39.748701 0 0 -1.505859,0.6113284 6.2608695,2.9881425 39.748701 0 0 -0.134766,0.199218 6.2608695,2.9881425 39.748701 0 0 -0.126953,0.277344 6.2608695,2.9881425 39.748701 0 0 -0.0059,0.02344 6.2608695,2.9881425 39.748701 0 0 -0.06836,0.285156 6.2608695,2.9881425 39.748701 0 0 -0.0059,0.05273 6.2608695,2.9881425 39.748701 0 0 0.0059,0.667969 6.2608695,2.9881425 39.748701 0 0 0.01563,0.08594 6.2608695,2.9881425 39.748701 0 0 0.06445,0.324218 6.2608695,2.9881425 39.748701 0 0 0.128907,0.421875 6.2608695,2.9881425 39.748701 0 0 0.179687,0.4375 6.2608695,2.9881425 39.748701 0 0 0.207031,0.419922 l -7.208984,7.898438 c -3.813652,-1.588971 -6.539048,0.989588 -6.773437,1.457031 -0.280532,0.559459 1.372038,3.361827 4.691406,6.341797 l -4.828125,5.804687 c -0.60047,0.72202 -1.362717,2.791895 -1.152344,2.966797 0.210347,0.174935 2.106558,-0.95181 2.707031,-1.673828 l 4.822266,-5.798828 c 3.619463,2.83416 6.782679,3.998198 7.291016,3.613281 0.418043,-0.316545 2.465582,-3.481675 0.177734,-6.953125 l 6.279297,-8.578125 a 6.2608695,2.9881425 39.748701 0 0 0.146484,0.04883 6.2608695,2.9881425 39.748701 0 0 0.126953,0.03906 6.2608695,2.9881425 39.748701 0 0 0.363282,0.103516 6.2608695,2.9881425 39.748701 0 0 0.134765,0.0293 6.2608695,2.9881425 39.748701 0 0 0.308594,0.0625 6.2608695,2.9881425 39.748701 0 0 0.154297,0.01953 6.2608695,2.9881425 39.748701 0 0 0.30664,0.0332 6.2608695,2.9881425 39.748701 0 0 0.08008,0.002 6.2608695,2.9881425 39.748701 0 0 0.326172,0 6.2608695,2.9881425 39.748701 0 0 0.08203,-0.0078 6.2608695,2.9881425 39.748701 0 0 0.291015,-0.03516 6.2608695,2.9881425 39.748701 0 0 0.07031,-0.01758 6.2608695,2.9881425 39.748701 0 0 0.265625,-0.07227 6.2608695,2.9881425 39.748701 0 0 0.06836,-0.0293 6.2608695,2.9881425 39.748701 0 0 0.21875,-0.101562 6.2608695,2.9881425 39.748701 0 0 0.07813,-0.05078 6.2608695,2.9881425 39.748701 0 0 0.160156,-0.113281 6.2608695,2.9881425 39.748701 0 0 0.0039,-0.002 6.2608695,2.9881425 39.748701 0 0 0.177734,-0.173828 6.2608695,2.9881425 39.748701 0 0 -2.904297,-6.300781 6.2608695,2.9881425 39.748701 0 0 -5.21875,-2.3183594 z"
     style="fill:#1b0000;fill-opacity:1;stroke:none;stroke-width:0.5;stroke-linecap:butt;stroke-linejoin:miter;stroke-miterlimit:4;stroke-dasharray:none;stroke-opacity:1;filter:url(#filter4877)" />
  <path
     id="path4655-2"
     d="M 18.564065,31.553693 9.7508708,42.150895 C 8.875797,43.203097 6.1114158,44.845427 5.8048755,44.590493 5.4982974,44.335607 6.6092554,41.318121 7.4843248,40.265915 l 8.8131942,-10.5972 z"
     style="fill:url(#linearGradient4726);fill-opacity:1;stroke:none;stroke-width:0.72865373;stroke-linecap:butt;stroke-linejoin:miter;stroke-miterlimit:4;stroke-dasharray:none;stroke-opacity:1" />
  <path
     id="path4604"
     d="M 7.6854595,22.566941 C 8.12872,21.682948 14.670773,15.571633 22.881615,24.348737 33.008343,30.822126 28.191899,38.368548 27.403516,38.965516 26.615132,39.562488 21.457345,37.639076 15.765447,32.905393 10.073549,28.17171 7.2421975,23.45093 7.6854595,22.566941 Z"
     style="fill:url(#radialGradient4708);fill-opacity:1;stroke:none;stroke-width:1.6336956px;stroke-linecap:butt;stroke-linejoin:miter;stroke-opacity:1" />
  <path
     id="path4526"
     d="M 17.483665,20.521653 30.015746,6.7875588 38.585129,13.914308 27.593028,28.929131 C 23.959239,28.195575 18.840462,23.896155 17.483665,20.521653 Z"
     style="fill:url(#linearGradient4678);fill-opacity:1;stroke:none;stroke-width:1.71744359px;stroke-linecap:butt;stroke-linejoin:miter;stroke-opacity:1" />
  <ellipse
     transform="rotate(39.748701)"
     style="fill:url(#radialGradient4698);fill-opacity:1;stroke-width:1.5188241"
     ry="4.3546424"
     rx="9.124012"
     cy="-14.414541"
     cx="33.143124"
     id="path4524" />
  <path
     id="path4524-6"
     d="m 27.486415,4.5649375 a 9.1240121,4.3546425 39.748701 0 0 4.429022,8.8921185 9.1240121,4.3546425 39.748701 0 0 9.540999,2.740897 10.394792,4.8434038 39.748701 0 1 -8.581865,-3.894184 10.394792,4.8434038 39.748701 0 1 -5.388156,-7.7388315 z"
     style="fill:url(#linearGradient4688);fill-opacity:1;stroke-width:1.5188241" />
</svg>
