<?xml version="1.0" encoding="UTF-8" standalone="no"?>
<svg
   xmlns:dc="http://purl.org/dc/elements/1.1/"
   xmlns:cc="http://creativecommons.org/ns#"
   xmlns:rdf="http://www.w3.org/1999/02/22-rdf-syntax-ns#"
   xmlns:svg="http://www.w3.org/2000/svg"
   xmlns="http://www.w3.org/2000/svg"
   xmlns:xlink="http://www.w3.org/1999/xlink"
   height="100%"
   width="100%"
   version="1.1"
   id="svg2"
   viewBox="0,0,48,48">
  <defs
     id="defs4">
    <linearGradient
       id="linearGradient7127">
      <stop
         style="stop-color:#9c9797;stop-opacity:1"
         offset="0"
         id="stop7129" />
      <stop
         style="stop-color:#d4d4d4;stop-opacity:1"
         offset="1"
         id="stop7131" />
    </linearGradient>
    <linearGradient
       id="linearGradient7117">
      <stop
         id="stop7119"
         offset="0"
         style="stop-color:#b0b0b0;stop-opacity:1" />
      <stop
         style="stop-color:#ababab;stop-opacity:1"
         offset="0.2048409"
         id="stop7121" />
      <stop
         id="stop7123"
         offset="0.23879226"
         style="stop-color:#bdbdbd;stop-opacity:1" />
      <stop
         id="stop7125"
         offset="1"
         style="stop-color:#ebebeb;stop-opacity:1" />
    </linearGradient>
    <linearGradient
       id="linearGradient6964">
      <stop
         style="stop-color:#c3c3c3;stop-opacity:1"
         offset="0"
         id="stop6966" />
      <stop
         id="stop6970"
         offset="0.2048409"
         style="stop-color:#bcbcbc;stop-opacity:1" />
      <stop
         style="stop-color:#d2d2d2;stop-opacity:1;"
         offset="0.23879226"
         id="stop6972" />
      <stop
         style="stop-color:#ffffff;stop-opacity:1;"
         offset="1"
         id="stop6968" />
    </linearGradient>
    <linearGradient
       id="linearGradient6765">
      <stop
         id="stop6767"
         offset="0"
         style="stop-color:#868282;stop-opacity:1" />
      <stop
         id="stop6769"
         offset="1"
         style="stop-color:#cacaca;stop-opacity:1" />
    </linearGradient>
    <linearGradient
       id="linearGradient6742">
      <stop
         id="stop6744"
         offset="0"
         style="stop-color:#ffffff;stop-opacity:1" />
      <stop
         id="stop6746"
         offset="1"
         style="stop-color:#bcbcbc;stop-opacity:1" />
    </linearGradient>
    <linearGradient
       id="linearGradient5736">
      <stop
         id="stop5738"
         offset="0"
         style="stop-color:#c3c3c3;stop-opacity:1" />
      <stop
         id="stop5740"
         offset="1"
         style="stop-color:#ffffff;stop-opacity:1;" />
    </linearGradient>
    <linearGradient
       gradientUnits="userSpaceOnUse"
       y2="8.078125"
       x2="9.9570312"
       y1="41.769531"
       x1="37.976562"
       id="linearGradient5742"
       xlink:href="#linearGradient5736" />
    <linearGradient
       gradientUnits="userSpaceOnUse"
       y2="1019.0466"
       x2="29.488289"
       y1="1012.6989"
       x1="36.402351"
       id="linearGradient5796-6"
       xlink:href="#linearGradient5736-8" />
    <linearGradient
       id="linearGradient5736-8">
      <stop
         id="stop5738-9"
         offset="0"
         style="stop-color:#c3c3c3;stop-opacity:1" />
      <stop
         id="stop5740-8"
         offset="1"
         style="stop-color:#ffffff;stop-opacity:1;" />
    </linearGradient>
    <linearGradient
       gradientUnits="userSpaceOnUse"
       y2="8.078125"
       x2="9.9570312"
       y1="41.769531"
       x1="37.976562"
       id="linearGradient5742-5"
       xlink:href="#linearGradient5736-5" />
    <linearGradient
       id="linearGradient5736-5">
      <stop
         id="stop5738-8"
         offset="0"
         style="stop-color:#c3c3c3;stop-opacity:1" />
      <stop
         id="stop5740-4"
         offset="1"
         style="stop-color:#ffffff;stop-opacity:1;" />
    </linearGradient>
    <linearGradient
       gradientTransform="matrix(-0.86848213,0.86848213,-0.86848213,-0.86848213,59.849275,1024.0516)"
       gradientUnits="userSpaceOnUse"
       y2="28.800064"
       x2="22.535351"
       y1="10.425409"
       x1="39.196835"
       id="linearGradient6771"
       xlink:href="#linearGradient7127" />
    <linearGradient
       gradientTransform="matrix(-1.2280666,-0.01936319,0.01936319,-1.2280666,932.02057,1896.3222)"
       gradientUnits="userSpaceOnUse"
       y2="704.54572"
       x2="750.65802"
       y1="678.58582"
       x1="748.64105"
       id="linearGradient6779"
       xlink:href="#linearGradient6765" />
    <radialGradient
       gradientUnits="userSpaceOnUse"
       gradientTransform="matrix(1.6474917,0.03012174,-0.0956247,5.2301408,-1209.2737,-4685.4337)"
       r="4.7769251"
       fy="693.30005"
       fx="752.10498"
       cy="693.30005"
       cx="752.10498"
       id="radialGradient6783"
       xlink:href="#linearGradient6742" />
    <radialGradient
       gradientTransform="matrix(1.1666667,0,0,1.2291667,20.42489,-222.44012)"
       gradientUnits="userSpaceOnUse"
       r="4.6875"
       fy="1015.741"
       fx="0.18136157"
       cy="1015.741"
       cx="0.18136157"
       id="radialGradient941"
       xlink:href="#linearGradient6742" />
    <linearGradient
       gradientTransform="translate(19.464603,10.486924)"
       gradientUnits="userSpaceOnUse"
       y2="1006.2685"
       x2="-7.3242188"
       y1="1026.8739"
       x1="-15.136719"
       id="linearGradient1004"
       xlink:href="#linearGradient7117" />
    <filter
       height="1.168"
       y="-0.084"
       width="1.168"
       x="-0.084"
       id="filter1147"
       style="color-interpolation-filters:sRGB">
      <feGaussianBlur
         id="feGaussianBlur1149"
         stdDeviation="0.328125" />
    </filter>
    <filter
       height="1.0531657"
       y="-0.026582846"
       width="1.1114994"
       x="-0.055749714"
       id="filter1212"
       style="color-interpolation-filters:sRGB">
      <feGaussianBlur
         id="feGaussianBlur1214"
         stdDeviation="0.45583559" />
    </filter>
    <filter
       height="1.0746296"
       y="-0.037314798"
       width="1.1345203"
       x="-0.067260138"
       id="filter1260"
       style="color-interpolation-filters:sRGB">
      <feGaussianBlur
         id="feGaussianBlur1262"
         stdDeviation="0.2846295" />
    </filter>
  </defs>
  <metadata
     id="metadata7">
    <rdf:RDF>
      <cc:Work
         rdf:about="">
        <dc:format>image/svg+xml</dc:format>
        <dc:type
           rdf:resource="http://purl.org/dc/dcmitype/StillImage" />
        <dc:title></dc:title>
      </cc:Work>
    </rdf:RDF>
  </metadata>
  <g
     transform="translate(0,-1004.3622)"
     id="layer1">
    <path
       id="path980-3"
       d="m 14.191166,1018.8061 -10.1562508,4.1016 v 3.6582 2.7871 3.6582 l 10.1562508,4.1016 v -7.7598 -2.7871 z"
       style="fill:#000000;fill-opacity:1;stroke:none;stroke-width:1px;stroke-linecap:butt;stroke-linejoin:miter;stroke-opacity:1;filter:url(#filter1260)" />
    <path
       id="path6688-9"
       d="m 24.523197,1007.7847 a 6.3311539,20.580389 0.90332 0 0 -1.021484,0.2753 l -0.01172,-0.021 a 29.299716,24.955874 8.37539 0 0 -0.177734,0.1093 6.3311539,20.580389 0.90332 0 0 -0.09375,0.059 29.299716,24.955874 8.37539 0 0 -5.636719,4.2461 29.299716,24.955874 8.37539 0 0 3.96875,35.3906 29.299716,24.955874 8.37539 0 0 1.019531,0.6915 l 0.03711,-0.059 a 6.3311539,20.580389 0.90332 0 0 1.265625,0.4629 6.3311539,20.580389 0.90332 0 0 6.65625,-20.4766 6.3311539,20.580389 0.90332 0 0 -6.00586,-20.6777 z m -0.02539,1.6621 a 5.8671112,19.071945 0.90332 0 1 5.564453,19.1621 5.8671112,19.071945 0.90332 0 1 -6.166016,18.9765 5.8671112,19.071945 0.90332 0 1 -5.566406,-19.1621 5.8671112,19.071945 0.90332 0 1 6.167969,-18.9765 z"
       style="opacity:1;fill:#000000;fill-opacity:1;fill-rule:nonzero;stroke:none;stroke-width:0.26528752;stroke-linecap:square;stroke-linejoin:bevel;stroke-miterlimit:4;stroke-dasharray:none;stroke-opacity:1;filter:url(#filter1212)" />
    <path
       id="path980"
       d="m 14.191166,1018.8061 -10.1562508,4.1016 v 3.6582 2.7871 3.6582 l 10.1562508,4.1016 v -7.7598 -2.7871 z"
       style="fill:url(#linearGradient1004);fill-opacity:1;stroke:none;stroke-width:1px;stroke-linecap:butt;stroke-linejoin:miter;stroke-opacity:1" />
    <ellipse
       transform="rotate(-179.09668)"
       ry="18.585234"
       rx="5.7173839"
       cy="-1028.5226"
       cx="-40.409569"
       id="path6656"
       style="opacity:1;fill:#0dc136;fill-opacity:1;fill-rule:nonzero;stroke:none;stroke-width:0.273;stroke-linecap:square;stroke-linejoin:bevel;stroke-miterlimit:4;stroke-dasharray:none;stroke-opacity:1" />
    <ellipse
       transform="rotate(-179.09668)"
       ry="19.853283"
       rx="6.1074743"
       cy="-1028.0071"
       cx="-40.408043"
       id="path6656-4"
       style="opacity:1;fill:url(#radialGradient6783);fill-opacity:1;fill-rule:nonzero;stroke:none;stroke-width:0.28014931;stroke-linecap:square;stroke-linejoin:bevel;stroke-miterlimit:4;stroke-dasharray:none;stroke-opacity:1" />
    <circle
       r="4.6875"
       cy="1028.5164"
       cx="19.366947"
       id="path931-2"
       style="fill:#000000;fill-opacity:1;stroke:none;stroke-width:6;stroke-linecap:round;stroke-linejoin:round;stroke-miterlimit:4;stroke-dasharray:none;stroke-opacity:1;filter:url(#filter1147)" />
    <circle
       r="4.6875"
       cy="1028.5164"
       cx="19.366947"
       id="path931"
       style="fill:url(#radialGradient941);fill-opacity:1;stroke:none;stroke-width:6;stroke-linecap:round;stroke-linejoin:round;stroke-miterlimit:4;stroke-dasharray:none;stroke-opacity:1" />
    <path
       id="path6688"
       d="m 22.570712,1048.5337 0.06303,-0.1 a 6.331154,20.580389 0.903324 0 1 -4.666398,-20.1702 6.331154,20.580389 0.903324 0 1 5.548454,-20.1769 l -0.0256,-0.049 a 29.299716,24.955874 8.37539 0 0 -5.908052,4.4154 29.299716,24.955874 8.37539 0 0 3.969207,35.3906 29.299716,24.955874 8.37539 0 0 1.019429,0.6904 z"
       style="opacity:1;fill:url(#linearGradient6771);fill-opacity:1;fill-rule:nonzero;stroke:none;stroke-width:0.26528752;stroke-linecap:square;stroke-linejoin:bevel;stroke-miterlimit:4;stroke-dasharray:none;stroke-opacity:1" />
    <path
       id="path6656-4-9-8"
       d="m 24.523197,1007.7847 a 6.3311539,20.580389 0.90332 0 0 -6.65625,20.4785 6.3311539,20.580389 0.90332 0 0 6.00586,20.6758 6.3311539,20.580389 0.90332 0 0 6.65625,-20.4766 6.3311539,20.580389 0.90332 0 0 -6.00586,-20.6777 z m -0.02539,1.6621 a 5.8671112,19.071945 0.90332 0 1 5.564453,19.1621 5.8671112,19.071945 0.90332 0 1 -6.166016,18.9765 5.8671112,19.071945 0.90332 0 1 -5.566406,-19.1621 5.8671112,19.071945 0.90332 0 1 6.167969,-18.9765 z"
       style="opacity:1;fill:url(#linearGradient6779);fill-opacity:1;fill-rule:nonzero;stroke:none;stroke-width:0.26484907;stroke-linecap:square;stroke-linejoin:bevel;stroke-miterlimit:4;stroke-dasharray:none;stroke-opacity:1" />
    <path
       id="path1023"
       d="m 33.816165,1020.2206 v 0.6379 a 13.312497,11.645874 0 0 1 3.609396,7.9573 13.312497,11.645874 0 0 1 -3.609396,7.9463 v 0.6472 a 13.312497,11.645874 0 0 0 4.351166,-8.5935 13.312497,11.645874 0 0 0 -4.351166,-8.5952 z"
       style="fill:#191daf;fill-opacity:1;stroke:none;stroke-width:5.99999952;stroke-linecap:round;stroke-linejoin:round;stroke-miterlimit:4;stroke-dasharray:none;stroke-opacity:1" />
    <path
       id="path1023-9"
       d="m 37.056598,1018.5017 v 0.7656 a 13.312497,13.97505 0 0 1 3.609396,9.5487 13.312497,13.97505 0 0 1 -3.609396,9.5356 v 0.7766 a 13.312497,13.97505 0 0 0 4.351165,-10.3122 13.312497,13.97505 0 0 0 -4.351165,-10.3143 z"
       style="fill:#191daf;fill-opacity:1;stroke:none;stroke-width:5.99999952;stroke-linecap:round;stroke-linejoin:round;stroke-miterlimit:4;stroke-dasharray:none;stroke-opacity:1" />
    <path
       id="path1023-9-5"
       d="m 40.29703,1016.439 v 0.9187 a 13.312497,16.770059 0 0 1 3.609396,11.4585 13.312497,16.770059 0 0 1 -3.609396,11.4427 v 0.9319 a 13.312497,16.770059 0 0 0 4.351166,-12.3746 13.312497,16.770059 0 0 0 -4.351166,-12.3772 z"
       style="fill:#191daf;fill-opacity:1;stroke:none;stroke-width:5.99999952;stroke-linecap:round;stroke-linejoin:round;stroke-miterlimit:4;stroke-dasharray:none;stroke-opacity:1" />
  </g>
</svg>
