<?xml version="1.0" encoding="UTF-8" standalone="no"?>
<svg
   xmlns:dc="http://purl.org/dc/elements/1.1/"
   xmlns:cc="http://creativecommons.org/ns#"
   xmlns:rdf="http://www.w3.org/1999/02/22-rdf-syntax-ns#"
   xmlns:svg="http://www.w3.org/2000/svg"
   xmlns="http://www.w3.org/2000/svg"
   xmlns:xlink="http://www.w3.org/1999/xlink"
   xmlns:sodipodi="http://sodipodi.sourceforge.net/DTD/sodipodi-0.dtd"
   xmlns:inkscape="http://www.inkscape.org/namespaces/inkscape"
   height="100%"
   width="100%"
   version="1.1"
   id="svg2"
   viewBox="0,0,48,48"
   sodipodi:docname="text.svg"
   inkscape:version="0.92.2 (5c3e80d, 2017-08-06)">
  <sodipodi:namedview
     pagecolor="#ffffff"
     bordercolor="#666666"
     borderopacity="1"
     objecttolerance="10"
     gridtolerance="10"
     guidetolerance="10"
     inkscape:pageopacity="0"
     inkscape:pageshadow="2"
     inkscape:window-width="1920"
     inkscape:window-height="1001"
     id="namedview4558"
     showgrid="false"
     inkscape:zoom="8.1041667"
     inkscape:cx="4.3054518"
     inkscape:cy="20.809334"
     inkscape:window-x="-9"
     inkscape:window-y="846"
     inkscape:window-maximized="1"
     inkscape:current-layer="text4562"
     showguides="false" />
  <defs
     id="defs4">
    <linearGradient
       inkscape:collect="always"
       id="linearGradient4588">
      <stop
         style="stop-color:#670000;stop-opacity:1"
         offset="0"
         id="stop4584" />
      <stop
         style="stop-color:#ff5656;stop-opacity:1"
         offset="1"
         id="stop4586" />
    </linearGradient>
    <linearGradient
       inkscape:collect="always"
       id="linearGradient4571">
      <stop
         style="stop-color:#002b99;stop-opacity:1"
         offset="0"
         id="stop4567" />
      <stop
         style="stop-color:#608cff;stop-opacity:1"
         offset="1"
         id="stop4569" />
    </linearGradient>
    <linearGradient
       inkscape:collect="always"
       xlink:href="#linearGradient4571"
       id="linearGradient4573"
       x1="32.703247"
       y1="26.525507"
       x2="32.703247"
       y2="-1.4847755"
       gradientUnits="userSpaceOnUse" />
    <linearGradient
       inkscape:collect="always"
       xlink:href="#linearGradient4571"
       id="linearGradient4575"
       gradientUnits="userSpaceOnUse"
       x1="32.703247"
       y1="26.525507"
       x2="32.703247"
       y2="-1.4847755"
       gradientTransform="translate(-0.99328427,12.252725)" />
    <linearGradient
       inkscape:collect="always"
       xlink:href="#linearGradient4588"
       id="linearGradient4590"
       x1="18.109047"
       y1="0.27615133"
       x2="18.109047"
       y2="29.550577"
       gradientUnits="userSpaceOnUse" />
    <filter
       inkscape:collect="always"
       style="color-interpolation-filters:sRGB"
       id="filter4685"
       x="-0.083269566"
       width="1.1665391"
       y="-0.084743362"
       height="1.1694867">
      <feGaussianBlur
         inkscape:collect="always"
         stdDeviation="1.0420967"
         id="feGaussianBlur4687" />
    </filter>
    <filter
       inkscape:collect="always"
       style="color-interpolation-filters:sRGB"
       id="filter4717"
       x="-0.082366667"
       width="1.1647333"
       y="-0.085699422"
       height="1.1713988">
      <feGaussianBlur
         inkscape:collect="always"
         stdDeviation="0.96523438"
         id="feGaussianBlur4719" />
    </filter>
    <linearGradient
       inkscape:collect="always"
       xlink:href="#linearGradient4588"
       id="linearGradient4721"
       gradientUnits="userSpaceOnUse"
       x1="17.194927"
       y1="29.658579"
       x2="17.194927"
       y2="-0.090217873" />
  </defs>
  <metadata
     id="metadata7">
    <rdf:RDF>
      <cc:Work
         rdf:about="">
        <dc:format>image/svg+xml</dc:format>
        <dc:type
           rdf:resource="http://purl.org/dc/dcmitype/StillImage" />
        <dc:title></dc:title>
      </cc:Work>
    </rdf:RDF>
  </metadata>
  <g
     aria-label="A"
     style="font-style:normal;font-weight:normal;font-size:40px;line-height:1.25;font-family:sans-serif;letter-spacing:0px;word-spacing:0px;fill:url(#linearGradient4573);fill-opacity:1;stroke:none"
     id="text4562"
     transform="translate(-0.18508997,3.9485861)">
    <g
       aria-label="猫"
       style="font-style:normal;font-weight:normal;font-size:33.43067169px;line-height:1.25;font-family:sans-serif;letter-spacing:0px;word-spacing:0px;fill:#000000;fill-opacity:0.78431373;stroke:none;stroke-width:0.83576679;filter:url(#filter4685)"
       id="text4579-6"
       transform="translate(1.1961712,1.6679311)">
      <path
         inkscape:connector-curvature="0"
         d="m 9.3596133,13.204419 q 0,-2.350594 -0.6529428,-3.9176569 -2.089417,2.2200059 -4.0482454,3.3953029 L 3.2219509,10.331471 Q 5.9643107,8.7644078 7.5313734,6.8055794 6.0948992,3.932631 4.2666594,2.1043912 L 5.9643107,0.40673989 Q 7.661962,1.9738026 9.2290247,4.7161624 10.53491,3.1490997 11.579619,0.92909414 l 2.350594,1.30588556 q 0.522354,0.5223543 -0.391766,0.6529429 -0.91412,1.4364741 -3.003537,4.3094225 1.567063,3.3953029 1.567063,9.2717879 v 7.704725 q 0,5.354131 -3.7870682,5.354131 H 5.9643107 L 5.572545,27.046806 h 1.8282399 q 2.2200055,0 2.2200055,-3.134125 V 16.73031 Q 8.1843162,19.733847 4.6584251,22.476207 L 3.3525394,20.125613 Q 6.4866649,17.64443 9.3596133,13.204419 Z M 28.164366,7.1973451 V 9.8091163 H 25.552595 V 7.1973451 H 20.720818 V 9.8091163 H 18.109047 V 7.1973451 H 13.27727 V 4.7161624 h 4.831777 V 0.27615133 h 2.481183 q 1.044708,0.13058856 0.130588,0.78353137 v 3.6564797 h 4.831777 V 0.14556277 h 2.481183 q 1.044708,0.13058856 0.130588,0.78353137 V 4.7161624 H 33.25732 V 7.1973451 Z M 29.731429,27.960926 H 17.194927 v 1.697652 H 14.583156 V 11.24559 H 32.3432 V 29.266812 H 29.731429 Z M 17.194927,18.55855 h 5.092954 v -4.831777 h -5.092954 z m 7.312959,0 h 5.223543 v -4.831777 h -5.223543 z m 5.223543,6.921194 v -4.831777 h -5.223543 v 4.831777 z m -12.536502,0 h 5.092954 v -4.831777 h -5.092954 z"
         style="font-style:normal;font-variant:normal;font-weight:normal;font-stretch:normal;font-family:Arial;-inkscape-font-specification:Arial;fill:#000000;fill-opacity:0.78431373;stroke-width:0.83576679"
         id="path4581-8" />
    </g>
    <g
       aria-label="猫"
       style="font-style:normal;font-weight:normal;font-size:33.43067169px;line-height:1.25;font-family:sans-serif;letter-spacing:0px;word-spacing:0px;fill:url(#linearGradient4590);fill-opacity:1;stroke:none;stroke-width:0.83576679"
       id="text4579"
       transform="translate(1.1961712,1.6679311)">
      <path
         d="m 9.3596133,13.204419 q 0,-2.350594 -0.6529428,-3.9176569 -2.089417,2.2200059 -4.0482454,3.3953029 L 3.2219509,10.331471 Q 5.9643107,8.7644078 7.5313734,6.8055794 6.0948992,3.932631 4.2666594,2.1043912 L 5.9643107,0.40673989 Q 7.661962,1.9738026 9.2290247,4.7161624 10.53491,3.1490997 11.579619,0.92909414 l 2.350594,1.30588556 q 0.522354,0.5223543 -0.391766,0.6529429 -0.91412,1.4364741 -3.003537,4.3094225 1.567063,3.3953029 1.567063,9.2717879 v 7.704725 q 0,5.354131 -3.7870682,5.354131 H 5.9643107 L 5.572545,27.046806 h 1.8282399 q 2.2200055,0 2.2200055,-3.134125 V 16.73031 Q 8.1843162,19.733847 4.6584251,22.476207 L 3.3525394,20.125613 Q 6.4866649,17.64443 9.3596133,13.204419 Z M 28.164366,7.1973451 V 9.8091163 H 25.552595 V 7.1973451 H 20.720818 V 9.8091163 H 18.109047 V 7.1973451 H 13.27727 V 4.7161624 h 4.831777 V 0.27615133 h 2.481183 q 1.044708,0.13058856 0.130588,0.78353137 v 3.6564797 h 4.831777 V 0.14556277 h 2.481183 q 1.044708,0.13058856 0.130588,0.78353137 V 4.7161624 H 33.25732 V 7.1973451 Z M 29.731429,27.960926 H 17.194927 v 1.697652 H 14.583156 V 11.24559 H 32.3432 V 29.266812 H 29.731429 Z M 17.194927,18.55855 h 5.092954 v -4.831777 h -5.092954 z m 7.312959,0 h 5.223543 v -4.831777 h -5.223543 z m 5.223543,6.921194 v -4.831777 h -5.223543 v 4.831777 z m -12.536502,0 h 5.092954 v -4.831777 h -5.092954 z"
         style="font-style:normal;font-variant:normal;font-weight:normal;font-stretch:normal;font-family:Arial;-inkscape-font-specification:Arial;fill:url(#linearGradient4721);fill-opacity:1;stroke-width:0.83576679"
         id="path4581"
         inkscape:connector-curvature="0" />
    </g>
    <path
       d="m 33.539371,30.934743 h -9.355469 l -1.113281,2.578125 q -0.546875,1.289063 -0.546875,2.128907 0,1.113281 0.898437,1.640625 0.527344,0.3125 2.597656,0.46875 v 0.722656 H 17.211246 V 37.75115 q 1.425781,-0.214844 2.34375,-1.171875 0.917968,-0.976563 2.265625,-4.003907 l 9.472656,-21.132812 h 0.371094 l 9.550781,21.71875 q 1.367187,3.085937 2.246094,3.886719 0.664062,0.605468 1.875,0.703125 v 0.722656 h -12.8125 V 37.75115 h 0.527343 q 1.542969,0 2.167969,-0.429688 0.429688,-0.3125 0.429688,-0.898437 0,-0.351563 -0.117188,-0.722657 -0.03906,-0.175781 -0.585937,-1.464843 z m -0.664063,-1.445312 -3.945312,-9.121094 -4.0625,9.121094 z"
       style="font-style:normal;font-variant:normal;font-weight:bold;font-stretch:normal;font-size:40px;line-height:1.25;font-family:'Times New Roman';-inkscape-font-specification:'Times New Roman, Bold';letter-spacing:0px;word-spacing:0px;fill:#000000;fill-opacity:0.78431373;stroke:none;filter:url(#filter4717)"
       id="path4564-6"
       inkscape:connector-curvature="0" />
    <path
       d="m 33.539371,30.934743 h -9.355469 l -1.113281,2.578125 q -0.546875,1.289063 -0.546875,2.128907 0,1.113281 0.898437,1.640625 0.527344,0.3125 2.597656,0.46875 v 0.722656 H 17.211246 V 37.75115 q 1.425781,-0.214844 2.34375,-1.171875 0.917968,-0.976563 2.265625,-4.003907 l 9.472656,-21.132812 h 0.371094 l 9.550781,21.71875 q 1.367187,3.085937 2.246094,3.886719 0.664062,0.605468 1.875,0.703125 v 0.722656 h -12.8125 V 37.75115 h 0.527343 q 1.542969,0 2.167969,-0.429688 0.429688,-0.3125 0.429688,-0.898437 0,-0.351563 -0.117188,-0.722657 -0.03906,-0.175781 -0.585937,-1.464843 z m -0.664063,-1.445312 -3.945312,-9.121094 -4.0625,9.121094 z"
       style="font-style:normal;font-variant:normal;font-weight:bold;font-stretch:normal;font-family:'Times New Roman';-inkscape-font-specification:'Times New Roman, Bold';fill:url(#linearGradient4575);fill-opacity:1"
       id="path4564"
       inkscape:connector-curvature="0" />
  </g>
</svg>
