<?xml version="1.0" encoding="UTF-8" standalone="no"?>
<svg
   xmlns:dc="http://purl.org/dc/elements/1.1/"
   xmlns:cc="http://creativecommons.org/ns#"
   xmlns:rdf="http://www.w3.org/1999/02/22-rdf-syntax-ns#"
   xmlns:svg="http://www.w3.org/2000/svg"
   xmlns="http://www.w3.org/2000/svg"
   xmlns:xlink="http://www.w3.org/1999/xlink"
   viewBox="0,0,48,48"
   id="svg2"
   version="1.1"
   width="100%"
   height="100%">
  <defs
     id="defs4">
    <linearGradient
       id="linearGradient5275">
      <stop
         style="stop-color:#f4f4f4;stop-opacity:1"
         offset="0"
         id="stop5269" />
      <stop
         id="stop5271"
         offset="0.23897058"
         style="stop-color:#f0f0f0;stop-opacity:1" />
      <stop
         style="stop-color:#8a8a8a;stop-opacity:1"
         offset="1"
         id="stop5273" />
    </linearGradient>
    <linearGradient
       id="linearGradient4583">
      <stop
         id="stop4579"
         offset="0"
         style="stop-color:#bdbdbd;stop-opacity:1" />
      <stop
         style="stop-color:#f0f0f0;stop-opacity:1"
         offset="0.23897058"
         id="stop4587" />
      <stop
         id="stop4581"
         offset="1"
         style="stop-color:#8a8a8a;stop-opacity:1" />
    </linearGradient>
    <linearGradient
       gradientTransform="translate(-0.560547,-1.8876678)"
       gradientUnits="userSpaceOnUse"
       y2="27.759069"
       x2="36.416"
       y1="29.438448"
       x1="12.551146"
       id="linearGradient4585"
       xlink:href="#linearGradient4583" />
    <linearGradient
       gradientTransform="translate(-0.560547,-1.8876678)"
       gradientUnits="userSpaceOnUse"
       y2="10.683386"
       x2="10.16466"
       y1="10.683386"
       x1="38.868526"
       id="linearGradient4595"
       xlink:href="#linearGradient4583" />
    <filter
       height="1.1035661"
       y="-0.051783042"
       width="1.1426331"
       x="-0.071316543"
       id="filter4698"
       style="color-interpolation-filters:sRGB">
      <feGaussianBlur
         id="feGaussianBlur4700"
         stdDeviation="0.85036621" />
    </filter>
    <filter
       id="filter4760"
       style="color-interpolation-filters:sRGB;"
       x="-0.2"
       width="1.4"
       y="-0.2"
       height="1.4">
      <feTurbulence
         id="feTurbulence4754"
         result="result91"
         type="fractalNoise"
         numOctaves="5"
         baseFrequency="0.05" />
      <feDisplacementMap
         id="feDisplacementMap4756"
         in2="result91"
         in="SourceGraphic"
         xChannelSelector="R"
         result="result5"
         scale="25" />
      <feComposite
         id="feComposite4758"
         in2="result5"
         operator="atop"
         in="SourceGraphic" />
    </filter>
    <linearGradient
       gradientTransform="translate(-0.97227182,-0.02689428)"
       gradientUnits="userSpaceOnUse"
       y2="5.8387585"
       x2="2.7400389"
       y1="9.9046221"
       x1="26.074562"
       id="linearGradient4778"
       xlink:href="#linearGradient5275" />
    <linearGradient
       gradientTransform="matrix(-1,0,0,1,49.591615,-0.82238945)"
       gradientUnits="userSpaceOnUse"
       y2="5.8387585"
       x2="2.7400389"
       y1="9.9046221"
       x1="26.074562"
       id="linearGradient4778-5"
       xlink:href="#linearGradient4583" />
    <linearGradient
       gradientTransform="matrix(-0.94903918,0,0,0.92059844,36.371694,-2.4361937)"
       gradientUnits="userSpaceOnUse"
       y2="5.8387585"
       x2="2.7400389"
       y1="9.9046221"
       x1="26.074562"
       id="linearGradient4778-5-3"
       xlink:href="#linearGradient4583" />
    <linearGradient
       gradientTransform="matrix(-0.88633985,0,0,0.96322287,42.616909,-3.3650679)"
       gradientUnits="userSpaceOnUse"
       y2="5.8387585"
       x2="2.7400389"
       y1="9.9046221"
       x1="26.074562"
       id="linearGradient4778-5-3-4"
       xlink:href="#linearGradient4583" />
    <filter
       height="1.1633579"
       y="-0.081678947"
       width="1.1287439"
       x="-0.064371932"
       id="filter5015"
       style="color-interpolation-filters:sRGB">
      <feGaussianBlur
         id="feGaussianBlur5017"
         stdDeviation="0.37216389" />
    </filter>
    <filter
       height="1.2168788"
       y="-0.10843941"
       width="1.137101"
       x="-0.068550506"
       id="filter5073"
       style="color-interpolation-filters:sRGB">
      <feGaussianBlur
         id="feGaussianBlur5075"
         stdDeviation="0.4514583" />
    </filter>
    <filter
       height="1.2173477"
       y="-0.10867387"
       width="1.1369143"
       x="-0.068457139"
       id="filter5135"
       style="color-interpolation-filters:sRGB">
      <feGaussianBlur
         id="feGaussianBlur5137"
         stdDeviation="0.47748373" />
    </filter>
    <filter
       height="1.193877"
       y="-0.096938504"
       width="1.1482173"
       x="-0.074108628"
       id="filter5207"
       style="color-interpolation-filters:sRGB">
      <feGaussianBlur
         id="feGaussianBlur5209"
         stdDeviation="0.40662176" />
    </filter>
    <filter
       height="1.3306937"
       y="-0.16534684"
       width="1.0920391"
       x="-0.046019572"
       id="filter5257"
       style="color-interpolation-filters:sRGB">
      <feGaussianBlur
         id="feGaussianBlur5259"
         stdDeviation="0.54942839" />
    </filter>
  </defs>
  <metadata
     id="metadata7">
    <rdf:RDF>
      <cc:Work
         rdf:about="">
        <dc:format>image/svg+xml</dc:format>
        <dc:type
           rdf:resource="http://purl.org/dc/dcmitype/StillImage" />
        <dc:title></dc:title>
      </cc:Work>
    </rdf:RDF>
  </metadata>
  <path
     id="path4513-1-1"
     d="M 38.307981,8.7957181 A 14.326818,3.9874609 0 0 1 23.981163,12.783179 14.326818,3.9874609 0 0 1 9.654344,8.7957181 14.326818,3.9874609 0 0 1 23.981163,4.8082571 14.326818,3.9874609 0 0 1 38.307981,8.7957181 Z"
     style="opacity:1;fill:#000000;fill-opacity:1;stroke:none;stroke-width:0.90306944;stroke-opacity:1;filter:url(#filter5257)" />
  <path
     id="path4513-1"
     d="M 38.307981,8.7957182 A 14.326818,3.9874609 0 0 1 23.981163,12.783179 14.326818,3.9874609 0 0 1 9.654344,8.7957182 14.326818,3.9874609 0 0 1 23.981163,4.8082572 14.326818,3.9874609 0 0 1 38.307981,8.7957182 Z"
     style="opacity:1;fill:url(#linearGradient4595);fill-opacity:1;stroke:none;stroke-width:0.90306944;stroke-opacity:1" />
  <path
     id="path4762-2-3-3"
     d="M 23.33842,10.180904 C 23.170653,8.7162406 25.351636,6.5192461 24.59668,6.1937649 23.841725,5.8682845 23.422306,4.6477322 22.667349,5.7055439 21.912392,6.7633566 22.247929,7.170207 21.576857,5.5428033 20.905785,3.9154007 20.989669,2.6948474 20.234713,3.5899194 19.479757,4.4849915 19.228104,5.3800636 18.221497,5.0545823 17.214889,4.729102 16.459932,3.83403 16.040512,4.5663614 c -0.41942,0.7323315 -0.41942,0.4882209 -0.41942,1.383293 -0.622017,1.3684351 -0.557564,1.8000426 -2.308214,1.2878863 -0.503304,0.2441105 -1.183385,0.074352 -0.680081,0.8880546 0.503304,0.8137014 2.736644,1.6484577 1.226731,2.1366787 -1.509912,0.488221 -2.852057,0.488221 -2.013216,0.895071 0.83884,0.406851 2.0971,0.325481 3.35536,0.569591 1.25826,0.244111 2.348752,-0.325481 3.019825,0.325481 0.671071,0.650961 1.761563,1.301923 1.761563,1.301923 l 1.845449,-1.057812 2.0971,-2.278364 z"
     style="fill:#000000;fill-opacity:1;stroke:none;stroke-width:0.93471068px;stroke-linecap:butt;stroke-linejoin:miter;stroke-opacity:1;filter:url(#filter5207)" />
  <path
     id="path4762-2-3"
     d="M 23.33842,10.180904 C 23.170653,8.7162404 25.351636,6.5192459 24.59668,6.1937647 23.841725,5.8682843 23.422306,4.647732 22.667349,5.7055437 21.912392,6.7633564 22.247929,7.1702068 21.576857,5.5428031 20.905785,3.9154005 20.989669,2.6948472 20.234713,3.5899192 19.479757,4.4849913 19.228104,5.3800634 18.221497,5.0545821 17.214889,4.7291018 16.459932,3.8340298 16.040512,4.5663612 c -0.41942,0.7323315 -0.41942,0.4882209 -0.41942,1.383293 -0.622017,1.3684351 -0.557564,1.8000426 -2.308214,1.2878863 -0.503304,0.2441105 -1.183385,0.074352 -0.680081,0.8880546 0.503304,0.8137014 2.736644,1.6484577 1.226731,2.1366789 -1.509912,0.488221 -2.852057,0.488221 -2.013216,0.895071 0.83884,0.406851 2.0971,0.325481 3.35536,0.569591 1.25826,0.244111 2.348752,-0.325481 3.019825,0.325481 0.671071,0.650961 1.761563,1.301923 1.761563,1.301923 l 1.845449,-1.057812 2.0971,-2.278364 z"
     style="fill:url(#linearGradient4778-5-3);fill-opacity:1;stroke:none;stroke-width:0.93471068px;stroke-linecap:butt;stroke-linejoin:miter;stroke-opacity:1" />
  <path
     id="path4762-2-3-0-1"
     d="M 32.461008,10.844369 C 32.304323,9.3118898 34.341217,7.0131731 33.636139,6.6726219 32.93106,6.3320716 31.665613,2.7698485 30.960534,3.8766378 30.255454,4.9834279 29.963929,3.5944313 28.799507,4.9833622 27.633818,6.3738058 28.251112,2.0035439 27.546034,2.9400584 26.840955,3.8765731 27.345244,4.0065611 26.405138,3.6660099 25.465033,3.3254595 25.230428,2.5233661 24.838717,3.289605 c -0.391711,0.766239 -2.8785,0.5108259 -2.8785,1.4473404 0,0.9365148 1.298843,1.2233496 -0.268,0.9679365 -1.566842,-0.2554139 -0.883605,0.9812341 -1.353658,1.236647 -0.470052,0.2554131 -0.940106,0.1702757 -0.470052,1.021653 0.470052,0.8513771 -1.03337,-0.031291 -2.443528,0.4795346 -1.410157,0.5108263 1.503422,1.9894585 2.286844,2.4151465 0.783421,0.425689 1.958552,0.340551 3.133684,0.595963 1.175131,0.255414 0.647737,0.869238 1.274474,1.55034 0.626737,0.681101 3.191026,0.152414 3.191026,0.152414 l 1.723527,-1.10679 2.697869,0.77504 z"
     style="fill:#000000;fill-opacity:1;stroke:none;stroke-width:0.92398208px;stroke-linecap:butt;stroke-linejoin:miter;stroke-opacity:1;filter:url(#filter5135)" />
  <path
     id="path4762-2-3-0"
     d="M 32.461008,10.844369 C 32.304323,9.3118899 34.341217,7.0131732 33.636139,6.672622 32.93106,6.3320717 31.665613,2.7698486 30.960534,3.8766379 30.255454,4.983428 29.963929,3.5944314 28.799507,4.9833623 27.633818,6.3738059 28.251112,2.003544 27.546034,2.9400585 26.840955,3.8765732 27.345244,4.0065612 26.405138,3.66601 25.465033,3.3254596 25.230428,2.5233662 24.838717,3.2896051 c -0.391711,0.766239 -2.8785,0.5108259 -2.8785,1.4473404 0,0.9365148 1.298843,1.2233496 -0.268,0.9679365 -1.566842,-0.2554139 -0.883605,0.9812341 -1.353658,1.236647 -0.470052,0.2554131 -0.940106,0.1702757 -0.470052,1.021653 0.470052,0.8513771 -1.03337,-0.031291 -2.443528,0.4795346 -1.410157,0.5108263 1.503422,1.9894584 2.286844,2.4151464 0.783421,0.425689 1.958552,0.340551 3.133684,0.595963 1.175131,0.255414 0.647737,0.869238 1.274474,1.55034 0.626737,0.681101 3.191026,0.152414 3.191026,0.152414 l 1.723527,-1.10679 2.697869,0.77504 z"
     style="fill:url(#linearGradient4778-5-3-4);fill-opacity:1;stroke:none;stroke-width:0.92398208px;stroke-linecap:butt;stroke-linejoin:miter;stroke-opacity:1" />
  <path
     id="path4762-6"
     d="m 12.760854,13.678427 c 0.176777,-1.59099 -2.12132,-3.9774757 -1.325825,-4.3310297 0.795495,-0.353553 1.237436,-1.679378 2.032932,-0.53033 0.795495,1.149049 0,0 1.149048,-0.176777 2.303686,-2.8343478 1.441718,-0.4077868 3.447146,-1.0606601 1.06066,-0.353553 1.944543,-0.7954949 2.386485,10e-8 0.441942,0.795495 0.441942,0.53033 0.441942,1.502602 0,0.9722717 1.237437,-0.6187172 2.209709,1.3e-6 1.508081,0.9596884 1.149048,0.8838821 1.679378,1.1490474 0.53033,0.265165 2.740039,2.65165 2.209709,3.535535 -0.53033,0.883883 -5.833631,-0.53033 -4.242641,0 1.59099,0.53033 3.005204,0.53033 2.12132,0.972271 -0.883883,0.441942 -2.209708,0.353554 -3.535533,0.618719 -1.325826,0.265165 -2.474874,-0.353554 -3.181981,0.353553 -0.707107,0.707107 -1.856155,1.414214 -1.856155,1.414214 l -1.944544,-1.149049 -2.209709,-2.474873 z"
     style="fill:#000000;fill-opacity:1;stroke:none;stroke-width:1px;stroke-linecap:butt;stroke-linejoin:miter;stroke-opacity:1;filter:url(#filter5073)" />
  <path
     id="path4762"
     d="m 12.760854,13.678427 c 0.176777,-1.59099 -2.12132,-3.9774754 -1.325825,-4.3310294 0.795495,-0.353553 1.237436,-1.679378 2.032932,-0.53033 0.795495,1.149049 0,0 1.149048,-0.176777 2.303686,-2.8343478 1.441718,-0.4077868 3.447146,-1.0606601 1.06066,-0.353553 1.944543,-0.7954949 2.386485,10e-8 0.441942,0.795495 0.441942,0.53033 0.441942,1.502602 0,0.9722724 1.237437,-0.6187172 2.209709,1.3e-6 1.508081,0.9596881 1.149048,0.8838821 1.679378,1.1490471 0.53033,0.265165 3.712311,2.563262 2.209709,3.535535 -0.865408,0.559971 -5.833631,-0.53033 -4.242641,0 1.59099,0.53033 3.005204,0.53033 2.12132,0.972271 -0.883883,0.441942 -2.209708,0.353554 -3.535533,0.618719 -1.325826,0.265165 -2.474874,-0.353554 -3.181981,0.353553 -0.707107,0.707107 -1.856155,1.414214 -1.856155,1.414214 l -1.944544,-1.149049 -2.209709,-2.474873 z"
     style="fill:url(#linearGradient4778);fill-opacity:1;stroke:none;stroke-width:1px;stroke-linecap:butt;stroke-linejoin:miter;stroke-opacity:1" />
  <path
     id="path4762-2-6"
     d="m 35.858489,12.882931 c -0.176777,-1.59099 2.12132,-3.9774751 1.325825,-4.3310291 -0.795495,-0.353553 -1.237436,-1.679378 -2.032932,-0.53033 -0.795495,1.149049 -0.441941,1.5909902 -1.149048,-0.176777 -0.707107,-1.767766 -0.618719,-3.093592 -1.414214,-2.12132 -0.795495,0.972272 -1.06066,1.944544 -2.12132,1.59099 -1.06066,-0.353553 -1.856155,-1.325825 -2.298097,-0.53033 -0.441942,0.795495 -0.441942,0.53033 -0.441942,1.502602 0,0.9722722 0.707107,2.3864861 -1.06066,2.1213211 -1.79415,-0.05038 0.925783,1.918122 -0.795495,2.563262 -1.59099,0.53033 -3.005204,0.53033 -2.12132,0.972271 0.883883,0.441942 2.209708,0.353554 3.535533,0.618719 1.325826,0.265165 2.474874,-0.353554 3.181981,0.353553 0.707107,0.707107 1.856155,1.414214 1.856155,1.414214 l 1.944544,-1.149049 2.209709,-2.474873 z"
     style="fill:#000000;fill-opacity:1;stroke:none;stroke-width:1px;stroke-linecap:butt;stroke-linejoin:miter;stroke-opacity:1;filter:url(#filter5015)" />
  <path
     id="path4762-2"
     d="m 35.858489,12.882931 c -0.176777,-1.59099 2.12132,-3.9774747 1.325825,-4.3310287 -0.795495,-0.353553 -1.237436,-1.679378 -2.032932,-0.53033 -0.795495,1.149049 -0.441941,1.5909902 -1.149048,-0.176777 -0.707107,-1.767766 -0.618719,-3.093592 -1.414214,-2.12132 -0.795495,0.972272 -1.06066,1.944544 -2.12132,1.59099 -1.06066,-0.353553 -1.856155,-1.325825 -2.298097,-0.53033 -0.441942,0.795495 -0.441942,0.53033 -0.441942,1.502602 0,0.9722722 0.707107,2.3864857 -1.06066,2.1213207 -1.79415,-0.05038 0.925783,1.918122 -0.795495,2.563262 -1.59099,0.53033 -3.005204,0.53033 -2.12132,0.972271 0.883883,0.441942 2.209708,0.353554 3.535533,0.618719 1.325826,0.265165 2.474874,-0.353554 3.181981,0.353553 0.707107,0.707107 1.856155,1.414214 1.856155,1.414214 l 1.944544,-1.149049 2.209709,-2.474873 z"
     style="fill:url(#linearGradient4778-5);fill-opacity:1;stroke:none;stroke-width:1px;stroke-linecap:butt;stroke-linejoin:miter;stroke-opacity:1" />
  <path
     id="path4515-2"
     d="m 21.240234,4.8857702 c -0.122231,0.0066 -0.240227,0.014024 -0.361328,0.021484 a 14.326818,3.9874609 0 0 1 0.361328,-0.021484 z M 18.53125,5.1103796 c -0.103576,0.011879 -0.202349,0.026532 -0.304688,0.039063 a 14.326818,3.9874609 0 0 1 0.304688,-0.039063 z m 13.349609,0.3613281 a 14.326818,3.9874609 0 0 1 0.150391,0.027344 c -0.04889,-0.00926 -0.101068,-0.018245 -0.150391,-0.027344 z m -15.808594,0.00195 c -0.09275,0.017139 -0.178316,0.036968 -0.269531,0.054687 a 14.326818,3.9874609 0 0 1 0.269531,-0.054687 z m 17.890626,0.46875 a 14.326818,3.9874609 0 0 1 0.253906,0.064453 c -0.08127,-0.023115 -0.170651,-0.041892 -0.253906,-0.064453 z M 13.908203,5.9619421 C 13.669802,6.0275981 13.44606,6.0968688 13.224609,6.1670202 A 14.326818,3.9874609 0 0 1 13.908203,5.9619421 Z M 34.4375,6.0752233 a 14.326818,3.9874609 0 0 1 0.708984,0.2246094 C 34.922052,6.2221553 34.681849,6.1479618 34.4375,6.0752233 Z M 13,6.2353796 c -0.242172,0.080403 -0.466412,0.1643858 -0.685547,0.25 A 14.326818,3.9874609 0 0 1 13,6.2353796 Z m 22.392578,0.15625 a 14.326818,3.9874609 0 0 1 0.578125,0.2246093 C 35.78895,6.5389369 35.592651,6.4650789 35.392578,6.3916296 Z m -23.25,0.1582031 c -0.258723,0.1054917 -0.500573,0.215695 -0.722656,0.328125 a 14.326818,3.9874609 0 0 1 0.722656,-0.328125 z m 24.089844,0.1855469 a 14.326818,3.9874609 0 0 1 0.4375,0.2128906 C 36.533609,6.8759067 36.383931,6.8050398 36.232422,6.7353796 Z M 11.408203,6.8838171 c -0.679975,0.3455511 -1.180368,0.7210231 -1.46875,1.1191406 a 14.326818,3.9874609 0 0 1 1.46875,-1.1191406 z M 9.939453,8.0029577 C 9.845813,8.1322312 9.774091,8.2640152 9.726562,8.3974882 A 14.326818,3.9874609 0 0 1 9.939453,8.0029577 Z M 36.90625,7.0849889 a 14.326818,3.9874609 0 0 1 0.367187,0.2265626 C 37.161534,7.2339396 37.034861,7.1600984 36.90625,7.0849889 Z m 0.537109,0.3574219 a 14.326818,3.9874609 0 0 1 0.294922,0.2480469 c -0.0871,-0.084082 -0.188834,-0.1663462 -0.294922,-0.2480469 z m 0.414063,0.375 a 14.326818,3.9874609 0 0 1 0.203125,0.2519531 C 38.004177,7.9841394 37.932932,7.900645 37.857422,7.8174108 Z m 0.291015,0.4140624 a 14.326818,3.9874609 0 0 1 0.09766,0.224609 c -0.02298,-0.07567 -0.05971,-0.150204 -0.09766,-0.224609 z m 0.160157,0.564453 A 14.326818,3.9874609 0 0 1 23.980469,12.782254 14.326818,3.9874609 0 0 1 9.691406,9.0810822 L 13.90625,41.471707 c 0.0074,1.570614 4.513646,2.826172 10.074219,2.826172 5.560573,0 10.068359,-1.255108 10.068359,-2.802734 z"
     style="fill:#000000;fill-opacity:1;stroke:none;stroke-width:0.90330708;stroke-linecap:butt;stroke-linejoin:miter;stroke-miterlimit:4;stroke-dasharray:none;stroke-opacity:1;filter:url(#filter4698)" />
  <path
     id="path4515"
     d="m 21.240234,4.8857697 c -0.122231,0.0066 -0.240227,0.014024 -0.361328,0.021484 a 14.326818,3.9874609 0 0 1 0.361328,-0.021484 z M 18.53125,5.1103791 c -0.103576,0.011879 -0.202349,0.026532 -0.304688,0.039063 a 14.326818,3.9874609 0 0 1 0.304688,-0.039063 z m 13.349609,0.3613281 a 14.326818,3.9874609 0 0 1 0.150391,0.027344 c -0.04889,-0.00926 -0.101068,-0.018245 -0.150391,-0.027344 z m -15.808594,0.00195 c -0.09275,0.017139 -0.178316,0.036968 -0.269531,0.054687 a 14.326818,3.9874609 0 0 1 0.269531,-0.054687 z m 17.890626,0.46875 a 14.326818,3.9874609 0 0 1 0.253906,0.064453 c -0.08127,-0.023115 -0.170651,-0.041892 -0.253906,-0.064453 z M 13.908203,5.9619416 C 13.669802,6.0275976 13.44606,6.0968683 13.224609,6.1670197 A 14.326818,3.9874609 0 0 1 13.908203,5.9619416 Z M 34.4375,6.0752228 a 14.326818,3.9874609 0 0 1 0.708984,0.2246094 C 34.922052,6.2221548 34.681849,6.1479613 34.4375,6.0752228 Z M 13,6.2353791 c -0.242172,0.080403 -0.466412,0.1643858 -0.685547,0.25 A 14.326818,3.9874609 0 0 1 13,6.2353791 Z m 22.392578,0.15625 a 14.326818,3.9874609 0 0 1 0.578125,0.2246093 C 35.78895,6.5389364 35.592651,6.4650784 35.392578,6.3916291 Z m -23.25,0.1582031 c -0.258723,0.1054917 -0.500573,0.215695 -0.722656,0.328125 a 14.326818,3.9874609 0 0 1 0.722656,-0.328125 z m 24.089844,0.1855469 a 14.326818,3.9874609 0 0 1 0.4375,0.2128906 C 36.533609,6.8759062 36.383931,6.8050393 36.232422,6.7353791 Z M 11.408203,6.8838166 c -0.679975,0.3455511 -1.180368,0.7210231 -1.46875,1.1191406 a 14.326818,3.9874609 0 0 1 1.46875,-1.1191406 z M 9.939453,8.0029572 C 9.845812,8.1322312 9.774091,8.2640152 9.726562,8.3974882 A 14.326818,3.9874609 0 0 1 9.939453,8.0029572 Z M 36.90625,7.0849884 A 14.326818,3.9874609 0 0 1 37.273437,7.311551 C 37.161534,7.2339391 37.034861,7.1600979 36.90625,7.0849884 Z m 0.537109,0.3574219 a 14.326818,3.9874609 0 0 1 0.294922,0.2480469 C 37.651181,7.6063752 37.549447,7.524111 37.443359,7.4424103 Z m 0.414063,0.375 a 14.326818,3.9874609 0 0 1 0.203125,0.2519531 C 38.004177,7.9841389 37.932932,7.9006445 37.857422,7.8174103 Z m 0.291015,0.4140629 a 14.326818,3.9874609 0 0 1 0.09766,0.224609 c -0.02298,-0.07567 -0.05971,-0.150204 -0.09766,-0.224609 z m 0.160157,0.564453 A 14.326818,3.9874609 0 0 1 23.980469,12.782254 14.326818,3.9874609 0 0 1 9.691406,9.0810822 L 13.90625,41.471707 c 0.0074,1.570614 4.513646,2.826172 10.074219,2.826172 5.560573,0 10.068359,-1.255108 10.068359,-2.802735 z"
     style="fill:url(#linearGradient4585);fill-opacity:1;stroke:none;stroke-width:0.90330708;stroke-linecap:butt;stroke-linejoin:miter;stroke-miterlimit:4;stroke-dasharray:none;stroke-opacity:1" />
</svg>
