<?xml version="1.0" encoding="UTF-8" standalone="no"?>
<svg
   viewBox="0,0,48,48"
   id="svg2"
   version="1.1"
   width="100%"
   height="100%"
   sodipodi:docname="trash.svg"
   inkscape:version="1.1 (c68e22c387, 2021-05-23)"
   xmlns:inkscape="http://www.inkscape.org/namespaces/inkscape"
   xmlns:sodipodi="http://sodipodi.sourceforge.net/DTD/sodipodi-0.dtd"
   xmlns:xlink="http://www.w3.org/1999/xlink"
   xmlns="http://www.w3.org/2000/svg"
   xmlns:svg="http://www.w3.org/2000/svg"
   xmlns:rdf="http://www.w3.org/1999/02/22-rdf-syntax-ns#"
   xmlns:cc="http://creativecommons.org/ns#"
   xmlns:dc="http://purl.org/dc/elements/1.1/">
  <sodipodi:namedview
     id="namedview916"
     pagecolor="#ffffff"
     bordercolor="#666666"
     borderopacity="1.0"
     inkscape:pageshadow="2"
     inkscape:pageopacity="0.0"
     inkscape:pagecheckerboard="0"
     showgrid="false"
     inkscape:zoom="8.4270833"
     inkscape:cx="9.671199"
     inkscape:cy="13.46848"
     inkscape:window-width="1920"
     inkscape:window-height="1017"
     inkscape:window-x="5752"
     inkscape:window-y="-8"
     inkscape:window-maximized="1"
     inkscape:current-layer="svg2" />
  <defs
     id="defs4">
    <linearGradient
       id="linearGradient2826">
      <stop
         id="stop2820"
         offset="0"
         style="stop-color:#8a8a8a;stop-opacity:1" />
      <stop
         style="stop-color:#bdbdbd;stop-opacity:1"
         offset="0.23897058"
         id="stop2822" />
      <stop
         id="stop2824"
         offset="1"
         style="stop-color:#575757;stop-opacity:1" />
    </linearGradient>
    <linearGradient
       id="linearGradient5275">
      <stop
         style="stop-color:#f4f4f4;stop-opacity:1"
         offset="0"
         id="stop5269" />
      <stop
         id="stop5271"
         offset="0.23897058"
         style="stop-color:#f0f0f0;stop-opacity:1" />
      <stop
         style="stop-color:#8a8a8a;stop-opacity:1"
         offset="1"
         id="stop5273" />
    </linearGradient>
    <linearGradient
       id="linearGradient4583">
      <stop
         id="stop4579"
         offset="0"
         style="stop-color:#bdbdbd;stop-opacity:1" />
      <stop
         style="stop-color:#f0f0f0;stop-opacity:1"
         offset="0.23897058"
         id="stop4587" />
      <stop
         id="stop4581"
         offset="1"
         style="stop-color:#8a8a8a;stop-opacity:1" />
    </linearGradient>
    <linearGradient
       gradientTransform="matrix(1.459356,0,0,1.0881706,-11.842583,-4.6241918)"
       gradientUnits="userSpaceOnUse"
       y2="27.759069"
       x2="36.416"
       y1="29.438448"
       x1="12.551146"
       id="linearGradient4585"
       xlink:href="#linearGradient4583" />
    <linearGradient
       gradientTransform="matrix(1.459356,0,0,1.0918926,-11.842583,-4.649114)"
       gradientUnits="userSpaceOnUse"
       y2="10.683386"
       x2="10.16466"
       y1="10.683386"
       x1="38.868526"
       id="linearGradient4595"
       xlink:href="#linearGradient2826" />
    <filter
       height="1.1035661"
       y="-0.051783044"
       width="1.1426331"
       x="-0.071316545"
       id="filter4698"
       style="color-interpolation-filters:sRGB">
      <feGaussianBlur
         id="feGaussianBlur4700"
         stdDeviation="0.85036621" />
    </filter>
    <filter
       id="filter4760"
       style="color-interpolation-filters:sRGB;"
       x="-0.2"
       width="1.4"
       y="-0.2"
       height="1.4">
      <feTurbulence
         id="feTurbulence4754"
         result="result91"
         type="fractalNoise"
         numOctaves="5"
         baseFrequency="0.05" />
      <feDisplacementMap
         id="feDisplacementMap4756"
         in2="result91"
         in="SourceGraphic"
         xChannelSelector="R"
         result="result5"
         scale="25" />
      <feComposite
         id="feComposite4758"
         in2="result5"
         operator="atop"
         in="SourceGraphic" />
    </filter>
    <linearGradient
       gradientTransform="translate(-0.97227182,-0.02689428)"
       gradientUnits="userSpaceOnUse"
       y2="5.8387585"
       x2="2.7400389"
       y1="9.9046221"
       x1="26.074562"
       id="linearGradient4778"
       xlink:href="#linearGradient5275" />
    <linearGradient
       gradientTransform="matrix(-1,0,0,1,49.591615,-0.82238945)"
       gradientUnits="userSpaceOnUse"
       y2="5.8387585"
       x2="2.7400389"
       y1="9.9046221"
       x1="26.074562"
       id="linearGradient4778-5"
       xlink:href="#linearGradient4583" />
    <linearGradient
       gradientTransform="matrix(-0.94903918,0,0,0.92059844,36.371694,-2.4361937)"
       gradientUnits="userSpaceOnUse"
       y2="5.8387585"
       x2="2.7400389"
       y1="9.9046221"
       x1="26.074562"
       id="linearGradient4778-5-3"
       xlink:href="#linearGradient4583" />
    <linearGradient
       gradientTransform="matrix(-0.88633985,0,0,0.96322287,42.616909,-3.3650679)"
       gradientUnits="userSpaceOnUse"
       y2="5.8387585"
       x2="2.7400389"
       y1="9.9046221"
       x1="26.074562"
       id="linearGradient4778-5-3-4"
       xlink:href="#linearGradient4583" />
    <filter
       height="1.1633579"
       y="-0.081678947"
       width="1.1287439"
       x="-0.064371932"
       id="filter5015"
       style="color-interpolation-filters:sRGB">
      <feGaussianBlur
         id="feGaussianBlur5017"
         stdDeviation="0.37216389" />
    </filter>
    <filter
       height="1.2168788"
       y="-0.10843941"
       width="1.137101"
       x="-0.068550507"
       id="filter5073"
       style="color-interpolation-filters:sRGB">
      <feGaussianBlur
         id="feGaussianBlur5075"
         stdDeviation="0.4514583" />
    </filter>
    <filter
       height="1.2173477"
       y="-0.10867387"
       width="1.1369143"
       x="-0.068457137"
       id="filter5135"
       style="color-interpolation-filters:sRGB">
      <feGaussianBlur
         id="feGaussianBlur5137"
         stdDeviation="0.47748373" />
    </filter>
    <filter
       height="1.193877"
       y="-0.096938502"
       width="1.1482173"
       x="-0.074108627"
       id="filter5207"
       style="color-interpolation-filters:sRGB">
      <feGaussianBlur
         id="feGaussianBlur5209"
         stdDeviation="0.40662176" />
    </filter>
    <filter
       height="1.3306937"
       y="-0.16534684"
       width="1.0920391"
       x="-0.046019574"
       id="filter5257"
       style="color-interpolation-filters:sRGB">
      <feGaussianBlur
         id="feGaussianBlur5259"
         stdDeviation="0.54942839" />
    </filter>
    <filter
       height="1.2168788"
       y="-0.10843941"
       width="1.137101"
       x="-0.068550507"
       id="filter5073-6"
       style="color-interpolation-filters:sRGB">
      <feGaussianBlur
         id="feGaussianBlur5075-7"
         stdDeviation="0.4514583" />
    </filter>
    <filter
       height="1.2173477"
       y="-0.10867387"
       width="1.1607644"
       x="-0.080382202"
       id="filter5135-5"
       style="color-interpolation-filters:sRGB">
      <feGaussianBlur
         id="feGaussianBlur5137-3"
         stdDeviation="0.47748373" />
    </filter>
  </defs>
  <metadata
     id="metadata7">
    <rdf:RDF>
      <cc:Work
         rdf:about="">
        <dc:format>image/svg+xml</dc:format>
        <dc:type
           rdf:resource="http://purl.org/dc/dcmitype/StillImage" />
        <dc:title />
      </cc:Work>
    </rdf:RDF>
  </metadata>
  <path
     id="path4515-2"
     d="m 21.240234,4.8857702 c -0.122231,0.0066 -0.240227,0.014024 -0.361328,0.021484 a 14.326818,3.9874609 0 0 1 0.361328,-0.021484 z M 18.53125,5.1103796 c -0.103576,0.011879 -0.202349,0.026532 -0.304688,0.039063 a 14.326818,3.9874609 0 0 1 0.304688,-0.039063 z m 13.349609,0.3613281 a 14.326818,3.9874609 0 0 1 0.150391,0.027344 c -0.04889,-0.00926 -0.101068,-0.018245 -0.150391,-0.027344 z m -15.808594,0.00195 c -0.09275,0.017139 -0.178316,0.036968 -0.269531,0.054687 a 14.326818,3.9874609 0 0 1 0.269531,-0.054687 z m 17.890626,0.46875 a 14.326818,3.9874609 0 0 1 0.253906,0.064453 c -0.08127,-0.023115 -0.170651,-0.041892 -0.253906,-0.064453 z M 13.908203,5.9619421 C 13.669802,6.0275981 13.44606,6.0968688 13.224609,6.1670202 A 14.326818,3.9874609 0 0 1 13.908203,5.9619421 Z M 34.4375,6.0752233 a 14.326818,3.9874609 0 0 1 0.708984,0.2246094 C 34.922052,6.2221553 34.681849,6.1479618 34.4375,6.0752233 Z M 13,6.2353796 c -0.242172,0.080403 -0.466412,0.1643858 -0.685547,0.25 A 14.326818,3.9874609 0 0 1 13,6.2353796 Z m 22.392578,0.15625 a 14.326818,3.9874609 0 0 1 0.578125,0.2246093 C 35.78895,6.5389369 35.592651,6.4650789 35.392578,6.3916296 Z m -23.25,0.1582031 c -0.258723,0.1054917 -0.500573,0.215695 -0.722656,0.328125 a 14.326818,3.9874609 0 0 1 0.722656,-0.328125 z m 24.089844,0.1855469 a 14.326818,3.9874609 0 0 1 0.4375,0.2128906 C 36.533609,6.8759067 36.383931,6.8050398 36.232422,6.7353796 Z M 11.408203,6.8838171 c -0.679975,0.3455511 -1.180368,0.7210231 -1.46875,1.1191406 a 14.326818,3.9874609 0 0 1 1.46875,-1.1191406 z M 9.939453,8.0029577 C 9.845813,8.1322312 9.774091,8.2640152 9.726562,8.3974882 A 14.326818,3.9874609 0 0 1 9.939453,8.0029577 Z M 36.90625,7.0849889 a 14.326818,3.9874609 0 0 1 0.367187,0.2265626 C 37.161534,7.2339396 37.034861,7.1600984 36.90625,7.0849889 Z m 0.537109,0.3574219 a 14.326818,3.9874609 0 0 1 0.294922,0.2480469 c -0.0871,-0.084082 -0.188834,-0.1663462 -0.294922,-0.2480469 z m 0.414063,0.375 a 14.326818,3.9874609 0 0 1 0.203125,0.2519531 C 38.004177,7.9841394 37.932932,7.900645 37.857422,7.8174108 Z m 0.291015,0.4140624 a 14.326818,3.9874609 0 0 1 0.09766,0.224609 c -0.02298,-0.07567 -0.05971,-0.150204 -0.09766,-0.224609 z m 0.160157,0.564453 A 14.326818,3.9874609 0 0 1 23.980469,12.782254 14.326818,3.9874609 0 0 1 9.691406,9.0810822 L 13.90625,41.471707 c 0.0074,1.570614 4.513646,2.826172 10.074219,2.826172 5.560573,0 10.068359,-1.255108 10.068359,-2.802734 z"
     style="fill:#000000;fill-opacity:1;stroke:none;stroke-width:0.716813;stroke-linecap:butt;stroke-linejoin:miter;stroke-miterlimit:4;stroke-dasharray:none;stroke-opacity:1;filter:url(#filter4698)"
     transform="matrix(1.459356,0,0,1.0881706,-11.024545,-2.5700872)" />
  <path
     id="path4513-1-1"
     d="M 38.307981,8.7957181 A 14.326818,3.9874609 0 0 1 23.981163,12.783179 14.326818,3.9874609 0 0 1 9.654344,8.7957181 14.326818,3.9874609 0 0 1 23.981163,4.8082571 14.326818,3.9874609 0 0 1 38.307981,8.7957181 Z"
     style="opacity:1;fill:#000000;fill-opacity:1;stroke:none;stroke-width:0.716625;stroke-opacity:1;filter:url(#filter5257)"
     transform="matrix(1.459356,0,0,1.0881706,-11.024545,-2.5700872)" />
  <path
     id="path4513-1"
     d="M 44.880437,7.0159962 A 20.907928,4.353879 0 0 1 23.972509,11.369875 20.907928,4.353879 0 0 1 3.0645798,7.0159962 20.907928,4.353879 0 0 1 23.972509,2.662117 20.907928,4.353879 0 0 1 44.880437,7.0159962 Z"
     style="opacity:1;fill:url(#linearGradient4595);fill-opacity:1;stroke:none;stroke-width:0.903069;stroke-opacity:1" />
  <path
     id="path4515"
     d="m 19.972518,2.7464638 c -0.178379,0.00718 -0.350577,0.015261 -0.527306,0.023379 a 20.907928,4.3390377 0 0 1 0.527306,-0.023379 z m -3.953372,0.2444134 c -0.151154,0.012926 -0.295299,0.028871 -0.444648,0.042507 a 20.907928,4.3390377 0 0 1 0.444648,-0.042507 z m 19.481832,0.3931866 a 20.907928,4.3390377 0 0 1 0.219474,0.029756 c -0.07135,-0.010073 -0.147494,-0.019853 -0.219474,-0.029756 z m -23.070367,0.00213 c -0.135355,0.01865 -0.260226,0.040227 -0.393341,0.059508 a 20.907928,4.3390377 0 0 1 0.393341,-0.059508 z m 26.108793,0.510076 a 20.907928,4.3390377 0 0 1 0.370539,0.070136 c -0.118602,-0.025157 -0.249041,-0.04559 -0.370539,-0.07014 z M 9.2724745,3.9175225 c -0.3479119,0.071445 -0.6744312,0.1468233 -0.997607,0.22316 a 20.907928,4.3390377 0 0 1 0.997607,-0.22316 z M 39.232027,4.0407917 a 20.907928,4.3390377 0 0 1 1.03466,0.2444134 C 39.939161,4.2006788 39.588619,4.1199436 39.232027,4.0407917 Z M 7.947083,4.2150692 C 7.5936678,4.3025613 7.2664218,4.3939489 6.9466259,4.4871117 A 20.907928,4.3390377 0 0 1 7.947083,4.2150692 Z m 32.678743,0.1700266 a 20.907928,4.3390377 0 0 1 0.84369,0.2444132 C 41.204274,4.5453915 40.917804,4.4650212 40.625826,4.3850958 Z M 6.6957991,4.5572477 C 6.3182301,4.6720407 5.9652848,4.7919608 5.6411867,4.9143036 A 20.907928,4.3390377 0 0 1 6.6957991,4.5572477 Z M 41.851457,4.7591545 a 20.907928,4.3390377 0 0 1 0.638469,0.2316612 C 42.290996,4.9120719 42.072563,4.8349567 41.851457,4.7591545 Z M 5.6240845,4.9206797 C 4.6317589,5.2966984 3.9015074,5.705276 3.4806554,6.1384956 A 20.907928,4.3390377 0 0 1 5.6240845,4.9206797 Z M 3.4806554,6.1384956 C 3.3439998,6.2791678 3.2393333,6.4225713 3.1699716,6.5678127 A 20.907928,4.3390377 0 0 1 3.4806554,6.1384956 Z M 42.834812,5.139589 a 20.907928,4.3390377 0 0 1 0.535857,0.2465387 C 43.207363,5.3016727 43.022502,5.2213209 42.834812,5.139589 Z m 0.783834,0.388936 a 20.907928,4.3390377 0 0 1 0.430396,0.2699174 C 43.921932,5.7069467 43.773466,5.6174292 43.618646,5.528525 Z m 0.604265,0.408064 a 20.907928,4.3390377 0 0 1 0.296432,0.2741679 C 44.437083,6.1180185 44.333107,6.027162 44.222911,5.936589 Z m 0.424694,0.450571 a 20.907928,4.3390377 0 0 1 0.142521,0.244413 C 44.75659,6.5492312 44.702988,6.4681254 44.647605,6.38716 Z m 0.233727,0.6142212 A 20.907928,4.3390377 0 0 1 23.971496,11.339186 20.907928,4.3390377 0 0 1 3.1186665,7.3116797 L 9.2696244,42.558206 c 0.010799,1.709095 6.5870166,3.075356 14.7018716,3.075356 8.114856,0 14.69332,-1.36577 14.69332,-3.049853 z"
     style="fill:url(#linearGradient4585);fill-opacity:1;stroke:none;stroke-width:0.903307;stroke-linecap:butt;stroke-linejoin:miter;stroke-miterlimit:4;stroke-dasharray:none;stroke-opacity:1" />
</svg>
