<?xml version="1.0" encoding="UTF-8" standalone="no"?>
<svg
   height="100%"
   width="100%"
   version="1.1"
   id="svg2"
   viewBox="0,0,48,48"
   sodipodi:docname="wand.svg"
   inkscape:version="1.1 (c68e22c387, 2021-05-23)"
   xmlns:inkscape="http://www.inkscape.org/namespaces/inkscape"
   xmlns:sodipodi="http://sodipodi.sourceforge.net/DTD/sodipodi-0.dtd"
   xmlns:xlink="http://www.w3.org/1999/xlink"
   xmlns="http://www.w3.org/2000/svg"
   xmlns:svg="http://www.w3.org/2000/svg"
   xmlns:rdf="http://www.w3.org/1999/02/22-rdf-syntax-ns#"
   xmlns:cc="http://creativecommons.org/ns#"
   xmlns:dc="http://purl.org/dc/elements/1.1/">
  <sodipodi:namedview
     id="namedview850"
     pagecolor="#ffffff"
     bordercolor="#666666"
     borderopacity="1.0"
     inkscape:pageshadow="2"
     inkscape:pageopacity="0.0"
     inkscape:pagecheckerboard="0"
     showgrid="false"
     inkscape:zoom="32"
     inkscape:cx="19.515625"
     inkscape:cy="19.921875"
     inkscape:window-width="1920"
     inkscape:window-height="1017"
     inkscape:window-x="1912"
     inkscape:window-y="-8"
     inkscape:window-maximized="1"
     inkscape:current-layer="svg2" />
  <defs
     id="defs4">
    <linearGradient
       inkscape:collect="always"
       id="linearGradient4368">
      <stop
         style="stop-color:#ffffff;stop-opacity:1"
         offset="0"
         id="stop4364" />
      <stop
         style="stop-color:#ffffff;stop-opacity:0"
         offset="1"
         id="stop4366" />
    </linearGradient>
    <linearGradient
       inkscape:collect="always"
       id="linearGradient3199-0">
      <stop
         style="stop-color:#807600;stop-opacity:1"
         offset="0"
         id="stop3195" />
      <stop
         style="stop-color:#ead700;stop-opacity:1"
         offset="1"
         id="stop3197" />
    </linearGradient>
    <linearGradient
       inkscape:collect="always"
       id="linearGradient2337">
      <stop
         style="stop-color:#000000;stop-opacity:1"
         offset="0"
         id="stop2333" />
      <stop
         style="stop-color:#4f4f4f;stop-opacity:1"
         offset="0.66571647"
         id="stop2439" />
      <stop
         style="stop-color:#2b2b2b;stop-opacity:1"
         offset="1"
         id="stop2335" />
    </linearGradient>
    <linearGradient
       inkscape:collect="always"
       id="linearGradient1784">
      <stop
         style="stop-color:#888888;stop-opacity:1"
         offset="0"
         id="stop1780" />
      <stop
         style="stop-color:#d6d6d6;stop-opacity:1"
         offset="0.65746719"
         id="stop1980" />
      <stop
         style="stop-color:#a1a1a1;stop-opacity:1"
         offset="1"
         id="stop1782" />
    </linearGradient>
    <linearGradient
       inkscape:collect="always"
       xlink:href="#linearGradient1784"
       id="linearGradient1786"
       x1="15.833982"
       y1="14.21875"
       x2="23.40625"
       y2="14.21875"
       gradientUnits="userSpaceOnUse"
       gradientTransform="matrix(0.84107212,-0.84107212,0.52884153,0.52884153,-7.7753813,26.049945)" />
    <linearGradient
       inkscape:collect="always"
       xlink:href="#linearGradient2337"
       id="linearGradient2339"
       x1="15.833982"
       y1="41.874992"
       x2="23.406302"
       y2="41.874993"
       gradientUnits="userSpaceOnUse"
       gradientTransform="matrix(0.84107212,-0.84107212,0.52884153,0.52884153,-7.7753813,26.049945)" />
    <linearGradient
       inkscape:collect="always"
       xlink:href="#linearGradient1784"
       id="linearGradient2899"
       x1="15.833116"
       y1="7.7913952"
       x2="27.373871"
       y2="7.7913952"
       gradientUnits="userSpaceOnUse"
       gradientTransform="matrix(1.2116111,0,0,1.1796454,-24.943278,9.2761061)" />
    <radialGradient
       inkscape:collect="always"
       xlink:href="#linearGradient3199-0"
       id="radialGradient3201"
       cx="38.934296"
       cy="7.9552031"
       fx="38.934296"
       fy="7.9552031"
       r="5.019104"
       gradientUnits="userSpaceOnUse"
       gradientTransform="translate(-19.091883,0.26516504)" />
    <linearGradient
       inkscape:collect="always"
       xlink:href="#linearGradient4368"
       id="linearGradient4199"
       x1="12.998047"
       y1="1.4921875"
       x2="12.998047"
       y2="13.054688"
       gradientUnits="userSpaceOnUse"
       gradientTransform="translate(-1.3022226,-0.5342676)" />
    <filter
       inkscape:collect="always"
       style="color-interpolation-filters:sRGB"
       id="filter4767"
       x="-0.108"
       y="-0.108"
       width="1.216"
       height="1.216">
      <feGaussianBlur
         inkscape:collect="always"
         stdDeviation="0.45171936"
         id="feGaussianBlur4769" />
    </filter>
    <filter
       inkscape:collect="always"
       style="color-interpolation-filters:sRGB"
       id="filter4767-1"
       x="-0.108"
       y="-0.108"
       width="1.216"
       height="1.216">
      <feGaussianBlur
         inkscape:collect="always"
         stdDeviation="0.45171936"
         id="feGaussianBlur4769-8" />
    </filter>
    <radialGradient
       inkscape:collect="always"
       xlink:href="#linearGradient3199-0"
       id="radialGradient3201-6"
       cx="38.934296"
       cy="7.9552031"
       fx="38.934296"
       fy="7.9552031"
       r="5.019104"
       gradientUnits="userSpaceOnUse"
       gradientTransform="translate(-19.091883,0.26516504)" />
    <linearGradient
       inkscape:collect="always"
       xlink:href="#linearGradient4368"
       id="linearGradient4998"
       gradientUnits="userSpaceOnUse"
       x1="12.998047"
       y1="1.4921875"
       x2="12.998047"
       y2="13.054688"
       gradientTransform="translate(19.269739,2.1749176)" />
    <filter
       inkscape:collect="always"
       style="color-interpolation-filters:sRGB"
       id="filter4767-4"
       x="-0.108"
       y="-0.108"
       width="1.216"
       height="1.216">
      <feGaussianBlur
         inkscape:collect="always"
         stdDeviation="0.45171936"
         id="feGaussianBlur4769-9" />
    </filter>
    <radialGradient
       inkscape:collect="always"
       xlink:href="#linearGradient3199-0"
       id="radialGradient3201-8"
       cx="38.934296"
       cy="7.9552031"
       fx="38.934296"
       fy="7.9552031"
       r="5.019104"
       gradientUnits="userSpaceOnUse"
       gradientTransform="translate(-19.091883,0.26516504)" />
    <linearGradient
       inkscape:collect="always"
       xlink:href="#linearGradient4368"
       id="linearGradient5140"
       gradientUnits="userSpaceOnUse"
       x1="12.998047"
       y1="1.4921875"
       x2="12.998047"
       y2="13.054688"
       gradientTransform="translate(-2.4776567,20.022189)" />
    <filter
       inkscape:collect="always"
       style="color-interpolation-filters:sRGB"
       id="filter5909"
       x="-0.0749543"
       y="-0.075045746"
       width="1.1499086"
       height="1.1500915">
      <feGaussianBlur
         inkscape:collect="always"
         stdDeviation="1.1044869"
         id="feGaussianBlur5911" />
    </filter>
  </defs>
  <metadata
     id="metadata7">
    <rdf:RDF>
      <cc:Work
         rdf:about="">
        <dc:format>image/svg+xml</dc:format>
        <dc:type
           rdf:resource="http://purl.org/dc/dcmitype/StillImage" />
      </cc:Work>
    </rdf:RDF>
  </metadata>
  <path
     id="rect1038-5"
     style="mix-blend-mode:normal;fill:#000000;fill-opacity:1;stroke-width:0.999998;stroke-linecap:round;stroke-linejoin:round;paint-order:markers stroke fill;filter:url(#filter5909)"
     d="m 15.641134,10.092685 -0.002,0.0039 c 0.0046,0.0029 0.0077,0.0063 0.01172,0.0098 0.01669,0.01648 0.02958,0.04157 0.03711,0.07227 a 1.0306477,4.5878117 47.309497 0 0 -3.779296,2.490234 1.0306477,4.5878117 47.309497 0 0 -2.6054668,3.818359 c -0.00576,-0.004 -0.01296,-0.007 -0.017578,-0.01172 l 6.3359348,6.333984 -0.002,0.002 0.01172,0.0098 0.365234,0.365234 0.01172,0.01172 22.138672,22.138672 0.0039,-0.0059 c 0.0018,0.0059 0.0054,0.01243 0.0078,0.01758 0.254395,0.25765 2.64277,-0.205384 4.402343,-1.964843 1.75946,-1.759576 2.220544,-4.147952 1.962891,-4.402344 -0.004,-0.0036 -0.009,-0.007 -0.01367,-0.0098 l 0.0039,-0.0039 -22.52539,-22.529297 -0.002,0.002 -5.884765,-5.886718 a 1.0306477,4.5878117 47.309497 0 0 -0.07617,-0.304688 1.0306477,4.5878117 47.309497 0 0 -0.302734,-0.07422 z m -6.355466,6.382813 c -0.0025,-0.0051 -0.00426,-0.0097 -0.00586,-0.01563 l -0.00586,0.0059 z" />
  <path
     id="rect1038"
     style="fill:url(#linearGradient2339);fill-opacity:1;stroke-width:0.999998;stroke-linecap:round;stroke-linejoin:round;paint-order:markers stroke fill"
     d="m 15.620501,22.810719 0.01136,0.01136 c -0.0025,-0.0052 -0.0047,-0.0105 -0.0063,-0.01638 z m 0.01136,0.01136 22.514654,22.514617 0.005,-0.005 c 0.0018,0.0059 0.0039,0.01123 0.0063,0.01638 0.254396,0.257649 2.643808,-0.20424 4.403381,-1.963699 1.75946,-1.759576 2.219841,-4.148274 1.962188,-4.402666 -0.004,-0.0036 -0.0083,-0.0069 -0.01299,-0.0097 l 0.0034,-0.0034 -22.525979,-22.529764 -0.0034,0.0034 c 0.0047,0.003 0.0089,0.0063 0.01298,0.0097 0.257649,0.254397 -0.582192,2.267408 -2.341654,4.026985 -1.759575,1.759459 -3.769558,2.600825 -4.02395,2.343172 z"
     sodipodi:nodetypes="cccccccccccccccccc" />
  <path
     id="rect1038-0"
     style="fill:url(#linearGradient1786);fill-opacity:1;stroke-width:0.999998;stroke-linecap:round;stroke-linejoin:round;paint-order:markers stroke fill"
     d="m 9.2746761,16.46487 0.01136,0.01136 c -0.0025,-0.0051 -0.0048,-0.01034 -0.0064,-0.01631 z m 0.01136,0.01136 6.3328809,6.333833 0.0049,-0.005 c 0.0016,0.0059 0.004,0.01117 0.0064,0.01633 0.254396,0.257649 2.265956,-0.583054 4.025528,-2.342515 1.759463,-1.759573 2.597657,-3.769399 2.340036,-4.023824 -0.0041,-0.0035 -0.0083,-0.0068 -0.01298,-0.0097 l 0.0034,-0.0034 -6.344218,-6.348933 -0.0034,0.0034 c 0.0046,0.0029 0.009,0.0062 0.01299,0.0097 0.257649,0.254396 -0.582458,2.267081 -2.341919,4.026656 -1.759573,1.759459 -3.7692816,2.601071 -4.0236729,2.343418 z"
     sodipodi:nodetypes="cccccccccccccccccc" />
  <ellipse
     style="fill:url(#linearGradient2899);fill-opacity:1;stroke-width:1.00133;stroke-linecap:round;stroke-linejoin:round;paint-order:markers stroke fill"
     id="path1062"
     cx="-1.172538"
     cy="18.467182"
     rx="4.587162"
     ry="1.0335355"
     transform="matrix(0.73239049,-0.68088484,0.73239049,0.68088484,0,0)" />
  <path
     sodipodi:type="star"
     style="mix-blend-mode:normal;fill:#000000;fill-opacity:1;stroke-width:0.711724;stroke-linecap:round;stroke-linejoin:round;paint-order:markers stroke fill;filter:url(#filter4767)"
     id="path3083-6"
     inkscape:flatsided="false"
     sodipodi:sides="4"
     sodipodi:cx="19.783117"
     sodipodi:cy="6.7026649"
     sodipodi:r1="5.019104"
     sodipodi:r2="1.7566864"
     sodipodi:arg1="0"
     sodipodi:arg2="0.78539816"
     inkscape:rounded="-2.58474e-16"
     inkscape:randomized="0"
     transform="matrix(1.4050388,0,0,1.4050388,-16.485338,0.49177147)"
     d="M 24.802221,6.7026649 21.025282,7.9448297 19.783117,11.721769 18.540952,7.9448298 14.764013,6.7026649 18.540952,5.4605 19.783117,1.6835608 21.025282,5.4604999 Z" />
  <path
     sodipodi:type="star"
     style="fill:url(#radialGradient3201);fill-opacity:1;stroke-width:0.711724;stroke-linecap:round;stroke-linejoin:round;paint-order:markers stroke fill"
     id="path3083"
     inkscape:flatsided="false"
     sodipodi:sides="4"
     sodipodi:cx="19.783117"
     sodipodi:cy="6.7026649"
     sodipodi:r1="5.019104"
     sodipodi:r2="1.7566864"
     sodipodi:arg1="0"
     sodipodi:arg2="0.78539816"
     inkscape:rounded="-2.58474e-16"
     inkscape:randomized="0"
     d="M 24.802221,6.7026649 21.025282,7.9448297 19.783117,11.721769 18.540952,7.9448298 14.764013,6.7026649 18.540952,5.4605 19.783117,1.6835608 21.025282,5.4604999 Z"
     transform="matrix(1.4050388,0,0,1.4050388,-16.485338,0.49177147)" />
  <path
     id="path3083-0"
     style="fill:url(#linearGradient4199);fill-opacity:1;stroke-width:1;stroke-linecap:round;stroke-linejoin:round;paint-order:markers stroke fill"
     d="m 11.311056,3.4813574 -1.5917946,4.837891 -4.8359371,1.589843 2.5175781,0.8281246 a 12.3125,2.5 0 0 0 3.9101536,0.134766 12.3125,2.5 0 0 0 3.90625,-0.134766 L 17.736837,9.9090914 12.9009,8.3192484 Z" />
  <path
     sodipodi:type="star"
     style="fill:#000000;fill-opacity:1;stroke-width:0.711724;stroke-linecap:round;stroke-linejoin:round;paint-order:markers stroke fill;filter:url(#filter4767-1)"
     id="path3083-6-6"
     inkscape:flatsided="false"
     sodipodi:sides="4"
     sodipodi:cx="19.783117"
     sodipodi:cy="6.7026649"
     sodipodi:r1="5.019104"
     sodipodi:r2="1.7566864"
     sodipodi:arg1="0"
     sodipodi:arg2="0.78539816"
     inkscape:rounded="-2.58474e-16"
     inkscape:randomized="0"
     transform="matrix(1.4050388,0,0,1.4050388,4.0866285,3.2009567)"
     d="M 24.802221,6.7026649 21.025282,7.9448297 19.783117,11.721769 18.540952,7.9448298 14.764013,6.7026649 18.540952,5.4605 19.783117,1.6835608 21.025282,5.4604999 Z" />
  <path
     sodipodi:type="star"
     style="fill:url(#radialGradient3201-6);fill-opacity:1;stroke-width:0.711724;stroke-linecap:round;stroke-linejoin:round;paint-order:markers stroke fill"
     id="path3083-04"
     inkscape:flatsided="false"
     sodipodi:sides="4"
     sodipodi:cx="19.783117"
     sodipodi:cy="6.7026649"
     sodipodi:r1="5.019104"
     sodipodi:r2="1.7566864"
     sodipodi:arg1="0"
     sodipodi:arg2="0.78539816"
     inkscape:rounded="-2.58474e-16"
     inkscape:randomized="0"
     transform="matrix(1.4050388,0,0,1.4050388,4.0866285,3.2009567)"
     d="M 24.802221,6.7026649 21.025282,7.9448297 19.783117,11.721769 18.540952,7.9448298 14.764013,6.7026649 18.540952,5.4605 19.783117,1.6835608 21.025282,5.4604999 Z" />
  <path
     id="path3083-0-6"
     style="fill:url(#linearGradient4998);fill-opacity:1;stroke-width:1;stroke-linecap:round;stroke-linejoin:round;paint-order:markers stroke fill"
     d="m 31.88302,6.1905426 -1.591797,4.8378904 -4.835937,1.589843 2.517578,0.828125 a 12.3125,2.5 0 0 0 3.910156,0.134766 12.3125,2.5 0 0 0 3.90625,-0.134766 l 2.519531,-0.828125 -4.835937,-1.589843 z" />
  <path
     sodipodi:type="star"
     style="fill:#000000;fill-opacity:1;stroke-width:0.711724;stroke-linecap:round;stroke-linejoin:round;paint-order:markers stroke fill;filter:url(#filter4767-4)"
     id="path3083-6-9"
     inkscape:flatsided="false"
     sodipodi:sides="4"
     sodipodi:cx="19.783117"
     sodipodi:cy="6.7026649"
     sodipodi:r1="5.019104"
     sodipodi:r2="1.7566864"
     sodipodi:arg1="0"
     sodipodi:arg2="0.78539816"
     inkscape:rounded="-2.58474e-16"
     inkscape:randomized="0"
     transform="matrix(1.4050388,0,0,1.4050388,-17.660772,21.048228)"
     d="M 24.802221,6.7026649 21.025282,7.9448297 19.783117,11.721769 18.540952,7.9448298 14.764013,6.7026649 18.540952,5.4605 19.783117,1.6835608 21.025282,5.4604999 Z" />
  <path
     sodipodi:type="star"
     style="fill:url(#radialGradient3201-8);fill-opacity:1;stroke-width:0.711724;stroke-linecap:round;stroke-linejoin:round;paint-order:markers stroke fill"
     id="path3083-1"
     inkscape:flatsided="false"
     sodipodi:sides="4"
     sodipodi:cx="19.783117"
     sodipodi:cy="6.7026649"
     sodipodi:r1="5.019104"
     sodipodi:r2="1.7566864"
     sodipodi:arg1="0"
     sodipodi:arg2="0.78539816"
     inkscape:rounded="-2.58474e-16"
     inkscape:randomized="0"
     transform="matrix(1.4050388,0,0,1.4050388,-17.660772,21.048228)"
     d="M 24.802221,6.7026649 21.025282,7.9448297 19.783117,11.721769 18.540952,7.9448298 14.764013,6.7026649 18.540952,5.4605 19.783117,1.6835608 21.025282,5.4604999 Z" />
  <path
     id="path3083-0-9"
     style="fill:url(#linearGradient5140);fill-opacity:1;stroke-width:1;stroke-linecap:round;stroke-linejoin:round;paint-order:markers stroke fill"
     d="m 10.135623,24.037814 -1.5917957,4.837891 -4.8359371,1.589843 2.5175781,0.828125 a 12.3125,2.5 0 0 0 3.9101547,0.134766 12.3125,2.5 0 0 0 3.906249,-0.134766 l 2.519531,-0.828125 -4.835937,-1.589843 z" />
</svg>
