<?xml version="1.0" encoding="UTF-8" standalone="no"?>
<svg
   xmlns:dc="http://purl.org/dc/elements/1.1/"
   xmlns:cc="http://creativecommons.org/ns#"
   xmlns:rdf="http://www.w3.org/1999/02/22-rdf-syntax-ns#"
   xmlns:svg="http://www.w3.org/2000/svg"
   xmlns="http://www.w3.org/2000/svg"
   xmlns:xlink="http://www.w3.org/1999/xlink"
   height="100%"
   width="100%"
   version="1.1"
   id="svg2"
   viewBox="0,0,48,48">
  <defs
     id="defs4">
    <linearGradient
       id="linearGradient4255">
      <stop
         style="stop-color:#890000;stop-opacity:1"
         offset="0"
         id="stop4257" />
      <stop
         style="stop-color:#ff0000;stop-opacity:1"
         offset="1"
         id="stop4259" />
    </linearGradient>
    <linearGradient
       xlink:href="#linearGradient4255"
       id="linearGradient4261"
       x1="23.429644"
       y1="7.1065989"
       x2="23.429644"
       y2="40.893402"
       gradientUnits="userSpaceOnUse"
       gradientTransform="matrix(1.2232766,0,0,1.2232766,-5.3586377,-5.3586376)" />
    <filter
       style="color-interpolation-filters:sRGB"
       id="filter4343"
       x="-0.084000001"
       width="1.168"
       y="-0.083999999"
       height="1.168">
      <feGaussianBlur
         stdDeviation="1.1712955"
         id="feGaussianBlur4345" />
    </filter>
  </defs>
  <metadata
     id="metadata7">
    <rdf:RDF>
      <cc:Work
         rdf:about="">
        <dc:format>image/svg+xml</dc:format>
        <dc:type
           rdf:resource="http://purl.org/dc/dcmitype/StillImage" />
        <dc:title></dc:title>
      </cc:Work>
    </rdf:RDF>
  </metadata>
  <path
     style="opacity:1;fill:#454545;fill-opacity:1;stroke:none;stroke-width:0.1;stroke-linecap:round;stroke-linejoin:miter;stroke-miterlimit:4;stroke-dasharray:none;stroke-opacity:1"
     d="M 7.9146299,3.5399826 C 6.730524,3.4733171 5.5717157,3.8592342 4.7154751,4.7154749 3.0029937,6.4279563 3.1666022,9.3498833 5.0834137,11.266694 L 17.815525,23.998805 5.0834137,36.733305 c -1.9168115,1.916812 -2.08042,4.838739 -0.3679386,6.55122 1.7124814,1.712482 4.6344081,1.548873 6.5512199,-0.367939 l 12.732111,-12.7345 12.7345,12.7345 c 1.916812,1.916812 4.838738,2.080421 6.55122,0.367939 1.712481,-1.712481 1.548872,-4.634408 -0.36794,-6.55122 l -12.7345,-12.7345 12.7345,-12.732111 C 44.833398,9.3498833 44.997007,6.4279563 43.284526,4.7154749 41.572044,3.0029935 38.650118,3.166602 36.733306,5.0834135 L 23.998806,17.815525 11.266695,5.0834135 C 10.308289,4.1250078 9.098736,3.606648 7.9146299,3.5399826 Z"
     id="rect4237" />
</svg>
