<?xml version="1.0" encoding="UTF-8" standalone="no"?>
<svg
   xmlns:dc="http://purl.org/dc/elements/1.1/"
   xmlns:cc="http://creativecommons.org/ns#"
   xmlns:rdf="http://www.w3.org/1999/02/22-rdf-syntax-ns#"
   xmlns:svg="http://www.w3.org/2000/svg"
   xmlns="http://www.w3.org/2000/svg"
   xmlns:xlink="http://www.w3.org/1999/xlink"
   viewBox="0,0,48,48"
   id="svg2"
   version="1.1"
   width="100%"
   height="100%">
  <defs
     id="defs4">
    <linearGradient
       id="linearGradient13351">
      <stop
         id="stop13353"
         offset="0"
         style="stop-color:#0ad849;stop-opacity:1" />
      <stop
         id="stop13355"
         offset="1"
         style="stop-color:#109238;stop-opacity:1" />
    </linearGradient>
    <linearGradient
       xlink:href="#linearGradient13351"
       id="linearGradient4173"
       x1="23.592638"
       y1="51.624886"
       x2="23.592638"
       y2="2.7266526"
       gradientUnits="userSpaceOnUse"
       gradientTransform="matrix(3.241679,0,0,1,-53.745214,-3.0201853)" />
    <filter
       style="color-interpolation-filters:sRGB"
       id="filter4265"
       x="-0.072"
       width="1.144"
       y="-0.072"
       height="1.144">
      <feGaussianBlur
         stdDeviation="1.2921094"
         id="feGaussianBlur4267" />
    </filter>
  </defs>
  <metadata
     id="metadata7">
    <rdf:RDF>
      <cc:Work
         rdf:about="">
        <dc:format>image/svg+xml</dc:format>
        <dc:type
           rdf:resource="http://purl.org/dc/dcmitype/StillImage" />
        <dc:title></dc:title>
      </cc:Work>
    </rdf:RDF>
  </metadata>
  <path
     style="opacity:1;fill:#444444;fill-opacity:1;stroke:none;stroke-width:0.1;stroke-linecap:round;stroke-linejoin:miter;stroke-miterlimit:4;stroke-dasharray:none;stroke-opacity:1"
     d="M 23.837891 2.4648438 C 21.621891 2.4648438 19.837891 4.2488437 19.837891 6.4648438 L 19.837891 19.837891 L 6.4648438 19.837891 C 4.2488437 19.837891 2.4648438 21.621891 2.4648438 23.837891 L 2.4648438 24.162109 C 2.4648438 26.378109 4.2488437 28.162109 6.4648438 28.162109 L 19.837891 28.162109 L 19.837891 41.535156 C 19.837891 43.751156 21.621891 45.535156 23.837891 45.535156 L 24.162109 45.535156 C 26.378109 45.535156 28.162109 43.751156 28.162109 41.535156 L 28.162109 28.162109 L 41.535156 28.162109 C 43.751156 28.162109 45.535156 26.378109 45.535156 24.162109 L 45.535156 23.837891 C 45.535156 21.621891 43.751156 19.837891 41.535156 19.837891 L 28.162109 19.837891 L 28.162109 6.4648438 C 28.162109 4.2488437 26.378109 2.4648438 24.162109 2.4648438 L 23.837891 2.4648438 z "
     id="rect4165" />
</svg>
