<?xml version="1.0" encoding="UTF-8" standalone="no"?>
<svg
   xmlns:osb="http://www.openswatchbook.org/uri/2009/osb"
   xmlns:dc="http://purl.org/dc/elements/1.1/"
   xmlns:cc="http://creativecommons.org/ns#"
   xmlns:rdf="http://www.w3.org/1999/02/22-rdf-syntax-ns#"
   xmlns:svg="http://www.w3.org/2000/svg"
   xmlns="http://www.w3.org/2000/svg"
   xmlns:xlink="http://www.w3.org/1999/xlink"
   height="100%"
   width="100%"
   version="1.1"
   id="svg2"
   viewBox="0,0,48,48">
  <defs
     id="defs4">
    <linearGradient
       id="linearGradient7579">
      <stop
         style="stop-color:#cc950b;stop-opacity:1"
         offset="0"
         id="stop7581" />
      <stop
         style="stop-color:#ffffff;stop-opacity:1"
         offset="1"
         id="stop7583" />
    </linearGradient>
    <linearGradient
       id="linearGradient7537">
      <stop
         id="stop7539"
         offset="0"
         style="stop-color:#cc0b0b;stop-opacity:1" />
      <stop
         id="stop7541"
         offset="1"
         style="stop-color:#ffffff;stop-opacity:1" />
    </linearGradient>
    <marker
       style="overflow:visible;"
       id="Arrow2Send"
       refX="0.0"
       refY="0.0"
       orient="auto">
      <path
         transform="scale(0.3) rotate(180) translate(-2.3,0)"
         d="M 8.7185878,4.0337352 L -2.2072895,0.016013256 L 8.7185884,-4.0017078 C 6.9730900,-1.6296469 6.9831476,1.6157441 8.7185878,4.0337352 z "
         style="fill-rule:evenodd;stroke-width:0.62500000;stroke-linejoin:round;"
         id="path5154" />
    </marker>
    <marker
       style="overflow:visible"
       id="Arrow2Mstart"
       refX="0.0"
       refY="0.0"
       orient="auto">
      <path
         transform="scale(0.6) translate(0,0)"
         d="M 8.7185878,4.0337352 L -2.2072895,0.016013256 L 8.7185884,-4.0017078 C 6.9730900,-1.6296469 6.9831476,1.6157441 8.7185878,4.0337352 z "
         style="fill-rule:evenodd;stroke-width:0.62500000;stroke-linejoin:round"
         id="path5145" />
    </marker>
    <marker
       style="overflow:visible"
       id="Arrow2Sstart"
       refX="0.0"
       refY="0.0"
       orient="auto">
      <path
         transform="scale(0.3) translate(-2.3,0)"
         d="M 8.7185878,4.0337352 L -2.2072895,0.016013256 L 8.7185884,-4.0017078 C 6.9730900,-1.6296469 6.9831476,1.6157441 8.7185878,4.0337352 z "
         style="fill-rule:evenodd;stroke-width:0.62500000;stroke-linejoin:round"
         id="path5151" />
    </marker>
    <linearGradient
       osb:paint="solid"
       id="linearGradient6338">
      <stop
         id="stop6340"
         offset="0"
         style="stop-color:#000000;stop-opacity:1;" />
    </linearGradient>
    <linearGradient
       id="linearGradient6320">
      <stop
         id="stop6322"
         offset="0"
         style="stop-color:#000000;stop-opacity:1;" />
      <stop
         id="stop6324"
         offset="1"
         style="stop-color:#000000;stop-opacity:0;" />
    </linearGradient>
    <marker
       style="overflow:visible;"
       id="Arrow2Lend"
       refX="0.0"
       refY="0.0"
       orient="auto">
      <path
         transform="scale(1.1) rotate(180) translate(1,0)"
         d="M 8.7185878,4.0337352 L -2.2072895,0.016013256 L 8.7185884,-4.0017078 C 6.9730900,-1.6296469 6.9831476,1.6157441 8.7185878,4.0337352 z "
         style="fill-rule:evenodd;stroke-width:0.62500000;stroke-linejoin:round;"
         id="path5142" />
    </marker>
    <marker
       style="overflow:visible;"
       id="Arrow1Lend"
       refX="0.0"
       refY="0.0"
       orient="auto">
      <path
         transform="scale(0.8) rotate(180) translate(12.5,0)"
         style="fill-rule:evenodd;stroke:#000000;stroke-width:1.0pt;"
         d="M 0.0,0.0 L 5.0,-5.0 L -12.5,0.0 L 5.0,5.0 L 0.0,0.0 z "
         id="path5124" />
    </marker>
    <marker
       style="overflow:visible"
       id="Arrow1Lstart"
       refX="0.0"
       refY="0.0"
       orient="auto">
      <path
         transform="scale(0.8) translate(12.5,0)"
         style="fill-rule:evenodd;stroke:#000000;stroke-width:1.0pt"
         d="M 0.0,0.0 L 5.0,-5.0 L -12.5,0.0 L 5.0,5.0 L 0.0,0.0 z "
         id="path5121" />
    </marker>
    <marker
       style="overflow:visible"
       id="Arrow2Lstart"
       refX="0.0"
       refY="0.0"
       orient="auto">
      <path
         transform="scale(1.1) translate(1,0)"
         d="M 8.7185878,4.0337352 L -2.2072895,0.016013256 L 8.7185884,-4.0017078 C 6.9730900,-1.6296469 6.9831476,1.6157441 8.7185878,4.0337352 z "
         style="fill-rule:evenodd;stroke-width:0.62500000;stroke-linejoin:round"
         id="path5139" />
    </marker>
    <linearGradient
       id="linearGradient3765">
      <stop
         id="stop3767"
         offset="0"
         style="stop-color:#aabdcc;stop-opacity:1" />
      <stop
         id="stop3769"
         offset="1"
         style="stop-color:#dfe3e6;stop-opacity:1" />
    </linearGradient>
    <linearGradient
       id="linearGradient3755">
      <stop
         id="stop3757"
         offset="0"
         style="stop-color:#0099ff;stop-opacity:1" />
      <stop
         id="stop3759"
         offset="1"
         style="stop-color:#e6f5ff;stop-opacity:1" />
    </linearGradient>
    <linearGradient
       gradientTransform="matrix(1.3892227,0,0,1.3892227,-0.21643165,996.65971)"
       gradientUnits="userSpaceOnUse"
       y2="8.8886719"
       x2="4.4921875"
       y1="29.494141"
       x1="29.101562"
       id="linearGradient3761"
       xlink:href="#linearGradient3755" />
    <linearGradient
       gradientTransform="matrix(1.4791724,0,0,1.5121628,-1.8566274,-524.75845)"
       gradientUnits="userSpaceOnUse"
       y2="1036.2489"
       x2="34.277344"
       y1="1012.9488"
       x1="3.335489"
       id="linearGradient3771"
       xlink:href="#linearGradient3765" />
    <linearGradient
       gradientTransform="matrix(1.3892227,0,0,1.3892227,-0.2842649,-398.82666)"
       gradientUnits="userSpaceOnUse"
       y2="1043.6997"
       x2="24.792969"
       y1="1036.4731"
       x1="13.292969"
       id="linearGradient3828"
       xlink:href="#linearGradient3765" />
    <linearGradient
       gradientTransform="translate(0.0488282,1004.5087)"
       gradientUnits="userSpaceOnUse"
       y2="8.8886719"
       x2="4.4921875"
       y1="29.494141"
       x1="29.101562"
       id="linearGradient3761-8"
       xlink:href="#linearGradient3755-8" />
    <linearGradient
       id="linearGradient3755-8">
      <stop
         id="stop3757-2"
         offset="0"
         style="stop-color:#0099ff;stop-opacity:1" />
      <stop
         id="stop3759-7"
         offset="1"
         style="stop-color:#ffffff;stop-opacity:1" />
    </linearGradient>
    <linearGradient
       gradientTransform="matrix(1.0647482,0,0,1.0884956,-1.1318289,-90.649063)"
       gradientUnits="userSpaceOnUse"
       y2="1036.2489"
       x2="34.277344"
       y1="1012.9488"
       x1="3.335489"
       id="linearGradient3771-7"
       xlink:href="#linearGradient3765-1" />
    <linearGradient
       id="linearGradient3765-1">
      <stop
         id="stop3767-2"
         offset="0"
         style="stop-color:#aabdcc;stop-opacity:1" />
      <stop
         id="stop3769-6"
         offset="1"
         style="stop-color:#dfe3e6;stop-opacity:1" />
    </linearGradient>
    <linearGradient
       gradientUnits="userSpaceOnUse"
       y2="1043.6997"
       x2="24.792969"
       y1="1036.4731"
       x1="13.292969"
       id="linearGradient3828-0"
       xlink:href="#linearGradient3765-1" />
    <linearGradient
       xlink:href="#linearGradient3765-1"
       id="linearGradient3858"
       gradientUnits="userSpaceOnUse"
       x1="13.292969"
       y1="1036.4731"
       x2="24.792969"
       y2="1043.6997"
       gradientTransform="translate(0,-1004.3622)" />
    <linearGradient
       gradientTransform="translate(0.0488282,1004.5087)"
       gradientUnits="userSpaceOnUse"
       y2="8.8886719"
       x2="4.4921875"
       y1="29.494141"
       x1="29.101562"
       id="linearGradient3761-6"
       xlink:href="#linearGradient3755-0" />
    <linearGradient
       id="linearGradient3755-0">
      <stop
         id="stop3757-3"
         offset="0"
         style="stop-color:#0099ff;stop-opacity:1" />
      <stop
         id="stop3759-6"
         offset="1"
         style="stop-color:#ffffff;stop-opacity:1" />
    </linearGradient>
    <linearGradient
       gradientTransform="matrix(1.0647482,0,0,1.0884956,-1.1318289,-90.649101)"
       gradientUnits="userSpaceOnUse"
       y2="1036.2489"
       x2="34.277344"
       y1="1012.9488"
       x1="3.335489"
       id="linearGradient3771-2"
       xlink:href="#linearGradient3765-4" />
    <linearGradient
       id="linearGradient3765-4">
      <stop
         id="stop3767-5"
         offset="0"
         style="stop-color:#aabdcc;stop-opacity:1" />
      <stop
         id="stop3769-8"
         offset="1"
         style="stop-color:#dfe3e6;stop-opacity:1" />
    </linearGradient>
    <linearGradient
       xlink:href="#linearGradient3765-4"
       id="linearGradient3940"
       gradientUnits="userSpaceOnUse"
       gradientTransform="matrix(1.0647482,0,0,1.0884956,-1.1318289,-1095.0113)"
       x1="3.335489"
       y1="1012.9488"
       x2="34.277344"
       y2="1036.2489" />
    <linearGradient
       gradientUnits="userSpaceOnUse"
       y2="1043.6997"
       x2="24.792969"
       y1="1036.4731"
       x1="13.292969"
       id="linearGradient3828-2"
       xlink:href="#linearGradient3765-14" />
    <linearGradient
       id="linearGradient3765-14">
      <stop
         id="stop3767-9"
         offset="0"
         style="stop-color:#aabdcc;stop-opacity:1" />
      <stop
         id="stop3769-82"
         offset="1"
         style="stop-color:#dfe3e6;stop-opacity:1" />
    </linearGradient>
    <linearGradient
       gradientUnits="userSpaceOnUse"
       y2="1012.4208"
       x2="-22.488483"
       y1="1022.9677"
       x1="-19.11309"
       id="linearGradient6326"
       xlink:href="#linearGradient6320" />
    <linearGradient
       gradientTransform="translate(-2.3085938,1006.1199)"
       gradientUnits="userSpaceOnUse"
       y2="17.226562"
       x2="-19.34375"
       y1="17.421875"
       x1="-14.222656"
       id="linearGradient7543"
       xlink:href="#linearGradient7537" />
    <linearGradient
       gradientTransform="translate(44.433594,1008.659)"
       gradientUnits="userSpaceOnUse"
       y2="17.226562"
       x2="-19.34375"
       y1="17.421875"
       x1="-14.222656"
       id="linearGradient7543-2"
       xlink:href="#linearGradient7537-1" />
    <linearGradient
       id="linearGradient7537-1">
      <stop
         id="stop7539-4"
         offset="0"
         style="stop-color:#cc0b0b;stop-opacity:1" />
      <stop
         id="stop7541-8"
         offset="1"
         style="stop-color:#ffffff;stop-opacity:1" />
    </linearGradient>
    <linearGradient
       xlink:href="#linearGradient7579"
       id="linearGradient7560"
       gradientUnits="userSpaceOnUse"
       gradientTransform="matrix(0,-1,1,0,-36.855469,1007.198)"
       x1="-19.984375"
       y1="14.199219"
       x2="-14.558594"
       y2="14.101562" />
    <linearGradient
       xlink:href="#linearGradient7579-8"
       id="linearGradient7560-5"
       gradientUnits="userSpaceOnUse"
       gradientTransform="matrix(0,-1,1,0,-36.855469,1007.198)"
       x1="-19.984375"
       y1="14.199219"
       x2="-14.558594"
       y2="14.101562" />
    <linearGradient
       id="linearGradient7579-8">
      <stop
         style="stop-color:#cc950b;stop-opacity:1"
         offset="0"
         id="stop7581-4" />
      <stop
         style="stop-color:#ffffff;stop-opacity:1"
         offset="1"
         id="stop7583-0" />
    </linearGradient>
    <linearGradient
       gradientTransform="translate(-2.3085938,1006.1199)"
       gradientUnits="userSpaceOnUse"
       y2="17.226562"
       x2="-19.34375"
       y1="17.421875"
       x1="-14.222656"
       id="linearGradient7543-4"
       xlink:href="#linearGradient7537-7" />
    <linearGradient
       id="linearGradient7537-7">
      <stop
         id="stop7539-2"
         offset="0"
         style="stop-color:#cc0b0b;stop-opacity:1" />
      <stop
         id="stop7541-1"
         offset="1"
         style="stop-color:#ffffff;stop-opacity:1" />
    </linearGradient>
    <linearGradient
       y2="17.226562"
       x2="-19.34375"
       y1="17.421875"
       x1="-14.222656"
       gradientTransform="translate(-2.3085938,1006.1199)"
       gradientUnits="userSpaceOnUse"
       id="linearGradient7737"
       xlink:href="#linearGradient7537" />
    <linearGradient
       y2="14.101562"
       x2="-14.558594"
       y1="14.199219"
       x1="-19.984375"
       gradientTransform="matrix(0,-1,1,0,-36.855469,1007.198)"
       gradientUnits="userSpaceOnUse"
       id="linearGradient7739"
       xlink:href="#linearGradient7579" />
    <filter
       id="filter7791">
      <feGaussianBlur
         id="feGaussianBlur7793"
         stdDeviation="0.81921499" />
    </filter>
    <linearGradient
       id="linearGradient4275">
      <stop
         id="stop4277"
         offset="0"
         style="stop-color:#ffffff;stop-opacity:1" />
      <stop
         id="stop4279"
         offset="1"
         style="stop-color:#ffffff;stop-opacity:0" />
    </linearGradient>
    <linearGradient
       id="linearGradient5736">
      <stop
         id="stop5738"
         offset="0"
         style="stop-color:#c3c3c3;stop-opacity:1" />
      <stop
         id="stop5740"
         offset="1"
         style="stop-color:#ffffff;stop-opacity:1;" />
    </linearGradient>
    <linearGradient
       gradientUnits="userSpaceOnUse"
       y2="8.078125"
       x2="9.9570312"
       y1="41.769531"
       x1="37.976562"
       id="linearGradient5742"
       xlink:href="#linearGradient5736" />
    <linearGradient
       gradientUnits="userSpaceOnUse"
       y2="1019.0466"
       x2="29.488289"
       y1="1012.6989"
       x1="36.402351"
       id="linearGradient5796-6"
       xlink:href="#linearGradient5736" />
    <filter
       id="filter4209"
       style="color-interpolation-filters:sRGB;">
      <feMorphology
         id="feMorphology4211"
         result="result91"
         in="SourceAlpha"
         radius="4.3" />
      <feComposite
         id="feComposite4213"
         in2="result91"
         in="SourceGraphic"
         operator="out" />
      <feGaussianBlur
         id="feGaussianBlur4215"
         stdDeviation="1.2"
         result="result0" />
      <feDiffuseLighting
         id="feDiffuseLighting4217"
         diffuseConstant="1">
        <feDistantLight
           id="feDistantLight4219"
           azimuth="225"
           elevation="66" />
      </feDiffuseLighting>
      <feBlend
         id="feBlend4221"
         in2="SourceGraphic"
         mode="multiply" />
      <feComposite
         id="feComposite4223"
         in2="SourceAlpha"
         operator="in" />
    </filter>
    <filter
       id="filter4209-6"
       style="color-interpolation-filters:sRGB">
      <feMorphology
         id="feMorphology4211-7"
         result="result91"
         in="SourceAlpha"
         radius="4.3" />
      <feComposite
         id="feComposite4213-0"
         in2="result91"
         in="SourceGraphic"
         operator="out" />
      <feGaussianBlur
         id="feGaussianBlur4215-9"
         stdDeviation="1.2"
         result="result0" />
      <feDiffuseLighting
         id="feDiffuseLighting4217-3"
         diffuseConstant="1">
        <feDistantLight
           id="feDistantLight4219-8"
           azimuth="225"
           elevation="66" />
      </feDiffuseLighting>
      <feBlend
         id="feBlend4221-5"
         in2="SourceGraphic"
         mode="multiply" />
      <feComposite
         id="feComposite4223-0"
         in2="SourceAlpha"
         operator="in" />
    </filter>
    <linearGradient
       gradientTransform="matrix(1.2405712,0,0,1.2425928,0.09586374,1009.2985)"
       gradientUnits="userSpaceOnUse"
       y2="34.839916"
       x2="23.36586"
       y1="-14.574146"
       x1="23.36586"
       id="linearGradient4281"
       xlink:href="#linearGradient4275" />
    <filter
       id="filter4209-5"
       style="color-interpolation-filters:sRGB">
      <feMorphology
         id="feMorphology4211-0"
         result="result91"
         in="SourceAlpha"
         radius="4.3" />
      <feComposite
         id="feComposite4213-8"
         in2="result91"
         in="SourceGraphic"
         operator="out" />
      <feGaussianBlur
         id="feGaussianBlur4215-4"
         stdDeviation="1.2"
         result="result0" />
      <feDiffuseLighting
         id="feDiffuseLighting4217-8"
         diffuseConstant="1">
        <feDistantLight
           id="feDistantLight4219-2"
           azimuth="225"
           elevation="66" />
      </feDiffuseLighting>
      <feBlend
         id="feBlend4221-1"
         in2="SourceGraphic"
         mode="multiply" />
      <feComposite
         id="feComposite4223-7"
         in2="SourceAlpha"
         operator="in" />
    </filter>
    <linearGradient
       gradientTransform="matrix(1.0007174,0,0,1.0023225,-15.988581,992.97109)"
       gradientUnits="userSpaceOnUse"
       y2="34.839916"
       x2="23.36586"
       y1="-14.574146"
       x1="23.36586"
       id="linearGradient4281-0"
       xlink:href="#linearGradient4275" />
    <filter
       id="filter4209-0"
       style="color-interpolation-filters:sRGB">
      <feMorphology
         id="feMorphology4211-2"
         result="result91"
         in="SourceAlpha"
         radius="4.3" />
      <feComposite
         id="feComposite4213-7"
         in2="result91"
         in="SourceGraphic"
         operator="out" />
      <feGaussianBlur
         id="feGaussianBlur4215-2"
         stdDeviation="1.2"
         result="result0" />
      <feDiffuseLighting
         id="feDiffuseLighting4217-4"
         diffuseConstant="1">
        <feDistantLight
           id="feDistantLight4219-7"
           azimuth="225"
           elevation="66" />
      </feDiffuseLighting>
      <feBlend
         id="feBlend4221-2"
         in2="SourceGraphic"
         mode="multiply" />
      <feComposite
         id="feComposite4223-4"
         in2="SourceAlpha"
         operator="in" />
    </filter>
    <filter
       height="1.1192794"
       y="-0.059639719"
       width="1.1207306"
       x="-0.060365299"
       id="filter4443"
       style="color-interpolation-filters:sRGB">
      <feGaussianBlur
         id="feGaussianBlur4445"
         stdDeviation="0.87194448" />
    </filter>
    <filter
       id="filter4209-5-8"
       style="color-interpolation-filters:sRGB">
      <feMorphology
         id="feMorphology4211-0-5"
         result="result91"
         in="SourceAlpha"
         radius="4.3" />
      <feComposite
         id="feComposite4213-8-9"
         in2="result91"
         in="SourceGraphic"
         operator="out" />
      <feGaussianBlur
         id="feGaussianBlur4215-4-3"
         stdDeviation="1.2"
         result="result0" />
      <feDiffuseLighting
         id="feDiffuseLighting4217-8-3"
         diffuseConstant="1">
        <feDistantLight
           id="feDistantLight4219-2-0"
           azimuth="225"
           elevation="66" />
      </feDiffuseLighting>
      <feBlend
         id="feBlend4221-1-9"
         in2="SourceGraphic"
         mode="multiply" />
      <feComposite
         id="feComposite4223-7-9"
         in2="SourceAlpha"
         operator="in" />
    </filter>
    <filter
       height="1.1192794"
       y="-0.059639713"
       width="1.1207306"
       x="-0.060365294"
       id="filter4509"
       style="color-interpolation-filters:sRGB">
      <feGaussianBlur
         id="feGaussianBlur4511"
         stdDeviation="0.8719444" />
    </filter>
  </defs>
  <metadata
     id="metadata7">
    <rdf:RDF>
      <cc:Work
         rdf:about="">
        <dc:format>image/svg+xml</dc:format>
        <dc:type
           rdf:resource="http://purl.org/dc/dcmitype/StillImage" />
        <dc:title></dc:title>
      </cc:Work>
    </rdf:RDF>
  </metadata>
  <g
     transform="translate(0,-1004.3622)"
     id="layer1">
    <g
       transform="matrix(1.1272173,0,0,1.1272173,-3.0532152,-130.33008)"
       id="g7795">
      <rect
         style="fill:#000000;fill-opacity:1;fill-rule:evenodd;stroke:none;filter:url(#filter7791)"
         id="rect7741-9"
         width="37.5"
         height="27.441406"
         x="5.25"
         y="1014.202"
         rx="0.77064544" />
      <rect
         style="opacity:0.86000001;fill:#47a2cd;fill-opacity:1;fill-rule:evenodd;stroke:none"
         id="rect7741"
         width="37.5"
         height="27.441406"
         x="5.25"
         y="1014.202"
         rx="0.77064544" />
      <rect
         style="fill:#ffffff;fill-opacity:1;fill-rule:evenodd;stroke:none"
         id="rect7743"
         width="36.132812"
         height="23.897364"
         x="5.9335938"
         y="1017.1136"
         rx="0"
         ry="0" />
      <path
         style="fill:none;stroke:#ffffff;stroke-width:1.01536393px;stroke-linecap:butt;stroke-linejoin:miter;stroke-opacity:1"
         d="m 17.896484,1015.6435 c 12.207031,0 12.207031,0 12.207031,0"
         id="path7747" />
    </g>
    <g
       transform="matrix(0.57097229,0,0,0.57097229,10.213673,443.11516)"
       id="layer1-4">
      <g
         id="g4513">
        <path
           style="fill:#000000;fill-opacity:1;fill-rule:evenodd;stroke:none;stroke-width:1px;stroke-linecap:butt;stroke-linejoin:miter;stroke-opacity:1;filter:url(#filter4509)"
           d="m 25.197265,1010.819 c -2.854298,0.075 -0.516242,3.3557 -4.052735,4.1075 -3.772259,0.8018 -2.609362,-3.7447 -5.949219,-1.8165 -3.339856,1.9283 1.176228,3.1946 -1.404296,6.0606 -2.580526,2.866 -4.3103131,-1.4938 -5.8789071,2.0293 -1.5685939,3.5231 2.8288991,1.8911 2.4257821,5.7266 -0.4031187,3.8354 -4.3662722,1.3254 -3.564454,5.0976 0.8018181,3.7723 3.401812,-0.1328 5.330079,3.207 1.928267,3.3399 -2.7526828,3.6383 0.113281,6.2188 2.865963,2.5805 2.672194,-2.1077 6.195312,-0.5391 3.52312,1.5686 -0.08931,4.5618 3.746094,4.9649 3.835407,0.4031 0.925007,-3.2763 4.697266,-4.0782 3.772259,-0.8018 2.609362,3.7447 5.949219,1.8165 3.339856,-1.9283 -1.176228,-3.1946 1.404296,-6.0606 2.580526,-2.866 4.310313,1.4938 5.878907,-2.0293 1.568593,-3.5231 -2.828899,-1.8911 -2.425782,-5.7266 0.403118,-3.8354 4.366272,-1.3253 3.564453,-5.0976 -0.801818,-3.7723 -3.401811,0.1328 -5.330078,-3.207 -1.928267,-3.3399 2.752682,-3.6383 -0.113281,-6.2188 -2.865963,-2.5805 -2.672194,2.1077 -6.195312,0.5391 -3.52312,-1.5686 0.08931,-4.5618 -3.746094,-4.9649 -0.239713,-0.025 -0.454245,-0.034 -0.644531,-0.029 z m -1.197266,9.6328 a 7.9101562,7.9101562 0 0 1 7.910156,7.9102 7.9101562,7.9101562 0 0 1 -7.910156,7.9102 7.9101562,7.9101562 0 0 1 -7.910156,-7.9102 7.9101562,7.9101562 0 0 1 7.910156,-7.9102 z"
           id="path4155-5-5"
           transform="matrix(0.57138189,0,0,0.57229835,2.8667094,432.3192)" />
        <path
           style="fill:#a0a0a0;fill-opacity:1;fill-rule:evenodd;stroke:none;stroke-width:1px;stroke-linecap:butt;stroke-linejoin:miter;stroke-opacity:1"
           d="m 25.197265,1010.819 c -2.854298,0.075 -0.516242,3.3557 -4.052735,4.1075 -3.772259,0.8018 -2.609362,-3.7447 -5.949219,-1.8165 -3.339856,1.9283 1.176228,3.1946 -1.404296,6.0606 -2.580526,2.866 -4.3103131,-1.4938 -5.8789071,2.0293 -1.5685939,3.5231 2.8288991,1.8911 2.4257821,5.7266 -0.4031187,3.8354 -4.3662722,1.3254 -3.564454,5.0976 0.8018181,3.7723 3.401812,-0.1328 5.330079,3.207 1.928267,3.3399 -2.7526828,3.6383 0.113281,6.2188 2.865963,2.5805 2.672194,-2.1077 6.195312,-0.5391 3.52312,1.5686 -0.08931,4.5618 3.746094,4.9649 3.835407,0.4031 0.925007,-3.2763 4.697266,-4.0782 3.772259,-0.8018 2.609362,3.7447 5.949219,1.8165 3.339856,-1.9283 -1.176228,-3.1946 1.404296,-6.0606 2.580526,-2.866 4.310313,1.4938 5.878907,-2.0293 1.568593,-3.5231 -2.828899,-1.8911 -2.425782,-5.7266 0.403118,-3.8354 4.366272,-1.3253 3.564453,-5.0976 -0.801818,-3.7723 -3.401811,0.1328 -5.330078,-3.207 -1.928267,-3.3399 2.752682,-3.6383 -0.113281,-6.2188 -2.865963,-2.5805 -2.672194,2.1077 -6.195312,0.5391 -3.52312,-1.5686 0.08931,-4.5618 -3.746094,-4.9649 -0.239713,-0.025 -0.454245,-0.034 -0.644531,-0.029 z m -1.197266,9.6328 a 7.9101562,7.9101562 0 0 1 7.910156,7.9102 7.9101562,7.9101562 0 0 1 -7.910156,7.9102 7.9101562,7.9101562 0 0 1 -7.910156,-7.9102 7.9101562,7.9101562 0 0 1 7.910156,-7.9102 z"
           id="path4155-5"
           transform="matrix(0.57138189,0,0,0.57229835,2.8667094,432.3192)" />
        <path
           style="fill:url(#linearGradient4281-0);fill-opacity:1;stroke:none"
           d="m 17.263971,1010.8093 c -1.630894,0.043 -0.294971,1.9205 -2.31566,2.3507 -2.1554,0.4589 -1.490941,-2.143 -3.399276,-1.0395 -1.9083322,1.1036 0.672076,1.8282 -0.802389,3.4684 -1.4744656,1.6402 -2.4628344,-0.8549 -3.3591006,1.1614 -0.8962661,2.0163 1.6163815,1.0822 1.3860477,3.2773 -0.023135,0.2205 -0.071207,0.3965 -0.1305699,0.5511 a 13.838155,6.4551236 0 0 0 3.4561908,0.8159 4.51972,4.5269693 0 0 1 -0.03906,-0.5454 4.51972,4.5269693 0 0 1 4.51972,-4.527 4.51972,4.5269693 0 0 1 4.51972,4.527 4.51972,4.5269693 0 0 1 -0.03683,0.5454 13.838155,6.4551236 0 0 0 5.153597,-1.4665 c 0.231217,-0.1947 0.346003,-0.5172 0.206456,-1.1748 -0.458143,-2.1588 -1.943733,0.076 -3.04551,-1.8353 -1.101777,-1.9115 1.572833,-2.0822 -0.06473,-3.559 -1.637559,-1.4768 -1.526843,1.2062 -3.539889,0.3085 -2.013047,-0.8977 0.05103,-2.6107 -2.14045,-2.8414 -0.136968,-0.014 -0.259547,-0.02 -0.368273,-0.017 z"
           id="path4225-9" />
      </g>
      <path
         transform="matrix(0.70833175,0,0,0.70948605,12.050482,303.85557)"
         id="path4155-2"
         d="m 25.197265,1010.819 c -2.854298,0.075 -0.516242,3.3557 -4.052735,4.1075 -3.772259,0.8018 -2.609362,-3.7447 -5.949219,-1.8165 -3.339856,1.9283 1.176228,3.1946 -1.404296,6.0606 -2.580526,2.866 -4.3103131,-1.4938 -5.8789071,2.0293 -1.5685939,3.5231 2.8288991,1.8911 2.4257821,5.7266 -0.4031187,3.8354 -4.3662722,1.3254 -3.564454,5.0976 0.8018181,3.7723 3.401812,-0.1328 5.330079,3.207 1.928267,3.3399 -2.7526828,3.6383 0.113281,6.2188 2.865963,2.5805 2.672194,-2.1077 6.195312,-0.5391 3.52312,1.5686 -0.08931,4.5618 3.746094,4.9649 3.835407,0.4031 0.925007,-3.2763 4.697266,-4.0782 3.772259,-0.8018 2.609362,3.7447 5.949219,1.8165 3.339856,-1.9283 -1.176228,-3.1946 1.404296,-6.0606 2.580526,-2.866 4.310313,1.4938 5.878907,-2.0293 1.568593,-3.5231 -2.828899,-1.8911 -2.425782,-5.7266 0.403118,-3.8354 4.366272,-1.3253 3.564453,-5.0976 -0.801818,-3.7723 -3.401811,0.1328 -5.330078,-3.207 -1.928267,-3.3399 2.752682,-3.6383 -0.113281,-6.2188 -2.865963,-2.5805 -2.672194,2.1077 -6.195312,0.5391 -3.52312,-1.5686 0.08931,-4.5618 -3.746094,-4.9649 -0.239713,-0.025 -0.454245,-0.034 -0.644531,-0.029 z m -1.197266,9.6328 a 7.9101562,7.9101562 0 0 1 7.910156,7.9102 7.9101562,7.9101562 0 0 1 -7.910156,7.9102 7.9101562,7.9101562 0 0 1 -7.910156,-7.9102 7.9101562,7.9101562 0 0 1 7.910156,-7.9102 z"
         style="fill:#000000;fill-opacity:1;fill-rule:evenodd;stroke:none;stroke-width:1px;stroke-linecap:butt;stroke-linejoin:miter;stroke-opacity:1;filter:url(#filter4443)" />
      <path
         id="path4155"
         d="m 29.898505,1021.0175 c -2.02179,0.053 -0.365671,2.3809 -2.870681,2.9143 -2.672011,0.5688 -1.848294,-2.6568 -4.214021,-1.2888 -2.365726,1.3681 0.83316,2.2665 -0.994707,4.2999 -1.827869,2.0334 -3.053132,-1.0598 -4.164217,1.4398 -1.111085,2.4995 2.003799,1.3417 1.718259,4.0629 -0.285542,2.7212 -3.09277,0.9403 -2.524816,3.6167 0.567953,2.6764 2.409611,-0.094 3.775464,2.2753 1.365853,2.3696 -1.949813,2.5813 0.08024,4.4121 2.030053,1.8309 1.8928,-1.4953 4.388337,-0.3824 2.495537,1.1129 -0.06326,3.2365 2.653477,3.5225 2.716741,0.286 0.655212,-2.3245 3.327223,-2.8934 2.67201,-0.5689 1.848294,2.6568 4.21402,1.2887 2.365726,-1.3681 -0.833159,-2.2665 0.994708,-4.2999 1.827868,-2.0334 3.053131,1.0599 4.164216,-1.4397 1.111085,-2.4996 -2.003799,-1.3417 -1.718258,-4.063 0.285541,-2.7211 3.092769,-0.9403 2.524815,-3.6166 -0.567953,-2.6764 -2.409611,0.094 -3.775463,-2.2754 -1.365853,-2.3696 1.949812,-2.5813 -0.08024,-4.4121 -2.030052,-1.8308 -1.8928,1.4954 -4.388336,0.3825 -2.495538,-1.1129 0.06326,-3.2366 -2.653477,-3.5226 -0.169797,-0.018 -0.321757,-0.024 -0.456542,-0.021 z m -0.848062,6.8344 a 5.6030148,5.6121455 0 0 1 5.603015,5.6122 5.6030148,5.6121455 0 0 1 -5.603015,5.6121 5.6030148,5.6121455 0 0 1 -5.603014,-5.6121 5.6030148,5.6121455 0 0 1 5.603014,-5.6122 z"
         style="fill:#b6ad4a;fill-opacity:1;fill-rule:evenodd;stroke:none;stroke-width:1px;stroke-linecap:butt;stroke-linejoin:miter;stroke-opacity:1" />
      <path
         id="path4225"
         d="m 29.898506,1021.0177 c -2.02179,0.053 -0.365671,2.3807 -2.870681,2.9141 -2.672011,0.5689 -1.848294,-2.6567 -4.214021,-1.2887 -2.365725,1.3681 0.83316,2.2665 -0.994708,4.2999 -1.827868,2.0334 -3.053131,-1.0598 -4.164216,1.4397 -1.111085,2.4996 2.003799,1.3417 1.718258,4.063 -0.02868,0.2733 -0.08827,0.4916 -0.161865,0.6831 a 17.15491,8.0025046 0 0 0 4.284577,1.0116 5.6030148,5.6121455 0 0 1 -0.04842,-0.6762 5.6030148,5.6121455 0 0 1 5.603015,-5.6122 5.6030148,5.6121455 0 0 1 5.603015,5.6122 5.6030148,5.6121455 0 0 1 -0.04565,0.6762 17.15491,8.0025046 0 0 0 6.38882,-1.8181 c 0.286636,-0.2413 0.428934,-0.6411 0.25594,-1.4564 -0.567952,-2.6763 -2.409611,0.094 -3.775464,-2.2753 -1.365852,-2.3696 1.949813,-2.5813 -0.08024,-4.4121 -2.030053,-1.8308 -1.8928,1.4953 -4.388336,0.3824 -2.495538,-1.1129 0.06326,-3.2364 -2.653478,-3.5224 -0.169796,-0.018 -0.321756,-0.024 -0.456541,-0.021 z"
         style="fill:url(#linearGradient4281);fill-opacity:1;stroke:none" />
    </g>
  </g>
</svg>
