<?xml version="1.0" encoding="UTF-8" standalone="no"?>
<svg
   xmlns:dc="http://purl.org/dc/elements/1.1/"
   xmlns:cc="http://creativecommons.org/ns#"
   xmlns:rdf="http://www.w3.org/1999/02/22-rdf-syntax-ns#"
   xmlns:svg="http://www.w3.org/2000/svg"
   xmlns="http://www.w3.org/2000/svg"
   xmlns:xlink="http://www.w3.org/1999/xlink"
   viewBox="0,0,48,48"
   id="svg2"
   version="1.1"
   width="100%"
   height="100%">
  <defs
     id="defs4">
    <linearGradient
       id="linearGradient4988">
      <stop
         id="stop4990"
         offset="0"
         style="stop-color:#5f5f5f;stop-opacity:1" />
      <stop
         style="stop-color:#959595;stop-opacity:1"
         offset="0.24170469"
         id="stop4992" />
      <stop
         style="stop-color:#a5a5a5;stop-opacity:1"
         offset="0.34550864"
         id="stop4994" />
      <stop
         style="stop-color:#464646;stop-opacity:1"
         offset="0.83079922"
         id="stop4996" />
      <stop
         id="stop4998"
         offset="1"
         style="stop-color:#575757;stop-opacity:1" />
    </linearGradient>
    <linearGradient
       id="linearGradient4868">
      <stop
         style="stop-color:#ffffff;stop-opacity:1"
         offset="0"
         id="stop4870" />
      <stop
         style="stop-color:#ffffff;stop-opacity:0"
         offset="1"
         id="stop4872" />
    </linearGradient>
    <linearGradient
       id="linearGradient4832">
      <stop
         id="stop4834"
         offset="0"
         style="stop-color:#4e4e4e;stop-opacity:1" />
      <stop
         id="stop4836"
         offset="1"
         style="stop-color:#aeaeae;stop-opacity:1" />
    </linearGradient>
    <linearGradient
       id="linearGradient4313">
      <stop
         style="stop-color:#5f5f5f;stop-opacity:1"
         offset="0"
         id="stop4315" />
      <stop
         id="stop4317"
         offset="0.24170469"
         style="stop-color:#959595;stop-opacity:1" />
      <stop
         id="stop4319"
         offset="0.34550864"
         style="stop-color:#a5a5a5;stop-opacity:1" />
      <stop
         id="stop4321"
         offset="0.83079922"
         style="stop-color:#323232;stop-opacity:1" />
      <stop
         style="stop-color:#575757;stop-opacity:1"
         offset="1"
         id="stop4323" />
    </linearGradient>
    <linearGradient
       id="linearGradient4291">
      <stop
         id="stop4293"
         offset="0"
         style="stop-color:#272727;stop-opacity:1" />
      <stop
         style="stop-color:#737373;stop-opacity:1"
         offset="0.24170469"
         id="stop4303" />
      <stop
         style="stop-color:#7b7b7b;stop-opacity:1"
         offset="0.34550864"
         id="stop4301" />
      <stop
         style="stop-color:#000000;stop-opacity:1"
         offset="0.83079922"
         id="stop4299" />
      <stop
         id="stop4295"
         offset="1"
         style="stop-color:#323232;stop-opacity:1" />
    </linearGradient>
    <linearGradient
       gradientTransform="matrix(1.0125244,1.0125244,-1.0125244,1.0125244,23.779501,-24.598445)"
       gradientUnits="userSpaceOnUse"
       y2="30.213493"
       x2="27.831018"
       y1="30.213493"
       x1="20.2502"
       id="linearGradient4297"
       xlink:href="#linearGradient4291" />
    <linearGradient
       gradientTransform="matrix(1.0125244,1.0125244,-1.0125244,1.0125244,23.779501,-24.598445)"
       gradientUnits="userSpaceOnUse"
       y2="20.513968"
       x2="28.479134"
       y1="20.513968"
       x1="19.520878"
       id="linearGradient4311"
       xlink:href="#linearGradient4313" />
    <linearGradient
       gradientTransform="matrix(1.0125244,1.0125244,-1.0125244,1.0125244,23.779501,-24.598445)"
       gradientUnits="userSpaceOnUse"
       y2="15.06543"
       x2="31.236328"
       y1="15.06543"
       x1="16.763672"
       id="linearGradient4331"
       xlink:href="#linearGradient4988" />
    <radialGradient
       gradientTransform="matrix(3.9124391,1.1490909e-7,-6.4539744e-8,2.1974572,-64.94651,-46.608777)"
       gradientUnits="userSpaceOnUse"
       r="7.2361794"
       fy="16.833509"
       fx="27.108526"
       cy="16.833509"
       cx="27.108526"
       id="radialGradient4840"
       xlink:href="#linearGradient4832" />
    <linearGradient
       gradientTransform="matrix(1.5490129,0,0,1.5490129,-2.3353019,-35.749622)"
       gradientUnits="userSpaceOnUse"
       y2="13.123193"
       x2="23.903967"
       y1="4.3385639"
       x1="15.356914"
       id="linearGradient4880"
       xlink:href="#linearGradient4868" />
    <filter
       height="1.1421661"
       y="-0.071083059"
       width="1.0288745"
       x="-0.014437247"
       id="filter4984"
       style="color-interpolation-filters:sRGB">
      <feGaussianBlur
         id="feGaussianBlur4986"
         stdDeviation="0.087060547" />
    </filter>
    <filter
       height="1.1019109"
       y="-0.050955429"
       width="1.245315"
       x="-0.12265749"
       id="filter5072"
       style="color-interpolation-filters:sRGB">
      <feGaussianBlur
         id="feGaussianBlur5074"
         stdDeviation="0.7396582" />
    </filter>
  </defs>
  <metadata
     id="metadata7">
    <rdf:RDF>
      <cc:Work
         rdf:about="">
        <dc:format>image/svg+xml</dc:format>
        <dc:type
           rdf:resource="http://purl.org/dc/dcmitype/StillImage" />
        <dc:title></dc:title>
      </cc:Work>
    </rdf:RDF>
  </metadata>
  <path
     transform="matrix(1.0125244,1.0125244,-1.0125244,1.0125244,23.779501,-24.598445)"
     id="path4175-8-8"
     d="m 24,6.3632812 a 7.2361794,7.2361794 0 0 0 -7.236328,7.2363278 7.2361794,7.2361794 0 0 0 2.757812,5.675782 c -0.07706,6.823379 1.796875,21.019531 1.796875,21.019531 0.883666,0.647524 1.824921,0.90625 2.681641,0.90625 0.862122,0 1.797976,-0.258726 2.681641,-0.90625 0,0 1.870616,-14.185618 1.794921,-21.011719 A 7.2361794,7.2361794 0 0 0 31.236328,13.599609 7.2361794,7.2361794 0 0 0 24,6.3632812 Z"
     style="fill:#000000;fill-opacity:1;fill-rule:evenodd;stroke:none;stroke-width:1px;stroke-linecap:butt;stroke-linejoin:miter;stroke-opacity:1;filter:url(#filter5072)" />
  <path
     id="path4175-8"
     d="m 4.566967,37.786683 c 0,0 12.533364,-16.346182 19.511546,-23.150999 0.706301,1.60843 2.277891,3.467865 3.926354,5.141676 1.673814,1.648462 3.533247,3.220054 5.141675,3.926355 C 26.341726,30.681895 9.9955452,43.215261 9.9955452,43.215261 8.4451791,42.976162 7.2367655,42.291302 6.3638463,41.418382 5.4963957,40.550932 4.8060657,39.33705 4.566967,37.786683 Z"
     style="fill:url(#linearGradient4297);fill-opacity:1;fill-rule:evenodd;stroke:none;stroke-width:1px;stroke-linecap:butt;stroke-linejoin:miter;stroke-opacity:1" />
  <circle
     transform="matrix(0.70710678,0.70710678,-0.70710678,0.70710678,0,0)"
     r="10.361671"
     cy="-14.734994"
     cx="33.787136"
     id="path4210"
     style="opacity:1;fill:url(#radialGradient4840);fill-opacity:1;stroke:none;stroke-width:1;stroke-linecap:round;stroke-linejoin:miter;stroke-miterlimit:4;stroke-dasharray:none;stroke-opacity:1" />
  <path
     transform="matrix(1.0125244,1.0125244,-1.0125244,1.0125244,23.779501,-24.598445)"
     id="path4210-2-7-1"
     d="M 31.236328,13.595703 A 14.759508,7.2361794 0 0 1 24,14.535156 a 14.759508,7.2361794 0 0 1 -7.236328,-0.9375 7.2361794,7.2361794 0 0 0 0,0.002 7.2361794,7.2361794 0 0 0 0.3125,2.083985 A 14.759508,7.2361794 0 0 0 24,16.535156 a 14.759508,7.2361794 0 0 0 6.925781,-0.851562 7.2361794,7.2361794 0 0 0 0.310547,-2.083985 7.2361794,7.2361794 0 0 0 0,-0.0039 z"
     style="opacity:0.63300003;fill:#000000;fill-opacity:1;stroke:none;stroke-width:1;stroke-linecap:round;stroke-linejoin:miter;stroke-miterlimit:4;stroke-dasharray:none;stroke-opacity:1;filter:url(#filter4984)" />
  <path
     id="path4210-2-7"
     d="m 41.641065,20.795082 a 21.13452,10.361672 45 0 1 -8.278179,-6.37574 21.13452,10.361672 45 0 1 -6.377717,-8.2762005 10.361672,10.361672 0 0 0 -0.002,0.002 10.361672,10.361672 0 0 0 -1.793672,2.4264985 21.13452,10.361672 45 0 0 6.148319,7.8727723 21.13452,10.361672 45 0 0 7.87475,6.150296 10.361672,10.361672 0 0 0 2.424522,-1.795649 10.361672,10.361672 0 0 0 0.004,-0.004 z"
     style="opacity:1;fill:url(#linearGradient4331);fill-opacity:1;stroke:none;stroke-width:1;stroke-linecap:round;stroke-linejoin:miter;stroke-miterlimit:4;stroke-dasharray:none;stroke-opacity:1" />
  <path
     id="path4175-8-4"
     d="m 24.078683,14.635855 c -0.605796,0.590809 -1.296304,1.330567 -1.974039,2.048235 0.715993,1.59762 2.268729,3.434692 3.901216,5.092279 1.657595,1.632484 3.49466,3.185224 5.092279,3.901217 0.71767,-0.677736 1.457457,-1.368212 2.048237,-1.974038 -1.608431,-0.706305 -3.467279,-2.278141 -5.141093,-3.926603 -1.64846,-1.673814 -3.220298,-3.532661 -3.9266,-5.14109 z"
     style="fill:url(#linearGradient4311);fill-opacity:1;fill-rule:evenodd;stroke:none;stroke-width:1px;stroke-linecap:butt;stroke-linejoin:miter;stroke-opacity:1" />
  <ellipse
     ry="9.2314758"
     rx="9.5458641"
     transform="matrix(0.68664221,0.72699551,-0.68593512,0.72766271,0,0)"
     cy="-15.719556"
     cx="34.264904"
     id="path4210-8"
     style="opacity:1;fill:url(#linearGradient4880);fill-opacity:1;stroke:none;stroke-width:1;stroke-linecap:round;stroke-linejoin:miter;stroke-miterlimit:4;stroke-dasharray:none;stroke-opacity:1" />
</svg>
