<?xml version="1.0" encoding="UTF-8" standalone="no"?>
<svg
   height="100%"
   width="100%"
   version="1.1"
   id="svg2"
   viewBox="0,0,48,48"
   sodipodi:docname="camera.svg"
   inkscape:version="1.1 (c68e22c387, 2021-05-23)"
   xmlns:inkscape="http://www.inkscape.org/namespaces/inkscape"
   xmlns:sodipodi="http://sodipodi.sourceforge.net/DTD/sodipodi-0.dtd"
   xmlns:xlink="http://www.w3.org/1999/xlink"
   xmlns="http://www.w3.org/2000/svg"
   xmlns:svg="http://www.w3.org/2000/svg"
   xmlns:rdf="http://www.w3.org/1999/02/22-rdf-syntax-ns#"
   xmlns:cc="http://creativecommons.org/ns#"
   xmlns:dc="http://purl.org/dc/elements/1.1/">
  <sodipodi:namedview
     id="namedview878"
     pagecolor="#ffffff"
     bordercolor="#666666"
     borderopacity="1.0"
     inkscape:pageshadow="2"
     inkscape:pageopacity="0.0"
     inkscape:pagecheckerboard="0"
     showgrid="false"
     inkscape:zoom="11.313709"
     inkscape:cx="43.000931"
     inkscape:cy="15.24699"
     inkscape:window-width="1920"
     inkscape:window-height="1017"
     inkscape:window-x="1912"
     inkscape:window-y="-8"
     inkscape:window-maximized="1"
     inkscape:current-layer="svg2" />
  <defs
     id="defs4">
    <linearGradient
       inkscape:collect="always"
       id="linearGradient45585">
      <stop
         style="stop-color:#838380;stop-opacity:1"
         offset="0"
         id="stop45581" />
      <stop
         style="stop-color:#c7c7c7;stop-opacity:1"
         offset="1"
         id="stop45583" />
    </linearGradient>
    <linearGradient
       inkscape:collect="always"
       id="linearGradient44963">
      <stop
         style="stop-color:#b6b6b6;stop-opacity:0.99607843"
         offset="0"
         id="stop44957" />
      <stop
         style="stop-color:#d9d9d9;stop-opacity:0.99607843"
         offset="0.16540989"
         id="stop44959" />
      <stop
         style="stop-color:#a2a2a2;stop-opacity:1"
         offset="1"
         id="stop44961" />
    </linearGradient>
    <linearGradient
       inkscape:collect="always"
       id="linearGradient43015">
      <stop
         style="stop-color:#cde2fa;stop-opacity:1"
         offset="0"
         id="stop43011" />
      <stop
         style="stop-color:#a8cbf5;stop-opacity:1"
         offset="1"
         id="stop43013" />
    </linearGradient>
    <linearGradient
       inkscape:collect="always"
       id="linearGradient40624">
      <stop
         style="stop-color:#408cea;stop-opacity:1"
         offset="0"
         id="stop40620" />
      <stop
         style="stop-color:#0d3c76;stop-opacity:1"
         offset="1"
         id="stop40622" />
    </linearGradient>
    <linearGradient
       inkscape:collect="always"
       id="linearGradient37320">
      <stop
         style="stop-color:#000000;stop-opacity:1;"
         offset="0"
         id="stop37316" />
      <stop
         style="stop-color:#5c5c5c;stop-opacity:1"
         offset="1"
         id="stop37318" />
    </linearGradient>
    <linearGradient
       inkscape:collect="always"
       id="linearGradient23142">
      <stop
         style="stop-color:#d7d7d8;stop-opacity:1"
         offset="0"
         id="stop23138" />
      <stop
         style="stop-color:#f9f9f9;stop-opacity:1"
         offset="1"
         id="stop23140" />
    </linearGradient>
    <linearGradient
       inkscape:collect="always"
       id="linearGradient18454">
      <stop
         style="stop-color:#b6b6b6;stop-opacity:0.99607843"
         offset="0"
         id="stop18450" />
      <stop
         style="stop-color:#d9d9d9;stop-opacity:0.99607843"
         offset="0.43855101"
         id="stop18556" />
      <stop
         style="stop-color:#a2a2a2;stop-opacity:1"
         offset="1"
         id="stop18452" />
    </linearGradient>
    <linearGradient
       inkscape:collect="always"
       id="linearGradient15705">
      <stop
         style="stop-color:#edeeed;stop-opacity:0.99607843"
         offset="0"
         id="stop15701" />
      <stop
         style="stop-color:#b6b4b5;stop-opacity:0.99607843"
         offset="1"
         id="stop15703" />
    </linearGradient>
    <linearGradient
       inkscape:collect="always"
       id="linearGradient6447">
      <stop
         style="stop-color:#aeacad;stop-opacity:1"
         offset="0"
         id="stop6443" />
      <stop
         style="stop-color:#e2e2e2;stop-opacity:0.99607843"
         offset="0.04036881"
         id="stop6615" />
      <stop
         style="stop-color:#d5d5d5;stop-opacity:1"
         offset="0.97068328"
         id="stop6485" />
      <stop
         style="stop-color:#f0f0f0;stop-opacity:1"
         offset="1"
         id="stop6445" />
    </linearGradient>
    <linearGradient
       inkscape:collect="always"
       id="linearGradient3317">
      <stop
         style="stop-color:#9a9a98;stop-opacity:1"
         offset="0"
         id="stop3313" />
      <stop
         style="stop-color:#c7c7c7;stop-opacity:1"
         offset="1"
         id="stop3315" />
    </linearGradient>
    <linearGradient
       inkscape:collect="always"
       xlink:href="#linearGradient3317"
       id="linearGradient3319"
       x1="8.9491529"
       y1="38.737942"
       x2="8.9491529"
       y2="11.389831"
       gradientUnits="userSpaceOnUse"
       gradientTransform="matrix(1.0614345,0,0,1.0636699,-1.5414117,-0.96196286)" />
    <linearGradient
       inkscape:collect="always"
       xlink:href="#linearGradient6447"
       id="linearGradient6449"
       x1="30.039114"
       y1="35.546284"
       x2="25.823378"
       y2="8.2563086"
       gradientUnits="userSpaceOnUse"
       gradientTransform="matrix(1.0614345,0,0,1.0636699,-1.5414117,-0.96196286)" />
    <linearGradient
       inkscape:collect="always"
       xlink:href="#linearGradient6447"
       id="linearGradient14746"
       gradientUnits="userSpaceOnUse"
       x1="30.039114"
       y1="35.546284"
       x2="27.638241"
       y2="11.447965"
       gradientTransform="matrix(1.0614345,0,0,1.0636699,-1.5414117,-0.96196286)" />
    <linearGradient
       inkscape:collect="always"
       xlink:href="#linearGradient15705"
       id="linearGradient15707"
       x1="77.241554"
       y1="13.520225"
       x2="78.137985"
       y2="33.612782"
       gradientUnits="userSpaceOnUse"
       gradientTransform="matrix(1.2195212,0,0,1.2236395,-63.454117,-4.8224832)" />
    <linearGradient
       inkscape:collect="always"
       xlink:href="#linearGradient18454"
       id="linearGradient18456"
       x1="80.05555"
       y1="16.587313"
       x2="73.159225"
       y2="28.667883"
       gradientUnits="userSpaceOnUse"
       gradientTransform="matrix(1.3155899,0,-0.07245378,1.3177978,-70.829096,-7.2158738)" />
    <linearGradient
       inkscape:collect="always"
       xlink:href="#linearGradient23142"
       id="linearGradient23144"
       x1="74.138893"
       y1="24.912066"
       x2="87.46875"
       y2="24.912066"
       gradientUnits="userSpaceOnUse"
       gradientTransform="matrix(1.3155899,0,0,1.319769,-71.222869,-7.2266103)" />
    <linearGradient
       inkscape:collect="always"
       xlink:href="#linearGradient18454"
       id="linearGradient36540"
       gradientUnits="userSpaceOnUse"
       gradientTransform="matrix(1.0787848,0,-0.05941216,1.080196,-49.444258,-0.18917208)"
       x1="80.05555"
       y1="16.587313"
       x2="73.159225"
       y2="28.667883" />
    <linearGradient
       inkscape:collect="always"
       xlink:href="#linearGradient23142"
       id="linearGradient36542"
       gradientUnits="userSpaceOnUse"
       x1="80.692924"
       y1="32.338604"
       x2="80.752426"
       y2="17.485527"
       gradientTransform="matrix(1.0787848,0,-0.05896916,1.0802048,-49.444259,-0.18917198)" />
    <linearGradient
       inkscape:collect="always"
       xlink:href="#linearGradient37320"
       id="linearGradient37322"
       x1="82.857887"
       y1="21.903519"
       x2="82.857887"
       y2="30.32073"
       gradientUnits="userSpaceOnUse"
       gradientTransform="matrix(1.3988576,0,-0.04949439,1.4009593,-77.596562,-9.3568532)" />
    <filter
       inkscape:collect="always"
       style="color-interpolation-filters:sRGB"
       id="filter38044"
       x="-0.11551243"
       y="-0.10140506"
       width="1.2310249"
       height="1.2028101">
      <feGaussianBlur
         inkscape:collect="always"
         stdDeviation="0.48094784"
         id="feGaussianBlur38046" />
    </filter>
    <filter
       inkscape:collect="always"
       style="color-interpolation-filters:sRGB"
       id="filter38156"
       x="-0.11554617"
       y="-0.1013994"
       width="1.2310923"
       height="1.2027988">
      <feGaussianBlur
         inkscape:collect="always"
         stdDeviation="0.62372624"
         id="feGaussianBlur38158" />
    </filter>
    <linearGradient
       inkscape:collect="always"
       xlink:href="#linearGradient15705"
       id="linearGradient38388"
       gradientUnits="userSpaceOnUse"
       x1="-23.579378"
       y1="10.390368"
       x2="41.36636"
       y2="6.5710559"
       gradientTransform="matrix(1.0614345,0,0,1.0636699,-1.5414117,-0.96196286)" />
    <linearGradient
       inkscape:collect="always"
       xlink:href="#linearGradient37320"
       id="linearGradient39133"
       gradientUnits="userSpaceOnUse"
       gradientTransform="matrix(1.3988576,0,-0.04949439,1.4009593,-77.869432,-9.5440448)"
       x1="76.77327"
       y1="20.686594"
       x2="82.703369"
       y2="27.288391" />
    <radialGradient
       inkscape:collect="always"
       xlink:href="#linearGradient40624"
       id="radialGradient40626"
       cx="35.157013"
       cy="26.319881"
       fx="35.157013"
       fy="26.319881"
       r="2.604956"
       gradientTransform="matrix(1.3913958,0.37695731,-0.42932633,1.4174985,-1.2465873,-23.620855)"
       gradientUnits="userSpaceOnUse" />
    <radialGradient
       inkscape:collect="always"
       xlink:href="#linearGradient43015"
       id="radialGradient40626-4"
       cx="33.979626"
       cy="26.920897"
       fx="33.979626"
       fy="26.920897"
       r="2.6049559"
       gradientTransform="matrix(2.2715352,-0.03832923,-0.06494981,0.68158782,-62.380055,-0.65785911)"
       gradientUnits="userSpaceOnUse" />
    <linearGradient
       inkscape:collect="always"
       xlink:href="#linearGradient3317"
       id="linearGradient41596"
       x1="13.458014"
       y1="14.92587"
       x2="13.6626"
       y2="18.040007"
       gradientUnits="userSpaceOnUse"
       gradientTransform="matrix(1.4355272,-0.06524901,0,0.97541399,-5.5019001,1.3840919)" />
    <linearGradient
       inkscape:collect="always"
       xlink:href="#linearGradient15705"
       id="linearGradient44555"
       x1="65.787109"
       y1="-14.955078"
       x2="54.816139"
       y2="-14.686978"
       gradientUnits="userSpaceOnUse"
       gradientTransform="translate(-45.718873,24.303005)" />
    <linearGradient
       inkscape:collect="always"
       xlink:href="#linearGradient44963"
       id="linearGradient44793"
       x1="54.46875"
       y1="-13.959961"
       x2="59.617188"
       y2="-13.959961"
       gradientUnits="userSpaceOnUse"
       gradientTransform="matrix(0.98544541,0,0,0.98752077,-45.461448,23.906558)" />
    <filter
       inkscape:collect="always"
       style="color-interpolation-filters:sRGB"
       id="filter45267"
       x="-0.021160237"
       y="-0.096046002"
       width="1.0423205"
       height="1.192092">
      <feGaussianBlur
         inkscape:collect="always"
         stdDeviation="0.041450017"
         id="feGaussianBlur45269" />
    </filter>
    <linearGradient
       inkscape:collect="always"
       xlink:href="#linearGradient45585"
       id="linearGradient45357"
       x1="61.266922"
       y1="-12.406919"
       x2="53.337532"
       y2="-13.860044"
       gradientUnits="userSpaceOnUse"
       gradientTransform="matrix(0.98544541,0,0,0.98752077,-45.461448,23.906558)" />
    <linearGradient
       inkscape:collect="always"
       xlink:href="#linearGradient15705"
       id="linearGradient44555-9"
       x1="65.787109"
       y1="-14.955078"
       x2="54.816139"
       y2="-14.686978"
       gradientUnits="userSpaceOnUse"
       gradientTransform="translate(-45.718873,24.303005)" />
    <filter
       inkscape:collect="always"
       style="color-interpolation-filters:sRGB"
       id="filter45267-2"
       x="-0.021160237"
       y="-0.096046002"
       width="1.0423205"
       height="1.192092">
      <feGaussianBlur
         inkscape:collect="always"
         stdDeviation="0.041450017"
         id="feGaussianBlur45269-9" />
    </filter>
    <linearGradient
       inkscape:collect="always"
       xlink:href="#linearGradient44963"
       id="linearGradient45728"
       gradientUnits="userSpaceOnUse"
       gradientTransform="matrix(0.6796759,0,0,0.68110731,-22.665811,19.615084)"
       x1="54.46875"
       y1="-13.959961"
       x2="59.617188"
       y2="-13.959961" />
    <filter
       inkscape:collect="always"
       style="color-interpolation-filters:sRGB"
       id="filter46294"
       x="-0.078207801"
       y="-0.099246508"
       width="1.1564156"
       height="1.198493">
      <feGaussianBlur
         inkscape:collect="always"
         stdDeviation="1.262954"
         id="feGaussianBlur46296" />
    </filter>
  </defs>
  <metadata
     id="metadata7">
    <rdf:RDF>
      <cc:Work
         rdf:about="">
        <dc:format>image/svg+xml</dc:format>
        <dc:type
           rdf:resource="http://purl.org/dc/dcmitype/StillImage" />
      </cc:Work>
    </rdf:RDF>
  </metadata>
  <path
     id="path1085-1"
     style="mix-blend-mode:normal;fill:#000000;fill-opacity:1;stroke:none;stroke-width:0.941131;stroke-linecap:butt;stroke-linejoin:miter;stroke-miterlimit:4;stroke-dasharray:none;stroke-opacity:1;filter:url(#filter46294)"
     d="M 37.548221,8.729493 18.030643,10.35254 a 1.6484265,0.44753663 0 0 0 -1.46875,-0.248047 1.6484265,0.44753663 0 0 0 -1.646484,0.4375 h -0.002 v 0.0098 0.06055 l -1.005859,0.08398 v -0.304721 -0.01563 h -0.002 A 2.3900132,0.64887238 0 0 0 11.518924,9.7431649 2.3900132,0.64887238 0 0 0 9.1322059,10.375977 h -0.00391 v 0.01563 0.583984 a 3.4055126,1.0257568 0 0 0 -0.453125,0.15625 l -3.4804687,0.289063 c -0.6883964,0.187744 -0.5644531,0.751953 -0.5644531,0.751953 v 22.716797 c 0,1.501956 0.1223848,1.333424 0.6308594,1.763672 l 3.625,2.617187 33.6621085,-4.964843 c 0,0 0.820313,-0.166339 0.820313,-1.417969 v -12.875 -7.964844 c 0,0 0.143036,-1.102354 -0.658203,-1.671875 0,0 -0.002,0 -0.002,0 -0.114666,-0.08132 -0.247843,-0.152272 -0.404296,-0.207031 z"
     transform="matrix(1.0614345,0,0,1.0636699,-1.4744282,-1.5280771)" />
  <path
     style="fill:url(#linearGradient38388);fill-opacity:1;stroke:none;stroke-width:1;stroke-linecap:butt;stroke-linejoin:miter;stroke-miterlimit:4;stroke-dasharray:none;stroke-opacity:1"
     d="M 7.1604137,12.484377 43.42909,9.2892075 38.380703,7.7581888 4.0383848,10.620529 C 3.3076971,10.820226 3.4405495,11.41932 3.4405495,11.41932 Z"
     id="path1085" />
  <path
     id="path1217"
     style="fill:url(#linearGradient3319);fill-opacity:1;stroke:none;stroke-width:1;stroke-linecap:butt;stroke-linejoin:miter;stroke-miterlimit:4;stroke-dasharray:none;stroke-opacity:1"
     d="m 3.4402819,11.419819 v 24.163173 c 0,1.597586 0.1295791,1.418691 0.6692915,1.876333 L 7.9575979,40.24278 8.0902772,14.349066 C 8.1567031,13.61684 7.1594488,12.483489 7.1594488,12.483489 Z"
     sodipodi:nodetypes="csccccc" />
  <path
     style="fill:url(#linearGradient6449);fill-opacity:1;stroke:none;stroke-width:1;stroke-linecap:butt;stroke-linejoin:miter;stroke-miterlimit:4;stroke-dasharray:none;stroke-opacity:1"
     d="M 7.9575275,40.242418 8.0903798,14.348227 C 8.156806,13.616001 7.1604137,12.484377 7.1604137,12.484377 L 43.42909,9.2892075 c 1.328523,0.4659619 1.129244,1.9969805 1.129244,1.9969805 v 22.166493 c 0,1.331321 -0.869735,1.509598 -0.869735,1.509598 z"
     id="path1087"
     sodipodi:nodetypes="cccccscc" />
  <path
     id="path1087-5"
     style="fill:url(#linearGradient14746);fill-opacity:1;stroke:none;stroke-width:1;stroke-linecap:butt;stroke-linejoin:miter;stroke-miterlimit:4;stroke-dasharray:none;stroke-opacity:1"
     d="M 43.428583,9.2883247 7.1594488,12.483489 c 0,0 0.9972544,1.133351 0.9308284,1.865577 L 8.0405224,23.986497 44.55843,19.758825 V 11.28686 c 0,0 0.198675,-1.5325735 -1.129847,-1.9985353 z" />
  <ellipse
     style="opacity:1;fill:url(#linearGradient15707);fill-opacity:1;stroke:none;stroke-width:1.00075;stroke-linecap:round;stroke-linejoin:round;stroke-miterlimit:4;stroke-dasharray:none;paint-order:markers stroke fill"
     id="path15061"
     cx="31.709957"
     cy="24.01442"
     rx="10.570208"
     ry="11.833468"
     transform="matrix(1,0,-0.05488788,0.99849252,0,0)" />
  <ellipse
     style="mix-blend-mode:normal;fill:#000000;fill-opacity:1;stroke:none;stroke-width:0.759465;stroke-linecap:round;stroke-linejoin:round;stroke-miterlimit:4;stroke-dasharray:none;paint-order:markers stroke fill;filter:url(#filter38156)"
     id="path15061-6-3-7"
     cx="33.501274"
     cy="25.381516"
     rx="6.4776831"
     ry="7.3814197"
     transform="matrix(1.3155899,0,-0.07191354,1.3178083,-8.5689479,-7.7107882)" />
  <path
     id="path15061-6"
     style="fill:url(#linearGradient18456);stroke-width:0.999993;stroke-linecap:round;stroke-linejoin:round;paint-order:markers stroke fill"
     d="m 31.794457,14.689042 c -4.888305,6.72e-4 -9.094115,4.429916 -9.394064,9.893123 -0.213208,4.01549 1.766939,7.627479 5.011468,9.141422 0.245789,0.108037 2.150418,0.884559 2.951024,1.202208 l -0.426433,-0.51229 c 0.25545,0.03326 0.512779,0.05387 0.771242,0.06178 4.888304,-6.72e-4 9.094114,-4.429916 9.394063,-9.893122 0.151269,-2.814444 -0.777377,-5.493993 -2.553417,-7.367714 l 0.447867,-0.167331 c 0,0 -1.997965,-1.148333 -2.398446,-1.35152 -1.1655,-0.6571 -2.465847,-1.001241 -3.803304,-1.00656 z"
     sodipodi:nodetypes="ccccccccccc" />
  <ellipse
     style="fill:url(#linearGradient23144);fill-opacity:1;stroke:none;stroke-width:1.00073;stroke-linecap:round;stroke-linejoin:round;stroke-miterlimit:4;stroke-dasharray:none;paint-order:markers stroke fill"
     id="path15061-6-3"
     cx="35.084209"
     cy="25.775475"
     rx="8.5219746"
     ry="9.7417698"
     transform="matrix(1,0,-0.0544895,0.99851434,0,0)" />
  <path
     id="path15061-6-3-4-0"
     style="mix-blend-mode:normal;fill:#000000;fill-opacity:1;stroke:none;stroke-width:0.714324;stroke-linecap:round;stroke-linejoin:round;stroke-miterlimit:4;stroke-dasharray:none;paint-order:markers stroke fill;filter:url(#filter38044)"
     d="m 35.098552,20.508301 a 4.991502,5.6960033 4.7771524 0 0 -5.103515,5.691407 4.991502,5.6960033 4.7771524 0 0 4.884765,5.691406 4.991502,5.6960033 4.7771524 0 0 5.105469,-5.691406 4.991502,5.6960033 4.7771524 0 0 -4.886719,-5.691407 z m 0.201172,2.306641 a 3.1625412,3.6089026 4.7771521 0 1 3.09375,3.605469 3.1625412,3.6089026 4.7771521 0 1 -3.234375,3.607422 3.1625412,3.6089026 4.7771521 0 1 -3.095703,-3.607422 3.1625412,3.6089026 4.7771521 0 1 3.236328,-3.605469 z"
     transform="matrix(1.3988575,0,-0.04949439,1.4009593,-11.395783,-9.8828978)" />
  <path
     id="path15061-6-5"
     style="fill:url(#linearGradient36540);stroke-width:0.999994;stroke-linecap:round;stroke-linejoin:round;paint-order:markers stroke fill"
     d="m 34.707143,17.766243 c -4.008413,5.5e-4 -7.457185,3.631191 -7.703142,8.109371 -0.174827,3.29149 1.448892,6.252229 4.109409,7.493205 0.201546,0.08856 1.763344,0.725071 2.41984,0.985448 l -0.349674,-0.419924 c 0.20947,0.02727 0.42048,0.04415 0.632417,0.05064 4.008414,-5.53e-4 7.457182,-3.631195 7.703142,-8.109374 0.124049,-2.306992 -0.637453,-4.503414 -2.093805,-6.039301 l 0.367251,-0.137152 c 0,0 -1.638332,-0.941288 -1.966728,-1.107841 -0.955712,-0.53862 -2.021997,-0.820713 -3.11871,-0.825073 z"
     sodipodi:nodetypes="ccccccccccc" />
  <path
     style="fill:url(#radialGradient40626);fill-opacity:1;stroke:none;stroke-width:1px;stroke-linecap:butt;stroke-linejoin:miter;stroke-opacity:1"
     d="m 33.414761,24.507273 5.599222,-1.139763 1.327688,1.446621 -0.234474,4.778241 -4.25315,1.446623 -2.235637,-0.526046 -0.62274,-4.054926 z"
     id="path39749" />
  <path
     id="path37006-9"
     style="fill:url(#linearGradient39133);fill-opacity:1;stroke:none;stroke-width:1px;stroke-linecap:butt;stroke-linejoin:miter;stroke-opacity:1"
     d="m 33.766333,20.879618 -2.523118,3.286234 -0.363844,5.349366 2.550113,3.373795 5.255458,-0.04378 2.811695,-4.030493 0.204862,-4.561328 -1.719539,-3.373795 z m 2.34742,3.001665 3.071051,0.07387 c 0.876547,0.857756 0.223393,5.122258 0.223393,5.122258 -1.286251,0.756842 -2.731426,0.985049 -2.731426,0.985049 l -2.647325,0.07387 C 33.28087,29.934502 33.115731,27.463017 33.115731,27.463017 l 0.41428,-2.446206 c 0.572903,-0.52979 2.583742,-1.135544 2.583742,-1.135544 z" />
  <path
     id="path37006"
     style="fill:url(#linearGradient37322);fill-opacity:1;stroke:none;stroke-width:1px;stroke-linecap:butt;stroke-linejoin:miter;stroke-opacity:1"
     d="m 34.039202,21.066811 -2.523116,3.286232 -0.363845,5.349366 2.550111,3.373794 5.255459,-0.04378 2.811697,-4.030495 0.204862,-4.561325 -1.71954,-3.373794 z m 2.347422,3.001663 3.071051,0.07387 c 0.876547,0.857756 0.223392,5.122259 0.223392,5.122259 -1.286251,0.756841 -2.731427,0.985049 -2.731427,0.985049 l -2.647324,0.07387 C 33.553739,30.121695 33.3886,27.650211 33.3886,27.650211 l 0.41428,-2.446205 c 0.572903,-0.529791 2.583744,-1.135545 2.583744,-1.135545 z" />
  <path
     style="fill:url(#radialGradient40626-4);fill-opacity:1;stroke:none;stroke-width:0.999999px;stroke-linecap:butt;stroke-linejoin:miter;stroke-opacity:1"
     d="m 12.162339,14.717739 3.965158,-0.16316 1.570719,0.01497 0.319198,3.190876 -3.906281,0.328673 -2.863108,0.02307 -0.266965,-3.227633 z"
     id="path39749-6"
     sodipodi:nodetypes="cccccccc" />
  <path
     id="path15061-6-3-4"
     style="fill:url(#linearGradient36542);fill-opacity:1;stroke:none;stroke-width:0.999988;stroke-linecap:round;stroke-linejoin:round;stroke-miterlimit:4;stroke-dasharray:none;paint-order:markers stroke fill"
     d="m 36.687046,18.848396 a 6.9452647,8.0225362 12.749161 0 0 -7.420785,7.973429 6.9452647,8.0225362 12.749161 0 0 6.551399,7.973428 6.9452647,8.0225362 12.749161 0 0 7.423516,-7.973428 6.9452647,8.0225362 12.749161 0 0 -6.55413,-7.973429 z m 0.167245,3.23151 a 4.4004161,5.0829591 12.749162 0 1 4.149264,5.051115 4.4004161,5.0829591 12.749162 0 1 -4.702977,5.053851 4.4004161,5.0829591 12.749162 0 1 -4.151901,-5.053851 4.4004161,5.0829591 12.749162 0 1 4.705614,-5.051115 z" />
  <path
     id="rect41310"
     style="opacity:1;fill:url(#linearGradient41596);fill-opacity:1;stroke:none;stroke-width:0.999995;stroke-linecap:round;stroke-linejoin:round;stroke-miterlimit:4;stroke-dasharray:none;paint-order:markers stroke fill"
     d="m 10.599421,14.845498 v 3.873784 c 0,0.298782 7.675658,-0.454558 7.675658,-0.795919 V 14.04958 c 0,-0.336947 -7.675658,0.538215 -7.675658,0.795918 z m 1.033261,0.414075 c 1.869713,-0.19388 3.739423,-0.387756 5.609136,-0.581633 v 2.831348 c -1.869713,0.193879 -3.739423,0.387756 -5.609136,0.581633 z"
     sodipodi:nodetypes="cccccccccc" />
  <ellipse
     style="opacity:1;fill:url(#linearGradient45357);fill-opacity:1;stroke:none;stroke-width:0.999999;stroke-linecap:round;stroke-linejoin:round;stroke-miterlimit:4;stroke-dasharray:none;paint-order:markers stroke fill"
     id="path44025"
     cx="10.675722"
     cy="10.944686"
     rx="3.6147285"
     ry="1.0910667" />
  <path
     id="path44129"
     style="opacity:1;fill:url(#linearGradient44793);fill-opacity:1;stroke:none;stroke-width:0.999999;stroke-linecap:round;stroke-linejoin:round;stroke-miterlimit:4;stroke-dasharray:none;paint-order:markers stroke fill"
     d="m 10.751284,8.8352928 a 2.5368425,0.69018602 0 0 0 -2.5329024,0.673135 h -0.00385 v 0.017359 1.2189702 h 0.00577 a 2.5368425,0.69018602 0 0 0 2.5309794,0.661562 2.5368425,0.69018602 0 0 0 2.530976,-0.661562 h 0.0058 V 9.5257869 9.5084278 h -0.002 a 2.5368425,0.69018602 0 0 0 -2.534805,-0.673135 z" />
  <ellipse
     style="mix-blend-mode:normal;fill:url(#linearGradient44555);fill-opacity:1;stroke:none;stroke-width:1.01369;stroke-linecap:round;stroke-linejoin:round;stroke-miterlimit:4;stroke-dasharray:none;paint-order:markers stroke fill;filter:url(#filter45267)"
     id="path44129-8"
     cx="11.324757"
     cy="9.6316509"
     rx="2.3506362"
     ry="0.51787704"
     transform="matrix(0.98544542,0,0,0.98752075,-0.40799388,-0.03144426)" />
  <path
     id="path44129-0"
     style="fill:url(#linearGradient45728);fill-opacity:1;stroke:none;stroke-width:0.999996;stroke-linecap:round;stroke-linejoin:round;stroke-miterlimit:4;stroke-dasharray:none;paint-order:markers stroke fill"
     d="m 16.10492,9.2202147 a 1.7496968,0.47603124 0 0 0 -1.74698,0.4642706 h -0.0027 v 0.011977 0.8407417 h 0.0039 a 1.7496968,0.47603124 0 0 0 1.745652,0.456289 1.7496968,0.47603124 0 0 0 1.745651,-0.456289 h 0.004 V 9.6964623 9.6844853 h -0.0014 A 1.7496968,0.47603124 0 0 0 16.104907,9.2202147 Z" />
  <ellipse
     style="mix-blend-mode:normal;fill:url(#linearGradient44555-9);fill-opacity:1;stroke:none;stroke-width:1.46973;stroke-linecap:round;stroke-linejoin:round;stroke-miterlimit:4;stroke-dasharray:none;paint-order:markers stroke fill;filter:url(#filter45267-2)"
     id="path44129-8-2"
     cx="11.324757"
     cy="9.6316509"
     rx="2.3506362"
     ry="0.51787704"
     transform="matrix(0.6796759,0,0,0.68110728,8.4082059,3.1046986)" />
</svg>
