<?xml version="1.0" encoding="UTF-8" standalone="no"?>
<svg
   xmlns:osb="http://www.openswatchbook.org/uri/2009/osb"
   xmlns:dc="http://purl.org/dc/elements/1.1/"
   xmlns:cc="http://creativecommons.org/ns#"
   xmlns:rdf="http://www.w3.org/1999/02/22-rdf-syntax-ns#"
   xmlns:svg="http://www.w3.org/2000/svg"
   xmlns="http://www.w3.org/2000/svg"
   xmlns:xlink="http://www.w3.org/1999/xlink"
   xmlns:sodipodi="http://sodipodi.sourceforge.net/DTD/sodipodi-0.dtd"
   xmlns:inkscape="http://www.inkscape.org/namespaces/inkscape"
   height="100%"
   width="100%"
   version="1.1"
   id="svg2"
   viewBox="0,0,48,48"
   sodipodi:docname="linux.svg"
   inkscape:version="0.92.0 r15299">
  <sodipodi:namedview
     pagecolor="#ffffff"
     bordercolor="#666666"
     borderopacity="1"
     objecttolerance="10"
     gridtolerance="10"
     guidetolerance="10"
     inkscape:pageopacity="0"
     inkscape:pageshadow="2"
     inkscape:window-width="1440"
     inkscape:window-height="837"
     id="namedview4522"
     showgrid="false"
     inkscape:zoom="13.291667"
     inkscape:cx="23.920034"
     inkscape:cy="24.337681"
     inkscape:window-x="-8"
     inkscape:window-y="-8"
     inkscape:window-maximized="1"
     inkscape:current-layer="svg2" />
  <defs
     id="defs4">
    <linearGradient
       osb:paint="solid"
       id="linearGradient5103">
      <stop
         id="stop5105"
         offset="0"
         style="stop-color:#000000;stop-opacity:1;" />
    </linearGradient>
    <linearGradient
       id="linearGradient172">
      <stop
         offset="0"
         style="stop-color:#3f2600;stop-opacity:0.6;"
         id="stop173" />
      <stop
         offset="1"
         style="stop-color:#3f2600;stop-opacity:0;"
         id="stop174" />
    </linearGradient>
    <linearGradient
       id="linearGradient167">
      <stop
         offset="0"
         style="stop-color:#ffffff;stop-opacity:0.65;"
         id="stop168" />
      <stop
         offset="1"
         style="stop-color:#ffffff;stop-opacity:0;"
         id="stop169" />
    </linearGradient>
    <linearGradient
       id="linearGradient162">
      <stop
         offset="0"
         style="stop-color:#ffa63f;stop-opacity:1;"
         id="stop163" />
      <stop
         offset="1"
         style="stop-color:#ffff00;stop-opacity:1;"
         id="stop164" />
    </linearGradient>
    <linearGradient
       id="linearGradient153">
      <stop
         offset="0"
         style="stop-color:#ffeed7;stop-opacity:1;"
         id="stop154" />
      <stop
         offset="1"
         style="stop-color:#bdbfc2;stop-opacity:1;"
         id="stop155" />
    </linearGradient>
    <linearGradient
       id="linearGradient138">
      <stop
         offset="0"
         style="stop-color:#ffffff;stop-opacity:0.8;"
         id="stop139" />
      <stop
         offset="1"
         style="stop-color:#ffffff;stop-opacity:0;"
         id="stop140" />
    </linearGradient>
    <linearGradient
       xlink:href="#linearGradient138"
       y2="0.901258"
       x2="0.417539"
       y1="0.020192"
       x1="0.474248"
       gradientUnits="objectBoundingBox"
       id="linearGradient141" />
    <linearGradient
       xlink:href="#linearGradient167"
       y2="0.945311"
       x2="0.553922"
       y1="0.031193"
       x1="0.558807"
       gradientUnits="objectBoundingBox"
       id="linearGradient142" />
    <linearGradient
       xlink:href="#linearGradient167"
       y2="0.933665"
       x2="0.41366"
       y1="0.0288198"
       x1="0.465577"
       gradientUnits="objectBoundingBox"
       id="linearGradient143" />
    <linearGradient
       xlink:href="#linearGradient167"
       y2="0.940634"
       x2="0.645532"
       y1="0.0594042"
       x1="0.703464"
       gradientUnits="objectBoundingBox"
       id="linearGradient144" />
    <linearGradient
       xlink:href="#linearGradient167"
       y2="0.758579"
       x2="0.867418"
       y1="-0.0361553"
       x1="0.467414"
       gradientUnits="objectBoundingBox"
       id="linearGradient145" />
    <linearGradient
       xlink:href="#linearGradient167"
       y2="0.71875"
       x2="0.57143"
       y1="0.0234415"
       x1="0.571525"
       gradientUnits="objectBoundingBox"
       id="linearGradient146" />
    <linearGradient
       xlink:href="#linearGradient167"
       y2="0.8125"
       x2="0.5"
       y1="0.0234362"
       x1="0.5"
       gradientUnits="objectBoundingBox"
       id="linearGradient147" />
    <linearGradient
       xlink:href="#linearGradient167"
       y2="0.928205"
       x2="0.516"
       y1="0.374359"
       x1="0.507998"
       gradientUnits="objectBoundingBox"
       id="linearGradient148" />
    <linearGradient
       xlink:href="#linearGradient138"
       y2="0.946341"
       x2="0.504"
       y1="0.131707"
       x1="0.5"
       gradientUnits="objectBoundingBox"
       id="linearGradient149" />
    <linearGradient
       xlink:href="#linearGradient167"
       y2="0.941913"
       x2="0.156323"
       y1="0.0994966"
       x1="-0.305095"
       gradientTransform="matrix(-0.928523 0.283938 0.435332 0.943857 -1.91327e-007 5.49908e-008)"
       gradientUnits="objectBoundingBox"
       id="linearGradient150" />
    <linearGradient
       xlink:href="#linearGradient167"
       y2="1.02569"
       x2="0.487055"
       y1="0.0221846"
       x1="0.433979"
       gradientUnits="objectBoundingBox"
       id="linearGradient151" />
    <linearGradient
       xlink:href="#linearGradient153"
       y2="0.40625"
       x2="0.5"
       y1="0.89843"
       x1="0.5"
       spreadMethod="reflect"
       gradientUnits="objectBoundingBox"
       id="linearGradient152" />
    <linearGradient
       xlink:href="#linearGradient153"
       y2="0.230935"
       x2="0.453989"
       y1="0.98882"
       x1="0.435687"
       gradientUnits="objectBoundingBox"
       id="linearGradient156" />
    <linearGradient
       xlink:href="#linearGradient153"
       y2="0.412524"
       x2="0.494821"
       y1="1.15284"
       x1="0.491805"
       gradientUnits="objectBoundingBox"
       id="linearGradient157" />
    <linearGradient
       xlink:href="#linearGradient153"
       y2="0.136172"
       x2="0.498439"
       y1="0.854185"
       x1="0.517302"
       gradientUnits="objectBoundingBox"
       id="linearGradient158" />
    <linearGradient
       xlink:href="#linearGradient153"
       y2="0.0962823"
       x2="0.492153"
       y1="0.879171"
       x1="0.46201"
       gradientUnits="objectBoundingBox"
       id="linearGradient159" />
    <linearGradient
       xlink:href="#linearGradient162"
       y2="0.985581"
       x2="0.412096"
       y1="0.348729"
       x1="0.500863"
       gradientUnits="objectBoundingBox"
       id="linearGradient161" />
    <linearGradient
       xlink:href="#linearGradient162"
       y2="0.983674"
       x2="0.464"
       y1="0.510202"
       x1="0.603998"
       gradientUnits="objectBoundingBox"
       id="linearGradient165" />
    <linearGradient
       xlink:href="#linearGradient162"
       y2="0.970059"
       x2="0.508"
       y1="0.191616"
       x1="0.500005"
       gradientUnits="objectBoundingBox"
       id="linearGradient166" />
    <radialGradient
       xlink:href="#linearGradient172"
       fy="0.5"
       fx="0.5"
       r="0.5"
       cy="0.5"
       cx="0.5"
       gradientUnits="objectBoundingBox"
       id="radialGradient171" />
    <radialGradient
       xlink:href="#linearGradient172"
       id="radialGradient176" />
    <linearGradient
       xlink:href="#linearGradient153"
       y2="-0.675295"
       x2="0.19452"
       y1="1.29341"
       x1="0.940273"
       gradientUnits="objectBoundingBox"
       id="linearGradient178" />
    <radialGradient
       xlink:href="#linearGradient172"
       fy="1219.41"
       fx="446.778"
       r="195.072"
       cy="1219.41"
       cx="446.778"
       gradientTransform="scale(1.04523,0.956725)"
       gradientUnits="userSpaceOnUse"
       id="radialGradient1399" />
    <linearGradient
       xlink:href="#linearGradient153"
       y2="304.079"
       x2="400.844"
       y1="369.53"
       x1="400.578"
       gradientTransform="scale(0.575262,1.73834)"
       gradientUnits="userSpaceOnUse"
       id="linearGradient1401" />
    <linearGradient
       xlink:href="#linearGradient138"
       y2="330.096"
       x2="297.086"
       y1="237.932"
       x1="303.018"
       gradientTransform="scale(1.11607,0.896001)"
       gradientUnits="userSpaceOnUse"
       id="linearGradient1403" />
    <linearGradient
       xlink:href="#linearGradient153"
       y2="243.916"
       x2="380.273"
       y1="278.602"
       x1="378.938"
       gradientTransform="scale(0.816497,1.22474)"
       gradientUnits="userSpaceOnUse"
       id="linearGradient1405" />
    <linearGradient
       xlink:href="#linearGradient153"
       y2="245.683"
       x2="380.552"
       y1="277.495"
       x1="381.387"
       gradientTransform="scale(0.816497,1.22474)"
       gradientUnits="userSpaceOnUse"
       id="linearGradient1407" />
    <linearGradient
       xlink:href="#linearGradient167"
       y2="281.016"
       x2="376.796"
       y1="240.927"
       x1="379.096"
       gradientTransform="scale(0.816497,1.22474)"
       gradientUnits="userSpaceOnUse"
       id="linearGradient1409" />
    <linearGradient
       xlink:href="#linearGradient167"
       y2="281.325"
       x2="387.069"
       y1="242.282"
       x1="389.635"
       gradientTransform="scale(0.816497,1.22474)"
       gradientUnits="userSpaceOnUse"
       id="linearGradient1411" />
    <linearGradient
       xlink:href="#linearGradient153"
       y2="394.104"
       x2="437.579"
       y1="528.872"
       x1="437.579"
       spreadMethod="reflect"
       gradientTransform="scale(0.812855,1.23023)"
       gradientUnits="userSpaceOnUse"
       id="linearGradient1413" />
    <linearGradient
       xlink:href="#linearGradient153"
       y2="324.038"
       x2="377.485"
       y1="419.785"
       x1="375.173"
       gradientTransform="scale(0.649784,1.53897)"
       gradientUnits="userSpaceOnUse"
       id="linearGradient1415" />
    <linearGradient
       xlink:href="#linearGradient138"
       y2="614.504"
       x2="321.322"
       y1="498.178"
       x1="320.751"
       gradientTransform="scale(1.0748,0.930408)"
       gradientUnits="userSpaceOnUse"
       id="linearGradient1417" />
    <linearGradient
       xlink:href="#linearGradient167"
       y2="488.483"
       x2="323.251"
       y1="435.268"
       x1="322.483"
       gradientTransform="scale(1.077,0.928504)"
       gradientUnits="userSpaceOnUse"
       id="linearGradient1419" />
    <linearGradient
       xlink:href="#linearGradient167"
       y2="331.449"
       x2="411.221"
       y1="242.944"
       x1="411.221"
       gradientTransform="scale(0.571707,1.74915)"
       gradientUnits="userSpaceOnUse"
       id="linearGradient1421" />
    <linearGradient
       xlink:href="#linearGradient167"
       y2="314.839"
       x2="867.335"
       y1="234.739"
       x1="867.345"
       gradientTransform="scale(0.572667,1.74621)"
       gradientUnits="userSpaceOnUse"
       id="linearGradient1423" />
    <linearGradient
       xlink:href="#linearGradient162"
       y2="737.412"
       x2="212.51"
       y1="657.111"
       x1="236.254"
       gradientTransform="scale(1.01151,0.988617)"
       gradientUnits="userSpaceOnUse"
       id="linearGradient1425" />
    <linearGradient
       xlink:href="#linearGradient153"
       y2="386.666"
       x2="279.643"
       y1="655.731"
       x1="381.566"
       gradientTransform="scale(1.0655,0.938527)"
       gradientUnits="userSpaceOnUse"
       id="linearGradient1427" />
    <linearGradient
       xlink:href="#linearGradient162"
       y2="737.854"
       x2="203.127"
       y1="630.305"
       x1="218.117"
       gradientTransform="scale(1.00985,0.990245)"
       gradientUnits="userSpaceOnUse"
       id="linearGradient1429" />
    <linearGradient
       xlink:href="#linearGradient167"
       y2="704.731"
       x2="182.245"
       y1="587.236"
       x1="117.89"
       gradientTransform="scale(1.00772,0.992335)"
       gradientUnits="userSpaceOnUse"
       id="linearGradient1431" />
    <linearGradient
       xlink:href="#linearGradient167"
       y2="710.977"
       x2="230.535"
       y1="570.418"
       x1="223.101"
       gradientTransform="scale(0.999504)"
       gradientUnits="userSpaceOnUse"
       id="linearGradient1433" />
    <linearGradient
       xlink:href="#linearGradient167"
       y2="582.635"
       x2="371.609"
       y1="474.018"
       x1="316.94"
       gradientTransform="scale(1.0655,0.938527)"
       gradientUnits="userSpaceOnUse"
       id="linearGradient1435" />
    <linearGradient
       xlink:href="#linearGradient162"
       y2="485.699"
       x2="285.459"
       y1="410.463"
       x1="284.687"
       gradientTransform="scale(1.21868,0.820557)"
       gradientUnits="userSpaceOnUse"
       id="linearGradient1437" />
    <linearGradient
       xlink:href="#linearGradient167"
       y2="482.559"
       x2="288.376"
       y1="398.854"
       x1="288.824"
       gradientTransform="scale(1.22194,0.81837)"
       gradientUnits="userSpaceOnUse"
       id="linearGradient1439" />
  </defs>
  <metadata
     id="metadata7">
    <rdf:RDF>
      <cc:Work
         rdf:about="">
        <dc:format>image/svg+xml</dc:format>
        <dc:type
           rdf:resource="http://purl.org/dc/dcmitype/StillImage" />
        <dc:title />
      </cc:Work>
    </rdf:RDF>
  </metadata>
  <g
     transform="matrix(0.06748679,0,0,0.06748679,-18.061298,-5.149377)"
     id="g1369">
    <path
       d="m 670.882,1166.64 a 203.896,186.63 0 1 1 -407.791,0 203.896,186.63 0 1 1 407.791,0 z"
       transform="matrix(1.4177,0,0,0.414745,-38.7944,222.194)"
       style="fill:url(#radialGradient1399);stroke:none;stroke-width:1.00000003pt;stroke-linecap:butt;stroke-linejoin:miter"
       id="path175"
       inkscape:connector-curvature="0" />
    <path
       d="m 223.627,632.24 c -22.388,-32.223 -26.754,-136.984 25.487,-201.43 25.886,-30.918 32.49,-52.465 34.531,-81.393 1.389,-32.979 -23.325,-131.442 69.883,-138.944 94.406,-7.532 89.336,85.66 88.793,134.975 -0.451,41.64 30.574,65.241 51.796,97.695 39.279,59.63 35.957,162.3 -7.399,217.872 -54.917,69.568 -101.953,39.398 -133.19,41.93 -58.493,3.202 -60.427,34.391 -129.901,-70.705 z"
       transform="matrix(1.25,0,0,1.25,185.454,-167.505)"
       style="fill:#000000;stroke:none;stroke-width:1.25"
       id="path106"
       inkscape:connector-curvature="0" />
    <path
       d="m 246.571,470.864 c -12.239,12.496 -44.396,69.092 4.869,105.36 17.369,12.633 -16.377,59.495 -32.005,36.308 -27.57,-41.618 -8.831,-106.941 8.315,-130.188 11.652,-16.487 29.23,-22.676 18.821,-11.48 z"
       transform="matrix(-1.67739,-0.0224516,-0.0211236,1.4709,1173.58,-293.017)"
       style="fill:url(#linearGradient1401);stroke:none;stroke-width:0.99464899"
       id="path113"
       inkscape:connector-curvature="0" />
    <path
       d="m 256.513,459.837 c -19.915,17.717 -56.176,80.091 -3.288,120.606 17.37,12.632 -15.393,52.463 -33.79,32.089 -63.963,-70.82 1.669,-152.254 24.262,-180.25 20.192,-24.347 38.078,5.752 12.816,27.555 z"
       transform="matrix(-1.67755,0,0,1.52374,1174.62,-318.082)"
       style="fill:#000000;stroke:#000000;stroke-width:0.97729802"
       id="path111"
       inkscape:connector-curvature="0" />
    <path
       d="m 399.569,258.158 a 58.3735,46.863241 0 1 1 -116.747,0 58.3735,46.863241 0 1 1 116.747,0 z"
       transform="matrix(1.26626,-0.0713667,-0.0459795,1.19574,202.143,-125.761)"
       style="fill:url(#linearGradient1403);stroke:none;stroke-width:1.26498997"
       id="path114"
       inkscape:connector-curvature="0" />
    <path
       d="m 328.863,320.642 a 18.0875,27.1312 0 1 1 -36.175,0 18.0875,27.1312 0 1 1 36.175,0 z"
       transform="matrix(1.30445,-0.0755326,0.0771251,1.34257,144.757,-177.617)"
       style="fill:url(#linearGradient1405);stroke:none;stroke-width:1.17873001"
       id="path115"
       inkscape:connector-curvature="0" />
    <path
       d="m 328.863,320.642 a 18.0875,27.1312 0 1 1 -36.175,0 18.0875,27.1312 0 1 1 36.175,0 z"
       transform="matrix(-1.81082,0.0495107,0.0317324,1.55333,1207.46,-284.777)"
       style="fill:url(#linearGradient1407);stroke:none;stroke-width:0.93138498"
       id="path116"
       inkscape:connector-curvature="0" />
    <path
       d="m 328.863,320.642 a 18.0875,27.1312 0 1 1 -36.175,0 18.0875,27.1312 0 1 1 36.175,0 z"
       transform="matrix(-0.823196,-0.00176123,-0.0182321,0.852662,913.674,-37.9902)"
       style="fill:#000000;stroke:none;stroke-width:1.86495996"
       id="path117"
       inkscape:connector-curvature="0" />
    <path
       d="m 328.863,320.642 a 18.0875,27.1312 0 1 1 -36.175,0 18.0875,27.1312 0 1 1 36.175,0 z"
       transform="matrix(0.59438,-0.0722959,0.0688176,0.705838,367.448,32.4186)"
       style="fill:#000000;stroke:none;stroke-width:2.39814997"
       id="path118"
       inkscape:connector-curvature="0" />
    <path
       d="m 328.863,320.642 a 18.0875,27.1312 0 1 1 -36.175,0 18.0875,27.1312 0 1 1 36.175,0 z"
       transform="matrix(-0.480323,-0.036454,-0.0467935,0.475606,813.496,87.0124)"
       style="fill:url(#linearGradient1409);stroke:none;stroke-width:3.1916101"
       id="path121"
       inkscape:connector-curvature="0" />
    <path
       d="m 328.863,320.642 a 18.0875,27.1312 0 1 1 -36.175,0 18.0875,27.1312 0 1 1 36.175,0 z"
       transform="matrix(0.35691,-0.0408211,0.0413232,0.398544,449.334,114.991)"
       style="fill:url(#linearGradient1411);stroke:none;stroke-width:4.12025976"
       id="path122"
       inkscape:connector-curvature="0" />
    <path
       d="m 258.702,495.425 c 12.836,-29.103 40.114,-80.226 40.695,-119.758 0,-31.442 94.179,-38.951 101.737,-7.558 7.558,31.393 26.741,78.483 38.95,101.156 12.208,22.672 47.809,94.695 9.884,157.546 -34.157,55.644 -137.725,99.666 -193.01,-7.557 -18.603,-37.207 -15.285,-83.315 1.744,-123.829 z"
       transform="matrix(1.25,0,0,1.25,185.454,-168.23)"
       style="fill:url(#linearGradient1413);stroke:none;stroke-width:1.25"
       id="path128"
       inkscape:connector-curvature="0" />
    <path
       d="m 242.905,473.815 c -11.263,18.967 -35.5,69.309 12.137,102.047 51.311,34.82 46.473,97.062 -15.607,61.955 -56.777,-31.789 -22.845,-137.778 -4.51,-162.266 12.107,-17.214 29.897,-38.031 7.98,-1.736 z"
       transform="matrix(1.38936,-0.111074,0.102211,1.30214,108.413,-165.938)"
       style="fill:url(#linearGradient1415);stroke:none;stroke-width:1.15804005"
       id="path112"
       inkscape:connector-curvature="0" />
    <path
       d="m 256.513,449.72 c -17.465,28.508 -59.377,95.813 -3.288,130.723 75.569,46.355 54.173,92.711 -14.799,50.974 -97.109,-58.264 -11.825,-175.616 27.131,-220.338 44.444,-50.2 8.554,9.087 -9.044,38.641 z"
       transform="matrix(1.25,0,0,1.25,185.454,-167.505)"
       style="fill:#000000;stroke:#000000;stroke-width:1.25"
       id="path109"
       inkscape:connector-curvature="0" />
    <path
       d="m 421.481,504.727 c 0,32.412 -29.272,74.516 -79.528,74.138 -51.828,0.455 -73.949,-41.726 -73.949,-74.138 0,-32.412 34.379,-58.717 76.739,-58.717 42.359,0 76.738,26.305 76.738,58.717 z"
       transform="matrix(1.30209,0,0,1.22525,170.042,-153.557)"
       style="font-size:12px;fill:url(#linearGradient1417);stroke:none;stroke-width:1.23705006;stroke-dasharray:none"
       id="path125"
       inkscape:connector-curvature="0" />
    <path
       d="m 398.227,412.292 c -0.612,38.572 -23.18,47.671 -51.74,47.671 -28.561,0 -49.292,-5.694 -51.741,-47.671 0,-26.314 23.18,-41.542 51.741,-41.542 28.56,0 51.74,15.228 51.74,41.542 z"
       transform="matrix(1.1868,0,0,1.06708,210.623,-100.078)"
       style="font-size:12px;fill:url(#linearGradient1419);stroke:none;stroke-width:1.38846004;stroke-dasharray:none"
       id="path127"
       inkscape:connector-curvature="0" />
    <path
       d="m 234.285,456.475 c 17.716,-26.996 55.015,-68.364 6.977,5.813 -38.951,61.043 -14.403,100.273 -1.744,111.039 36.527,32.562 34.966,54.349 6.395,37.206 -61.625,-36.626 -48.835,-98.248 -11.628,-154.058 z"
       transform="matrix(1.25,0,0,1.25,185.454,-167.505)"
       style="fill:url(#linearGradient1421);stroke:none;stroke-width:1.25"
       id="path129"
       inkscape:connector-curvature="0" />
    <path
       d="m 490.662,467.52 c -15.319,-31.701 -64.134,-111.902 2.326,-18.603 60.461,84.297 18.022,143.013 10.464,148.827 -7.557,5.813 -33.137,17.44 -25.579,-2.907 7.557,-20.347 45.234,-58.973 12.789,-127.317 z"
       transform="matrix(1.25,0,0,1.25,185.454,-167.505)"
       style="fill:url(#linearGradient1423);stroke:none;stroke-width:1.25"
       id="path131"
       inkscape:connector-curvature="0" />
    <path
       d="m 220.915,716.921 c -40.442,-21.416 -99.252,4.124 -77.902,-54.066 4.276,-13.238 -6.375,-33.008 0.581,-45.926 8.139,-15.698 25.58,-12.209 36.045,-22.674 10.318,-10.891 16.859,-29.649 36.044,-26.742 19.184,2.907 31.945,26.461 45.344,55.229 9.883,20.638 44.941,49.664 42.65,72.758 -2.696,35.5 -43.027,42.19 -82.762,21.421 z"
       transform="matrix(1.25,0,0,1.25,185.454,-167.505)"
       style="fill:url(#linearGradient1425);stroke:#e68c3f;stroke-width:6.25"
       id="path132"
       inkscape:connector-curvature="0" />
    <path
       d="m 415.072,495.764 c -3.007,24.906 -35.813,76.627 -69.518,81.534 -34.26,5.336 -66.432,-34.06 -74.147,-71.114 -9.889,-41.206 22.587,-57.6 71.938,-56.627 53.301,1.654 74.121,13.891 71.727,46.207 z"
       transform="matrix(0.598206,0.268584,-0.239623,0.617213,700.568,140.464)"
       style="font-size:12px;fill:url(#linearGradient1427);stroke:none;stroke-width:2.85509992;stroke-dasharray:none"
       id="path177"
       inkscape:connector-curvature="0" />
    <path
       d="m 220.274,718.402 c -41.327,-23.59 -99.894,5.605 -77.261,-55.547 4.736,-13.068 -6.596,-33.552 0.36,-46.47 8.139,-15.698 25.801,-11.665 36.266,-22.13 10.318,-10.891 18.827,-27.868 38.012,-24.961 19.184,2.907 29.977,24.68 43.376,53.448 9.883,20.638 43.415,48.971 41.124,72.065 -2.696,35.5 -42.724,45.471 -81.877,23.595 z"
       transform="matrix(-1.1685,0.423145,0.475283,1.16478,728.343,-213.821)"
       style="fill:url(#linearGradient1429);stroke:#e68c3f;stroke-width:6.25067997"
       id="path133"
       inkscape:connector-curvature="0" />
    <path
       d="m 216.482,675.68 c -86.531,-57.503 -47.308,-70.96 -36.843,-81.425 10.318,-10.891 18.827,-27.868 38.012,-24.961 19.184,2.907 29.977,24.68 43.376,53.448 9.883,20.638 43.06,48.918 41.124,72.065 -2.616,27.11 -48.19,5.487 -85.669,-19.127 z"
       transform="matrix(-0.945096,0.343745,0.424076,0.956058,714.328,-64.342)"
       style="fill:url(#linearGradient1431);stroke:none;stroke-width:1.52532005"
       id="path134"
       inkscape:connector-curvature="0" />
    <path
       d="m 216.506,677.071 c -86.531,-57.503 -46.797,-73.57 -33.946,-81.28 15.399,-9.942 15.158,-30.831 34.343,-27.924 19.184,2.907 30.725,26.107 44.124,54.875 9.883,20.638 43.06,48.918 41.124,72.065 -2.616,27.11 -48.166,6.878 -85.645,-17.736 z"
       transform="matrix(1.00431,-0.052286,-0.0174,1.04575,244.191,-28.4653)"
       style="fill:url(#linearGradient1433);stroke:none;stroke-width:1.52532005"
       id="path135"
       inkscape:connector-curvature="0" />
    <path
       d="m 415.072,495.764 c -3.007,24.906 -35.813,76.627 -69.518,81.534 -34.26,5.336 -66.432,-34.06 -74.147,-71.114 -9.889,-41.206 22.587,-57.6 71.938,-56.627 53.301,1.654 74.121,13.891 71.727,46.207 z"
       transform="matrix(0.515584,0.215259,-0.206526,0.49467,713.3,222.559)"
       style="font-size:12px;fill:#000000;stroke:none;stroke-width:2.85509992"
       id="path136"
       inkscape:connector-curvature="0" />
    <path
       d="m 415.072,495.764 c -3.007,24.906 -35.813,76.627 -69.518,81.534 -34.26,5.336 -66.432,-34.06 -74.147,-71.114 -9.889,-41.206 22.587,-57.6 71.938,-56.627 53.301,1.654 74.121,13.891 71.727,46.207 z"
       transform="matrix(0.351231,0.149463,-0.128856,0.343469,724.522,318.291)"
       style="font-size:12px;fill:url(#linearGradient1435);stroke:none;stroke-width:2.85509992"
       id="path137"
       inkscape:connector-curvature="0" />
    <path
       d="m 309.954,338.729 c 7.147,-6.77 24.811,-27.066 57.961,-5.755 6.162,4.01 11.162,4.377 23.021,9.455 23.726,9.749 12.382,33.259 -12.744,41.108 -10.758,3.489 -20.536,16.556 -40.129,15.439 -16.734,-0.977 -21.119,-11.874 -31.398,-17.906 -18.269,-10.311 -20.965,-24.254 -11.1,-31.653 9.866,-7.399 13.725,-10.059 14.389,-10.688 z"
       transform="matrix(1.25,0,0,1.25,185.454,-167.505)"
       style="fill:url(#linearGradient1437);stroke:#e68c3f;stroke-width:3.75"
       id="path119"
       inkscape:connector-curvature="0" />
    <path
       d="m 391.251,357.645 c -9.883,0.581 -31.393,22.091 -54.066,22.091 -22.673,0 -36.044,-20.929 -39.532,-20.929"
       transform="matrix(1.25,0,0,1.25,185.454,-167.505)"
       style="fill:none;stroke:#e68c3f;stroke-width:2.5"
       id="path120"
       inkscape:connector-curvature="0" />
    <path
       d="m 309.954,338.729 c 7.147,-6.77 29.691,-25.348 59.588,-6.328 6.299,3.766 12.804,7.865 22.478,13.464 19.162,11.748 9.671,28.678 -13.286,39.39 -10.418,4.495 -27.593,14.415 -40.671,13.721 -14.533,-1.408 -23.935,-11.399 -33.567,-17.906 -17.67,-12.303 -16.597,-22.237 -8.389,-30.508 6.205,-5.679 13.183,-11.204 13.847,-11.833 z"
       transform="matrix(0.627885,0,0,0.595666,392.366,51.8173)"
       style="fill:url(#linearGradient1439);stroke:none"
       id="path123"
       inkscape:connector-curvature="0" />
  </g>
</svg>
