<?xml version="1.0" encoding="UTF-8" standalone="no"?>
<svg
   xmlns:dc="http://purl.org/dc/elements/1.1/"
   xmlns:cc="http://creativecommons.org/ns#"
   xmlns:rdf="http://www.w3.org/1999/02/22-rdf-syntax-ns#"
   xmlns:svg="http://www.w3.org/2000/svg"
   xmlns="http://www.w3.org/2000/svg"
   height="100%"
   width="100%"
   version="1.1"
   id="svg2"
   viewBox="0,0,48,48">
  <defs
     id="defs4" />
  <metadata
     id="metadata7">
    <rdf:RDF>
      <cc:Work
         rdf:about="">
        <dc:format>image/svg+xml</dc:format>
        <dc:type
           rdf:resource="http://purl.org/dc/dcmitype/StillImage" />
        <dc:title></dc:title>
      </cc:Work>
    </rdf:RDF>
  </metadata>
  <rect
     y="7.5107841"
     x="7.5107832"
     height="32.978439"
     width="32.978439"
     id="rect832"
     style="opacity:1;fill:#ff0000;fill-opacity:1;stroke:none;stroke-width:1.78890407;stroke-linecap:butt;stroke-linejoin:round;stroke-miterlimit:4;stroke-dasharray:none;stroke-dashoffset:0;stroke-opacity:1;paint-order:fill markers stroke" />
  <path
     style="color:#000000;font-style:normal;font-variant:normal;font-weight:normal;font-stretch:normal;font-size:medium;line-height:normal;font-family:sans-serif;font-variant-ligatures:normal;font-variant-position:normal;font-variant-caps:normal;font-variant-numeric:normal;font-variant-alternates:normal;font-feature-settings:normal;text-indent:0;text-align:start;text-decoration:none;text-decoration-line:none;text-decoration-style:solid;text-decoration-color:#000000;letter-spacing:normal;word-spacing:normal;text-transform:none;writing-mode:lr-tb;direction:ltr;text-orientation:mixed;dominant-baseline:auto;baseline-shift:baseline;text-anchor:start;white-space:normal;shape-padding:0;clip-rule:nonzero;display:inline;overflow:visible;visibility:visible;opacity:1;isolation:auto;mix-blend-mode:normal;color-interpolation:sRGB;color-interpolation-filters:linearRGB;solid-color:#000000;solid-opacity:1;vector-effect:none;fill:#000000;fill-opacity:1;fill-rule:nonzero;stroke:none;stroke-width:1.65133166;stroke-linecap:butt;stroke-linejoin:miter;stroke-miterlimit:4;stroke-dasharray:1.65133172, 4.95399516;stroke-dashoffset:1;stroke-opacity:1;color-rendering:auto;image-rendering:auto;shape-rendering:auto;text-rendering:auto;enable-background:accumulate"
     d="M 7.4866828,7.4866828 H 6.661017 V 8.3123487 H 7.4866828 8.3123487 V 7.4866828 6.661017 H 7.4866828 Z m 5.7796612,0.8256659 h 1.651332 V 6.661017 h -1.651332 z m 6.605327,0 h 1.651331 V 6.661017 h -1.651331 z m 6.605327,0 h 1.651331 V 6.661017 h -1.651331 z m 6.605326,0 h 1.651332 V 6.661017 h -1.651332 z m 6.605327,-0.8256659 v 0.8256659 h 0.825666 0.825666 V 7.4866828 6.661017 H 40.513317 39.687651 Z M 6.661017,14.917676 H 8.3123487 V 13.266344 H 6.661017 Z m 33.026634,0 h 1.651332 V 13.266344 H 39.687651 Z M 6.661017,21.523002 H 8.3123487 V 19.871671 H 6.661017 Z m 33.026634,0 h 1.651332 V 19.871671 H 39.687651 Z M 6.661017,28.128329 H 8.3123487 V 26.476998 H 6.661017 Z m 33.026634,0 h 1.651332 V 26.476998 H 39.687651 Z M 6.661017,34.733656 H 8.3123487 V 33.082324 H 6.661017 Z m 33.026634,0 h 1.651332 V 33.082324 H 39.687651 Z M 6.661017,40.513317 v 0.825666 H 7.4866828 8.3123487 V 40.513317 39.687651 H 7.4866828 6.661017 Z m 6.605327,0.825666 h 1.651332 v -1.651332 h -1.651332 z m 6.605327,0 h 1.651331 v -1.651332 h -1.651331 z m 6.605327,0 h 1.651331 v -1.651332 h -1.651331 z m 6.605326,0 h 1.651332 v -1.651332 h -1.651332 z m 6.605327,-0.825666 v 0.825666 h 0.825666 0.825666 v -0.825666 -0.825666 h -0.825666 -0.825666 z"
     id="rect5103" />
</svg>
