<?xml version="1.0" encoding="UTF-8" standalone="no"?>
<svg
   xmlns:dc="http://purl.org/dc/elements/1.1/"
   xmlns:cc="http://creativecommons.org/ns#"
   xmlns:rdf="http://www.w3.org/1999/02/22-rdf-syntax-ns#"
   xmlns:svg="http://www.w3.org/2000/svg"
   xmlns="http://www.w3.org/2000/svg"
   xmlns:xlink="http://www.w3.org/1999/xlink"
   xmlns:sodipodi="http://sodipodi.sourceforge.net/DTD/sodipodi-0.dtd"
   xmlns:inkscape="http://www.inkscape.org/namespaces/inkscape"
   height="100%"
   width="100%"
   version="1.1"
   id="svg2"
   viewBox="0,0,48,48"
   inkscape:version="0.91 r13725"
   sodipodi:docname="text.svg">
  <sodipodi:namedview
     pagecolor="#ffffff"
     bordercolor="#666666"
     borderopacity="1"
     objecttolerance="10"
     gridtolerance="10"
     guidetolerance="10"
     inkscape:pageopacity="0"
     inkscape:pageshadow="2"
     inkscape:window-width="1280"
     inkscape:window-height="790"
     id="namedview15"
     showgrid="false"
     inkscape:zoom="4.9166667"
     inkscape:cx="-4.3728814"
     inkscape:cy="24"
     inkscape:window-x="-8"
     inkscape:window-y="-8"
     inkscape:window-maximized="1"
     inkscape:current-layer="svg2" />
  <defs
     id="defs4">
    <linearGradient
       id="linearGradient4258">
      <stop
         id="stop4262"
         offset="0"
         style="stop-color:#a5a5a5;stop-opacity:1" />
      <stop
         id="stop4260"
         offset="1"
         style="stop-color:#000000;stop-opacity:1;" />
    </linearGradient>
    <linearGradient
       id="linearGradient4226">
      <stop
         id="stop4228"
         offset="0"
         style="stop-color:#000000;stop-opacity:1;" />
      <stop
         id="stop4230"
         offset="1"
         style="stop-color:#a5a5a5;stop-opacity:1" />
    </linearGradient>
    <linearGradient
       gradientTransform="matrix(1.434881,0,0,1.434881,-11.246876,-11.154875)"
       gradientUnits="userSpaceOnUse"
       y2="9.5593224"
       x2="24.471233"
       y1="38.960407"
       x1="24.471233"
       id="linearGradient4232"
       xlink:href="#linearGradient4226" />
    <linearGradient
       gradientTransform="matrix(1.434881,0,0,1.434881,-9.8123693,-9.7194115)"
       gradientUnits="userSpaceOnUse"
       y2="9.5593224"
       x2="24.471233"
       y1="38.960407"
       x1="24.471233"
       id="linearGradient4232-1"
       xlink:href="#linearGradient4258" />
    <filter
       inkscape:collect="always"
       style="color-interpolation-filters:sRGB"
       id="filter4155"
       x="-0.03549212"
       width="1.0709842"
       y="-0.036522626"
       height="1.0730453">
      <feGaussianBlur
         inkscape:collect="always"
         stdDeviation="0.65217022"
         id="feGaussianBlur4157" />
    </filter>
  </defs>
  <metadata
     id="metadata7">
    <rdf:RDF>
      <cc:Work
         rdf:about="">
        <dc:format>image/svg+xml</dc:format>
        <dc:type
           rdf:resource="http://purl.org/dc/dcmitype/StillImage" />
        <dc:title />
      </cc:Work>
    </rdf:RDF>
  </metadata>
  <path
     id="path4206-2"
     d="M 3.4434642,3.2898019 3.3397653,5.3328258 2.6671649,18.653118 l 5.5825845,0 0.1513341,-1.989776 c 0.1429715,-1.87895 0.5888794,-3.190521 1.1602361,-4.024394 0.6550744,-0.956055 1.3056744,-1.450409 2.0458264,-1.723539 0.433071,-0.149079 1.880758,-0.364324 3.968342,-0.364324 l 3.514338,0 c 0,9.057968 0,16.99378 0,25.270159 0,2.50481 -0.552857,4.100663 -0.386745,3.859045 -0.377652,0.542115 -0.914157,0.87438 -2.469004,0.87438 l -3.819811,0 0,5.590992 24.303296,0 0,-5.590992 -3.788982,0 c -1.437828,0 -2.068129,-0.327737 -2.452189,-0.745465 0.130531,0.147177 -0.0819,-0.131105 -0.20178,-0.823936 -0.123529,-0.713925 -0.20178,-1.79232 -0.20178,-3.164024 0,-8.526891 0,-17.780282 0,-25.270159 l 4.49241,0 c 1.709494,0 2.912394,0.29728 3.657265,0.706231 l 0.02243,0.01119 0.02241,0.01406 c 0.800055,0.415412 1.430586,1.033335 1.978567,2.057035 0.198073,0.377951 0.570974,1.616774 0.809923,3.441473 l 0.243818,1.872072 5.467681,0 -0.723046,-15.3633166 -42.6008306,0 z m 36.8080598,4.170123 0.04484,0.025225 c -0.0069,-0.00373 -0.01553,-0.00459 -0.02243,-0.00847 -0.0083,-0.0043 -0.01406,-0.012483 -0.02243,-0.016817 z"
     style="color:#000000;font-style:normal;font-variant:normal;font-weight:normal;font-stretch:normal;font-size:medium;line-height:125%;font-family:serif;-inkscape-font-specification:serif;text-indent:0;text-align:start;text-decoration:none;text-decoration-line:none;text-decoration-style:solid;text-decoration-color:#000000;letter-spacing:0px;word-spacing:0px;text-transform:none;direction:ltr;block-progression:tb;writing-mode:lr-tb;baseline-shift:baseline;text-anchor:start;white-space:normal;clip-rule:nonzero;display:inline;overflow:visible;visibility:visible;opacity:1;isolation:auto;mix-blend-mode:normal;color-interpolation:sRGB;color-interpolation-filters:linearRGB;solid-color:#000000;solid-opacity:1;fill:url(#linearGradient4232-1);fill-opacity:1;fill-rule:nonzero;stroke:none;stroke-width:3;stroke-linecap:butt;stroke-linejoin:miter;stroke-miterlimit:4;stroke-dasharray:none;stroke-dashoffset:0;stroke-opacity:1;color-rendering:auto;image-rendering:auto;shape-rendering:auto;text-rendering:auto;enable-background:accumulate;filter:url(#filter4155)"
     inkscape:connector-curvature="0" />
  <path
     id="path4206"
     d="M 2.008958,1.8543387 1.9052649,3.8973621 1.2326644,17.217655 l 5.5825843,0 0.1513341,-1.989777 C 7.1095543,13.348929 7.5554622,12.037357 8.1268189,11.203485 8.7818937,10.247429 9.4324931,9.7530756 10.172645,9.479946 10.605716,9.3308661 12.053404,9.1156211 14.140988,9.1156211 l 3.514337,0 c 0,9.0579689 0,16.9937799 0,25.2701589 0,2.50481 -0.552857,4.100663 -0.386745,3.859045 -0.377652,0.542115 -0.914157,0.874381 -2.469004,0.874381 l -3.819811,0 0,5.590992 24.303297,0 0,-5.590992 -3.788983,0 c -1.437828,0 -2.068128,-0.327737 -2.452188,-0.745465 0.130531,0.147177 -0.0819,-0.131105 -0.201781,-0.823936 -0.123528,-0.713925 -0.20178,-1.79232 -0.20178,-3.164025 0,-8.52689 0,-17.780281 0,-25.2701589 l 4.49241,0 c 1.709494,0 2.912394,0.2972801 3.657265,0.7062312 l 0.02243,0.011192 0.02241,0.014062 c 0.800055,0.4154128 1.430586,1.0333348 1.978567,2.0570348 0.198073,0.377951 0.570974,1.616774 0.809923,3.441473 l 0.243818,1.872072 5.467681,0 -0.723046,-15.3633157 -42.6008306,0 z m 36.808059,4.1701226 0.04484,0.025225 c -0.0069,-0.00373 -0.01553,-0.00459 -0.02243,-0.00847 -0.0083,-0.0043 -0.01406,-0.012483 -0.02243,-0.016817 z"
     style="color:#000000;font-style:normal;font-variant:normal;font-weight:normal;font-stretch:normal;font-size:medium;line-height:125%;font-family:serif;-inkscape-font-specification:serif;text-indent:0;text-align:start;text-decoration:none;text-decoration-line:none;text-decoration-style:solid;text-decoration-color:#000000;letter-spacing:0px;word-spacing:0px;text-transform:none;direction:ltr;block-progression:tb;writing-mode:lr-tb;baseline-shift:baseline;text-anchor:start;white-space:normal;clip-rule:nonzero;display:inline;overflow:visible;visibility:visible;opacity:1;isolation:auto;mix-blend-mode:normal;color-interpolation:sRGB;color-interpolation-filters:linearRGB;solid-color:#000000;solid-opacity:1;fill:url(#linearGradient4232);fill-opacity:1;fill-rule:nonzero;stroke:none;stroke-width:3;stroke-linecap:butt;stroke-linejoin:miter;stroke-miterlimit:4;stroke-dasharray:none;stroke-dashoffset:0;stroke-opacity:1;color-rendering:auto;image-rendering:auto;shape-rendering:auto;text-rendering:auto;enable-background:accumulate"
     inkscape:connector-curvature="0" />
</svg>
