<?xml version="1.0" encoding="UTF-8" standalone="no"?>
<svg
   xmlns:dc="http://purl.org/dc/elements/1.1/"
   xmlns:cc="http://creativecommons.org/ns#"
   xmlns:rdf="http://www.w3.org/1999/02/22-rdf-syntax-ns#"
   xmlns:svg="http://www.w3.org/2000/svg"
   xmlns="http://www.w3.org/2000/svg"
   xmlns:xlink="http://www.w3.org/1999/xlink"
   width="462"
   height="260"
   viewBox="0 0 122.2375 68.791669"
   version="1.1"
   id="svg8">
  <defs
     id="defs2">
    <linearGradient
       id="linearGradient861-5">
      <stop
         style="stop-color:#a7a7a7;stop-opacity:1"
         offset="0"
         id="stop1069" />
      <stop
         style="stop-color:#464646;stop-opacity:1"
         offset="1"
         id="stop1067" />
    </linearGradient>
    <linearGradient
       id="linearGradient861">
      <stop
         style="stop-color:#212121;stop-opacity:1"
         offset="0"
         id="stop1030" />
      <stop
         style="stop-color:#e2e2e2;stop-opacity:1"
         offset="1"
         id="stop1032" />
    </linearGradient>
    <linearGradient
       id="linearGradient861-5-1">
      <stop
         style="stop-color:#464646;stop-opacity:1"
         offset="0"
         id="stop857" />
      <stop
         style="stop-color:#a7a7a7;stop-opacity:1"
         offset="1"
         id="stop859" />
    </linearGradient>
    <linearGradient
       xlink:href="#linearGradient861-5-1"
       id="linearGradient863"
       x1="66.683746"
       y1="53.906509"
       x2="32.835846"
       y2="-16.385378"
       gradientUnits="userSpaceOnUse"
       gradientTransform="matrix(0.99341205,0,0,0.99341205,0.40264735,0.22659807)" />
    <linearGradient
       xlink:href="#linearGradient861"
       id="linearGradient1019"
       gradientUnits="userSpaceOnUse"
       gradientTransform="matrix(1.0043478,0,0,1.007752,-0.26573369,-0.26663453)"
       x1="66.683746"
       y1="53.906509"
       x2="32.835846"
       y2="-16.385378" />
    <linearGradient
       xlink:href="#linearGradient861-5"
       id="linearGradient1064"
       gradientUnits="userSpaceOnUse"
       gradientTransform="matrix(0.9755149,0,0,0.96062121,1.4964978,1.3544651)"
       x1="66.683746"
       y1="53.906509"
       x2="32.835846"
       y2="-16.385378" />
    <filter
       style="color-interpolation-filters:sRGB"
       id="filter1112"
       x="-0.005993739"
       width="1.0119875"
       y="-0.010686512"
       height="1.021373">
      <feGaussianBlur
         stdDeviation="0.30195092"
         id="feGaussianBlur1114" />
    </filter>
  </defs>
  <metadata
     id="metadata5">
    <rdf:RDF>
      <cc:Work
         rdf:about="">
        <dc:format>image/svg+xml</dc:format>
        <dc:type
           rdf:resource="http://purl.org/dc/dcmitype/StillImage" />
        <dc:title></dc:title>
      </cc:Work>
    </rdf:RDF>
  </metadata>
  <g
     id="layer1">
    <path
       id="rect833-1"
       style="fill:url(#linearGradient1064);fill-opacity:1;stroke:none;stroke-width:0.529167;stroke-miterlimit:4;stroke-dasharray:none;stroke-opacity:1"
       d="m 4.3244793,1.6086296 c -1.4237116,0 -2.5698765,1.1248535 -2.5698765,2.5220926 V 64.660941 c 0,1.397239 1.1461649,2.522093 2.5698765,2.522093 H 117.91303 c 1.42371,0 2.56987,-1.124854 2.56987,-2.522093 V 4.1307222 c 0,-1.3972391 -1.14616,-2.5220926 -2.56987,-2.5220926 z M 6.8943558,6.6528145 H 115.34315 V 62.138849 H 6.8943558 Z" />
    <path
       id="rect833-7"
       style="fill:url(#linearGradient1019);fill-opacity:1.0;stroke:none;stroke-width:0.529167;stroke-miterlimit:4;stroke-dasharray:none;stroke-opacity:1"
       d="M 2.6458333,0 C 1.1800417,0 0,1.1800418 0,2.6458334 V 66.145832 c 0,1.465792 1.1800417,2.645835 2.6458333,2.645835 H 119.59167 c 1.4658,0 2.64584,-1.180043 2.64584,-2.645835 V 2.6458334 C 122.23751,1.1800418 121.05747,0 119.59167,0 Z M 5.2916668,5.2916667 H 116.94585 V 63.499999 H 5.2916668 Z" />
    <path
       id="rect833"
       style="fill:url(#linearGradient863);fill-opacity:1;stroke:none;stroke-width:0.529167;stroke-miterlimit:4;stroke-dasharray:none;stroke-opacity:1;filter:url(#filter1112)"
       d="m 3.2825119,0.4894385 c -1.4498314,0 -2.61702428,1.1632503 -2.61702428,2.6081843 V 65.694043 c 0,1.444934 1.16719288,2.608185 2.61702428,2.608185 H 118.95499 c 1.44984,0 2.61703,-1.163251 2.61703,-2.608185 V 3.0976228 c 0,-1.444934 -1.16719,-2.6081843 -2.61703,-2.6081843 z M 5.8995364,5.7058069 H 116.33798 V 63.085859 H 5.8995364 Z" />
  </g>
</svg>
